  0
SECTION
  2
HEADER
  9
$ACADVER
  1
AC1018
  9
$ACADMAINTVER
 70
     0
  9
$DWGCODEPAGE
  3
ANSI_1252
  9
$INSBASE
 10
0.0
 20
0.0
 30
0.0
  9
$EXTMIN
 10
1.000000000000000E+20
 20
1.000000000000000E+20
 30
1.000000000000000E+20
  9
$EXTMAX
 10
-1.000000000000000E+20
 20
-1.000000000000000E+20
 30
-1.000000000000000E+20
  9
$LIMMIN
 10
0.0
 20
0.0
  9
$LIMMAX
 10
12.0
 20
9.0
  9
$ORTHOMODE
 70
     0
  9
$REGENMODE
 70
     1
  9
$FILLMODE
 70
     1
  9
$QTEXTMODE
 70
     0
  9
$MIRRTEXT
 70
     1
  9
$LTSCALE
 40
1.0
  9
$ATTMODE
 70
     1
  9
$TEXTSIZE
 40
0.2
  9
$TRACEWID
 40
0.05
  9
$TEXTSTYLE
  7
Standard
  9
$CLAYER
  8
0
  9
$CELTYPE
  6
ByLayer
  9
$CECOLOR
 62
   256
  9
$CELTSCALE
 40
1.0
  9
$DISPSILH
 70
     0
  9
$DIMSCALE
 40
1.0
  9
$DIMASZ
 40
0.18
  9
$DIMEXO
 40
0.0625
  9
$DIMDLI
 40
0.38
  9
$DIMRND
 40
0.0
  9
$DIMDLE
 40
0.0
  9
$DIMEXE
 40
0.18
  9
$DIMTP
 40
0.0
  9
$DIMTM
 40
0.0
  9
$DIMTXT
 40
0.18
  9
$DIMCEN
 40
0.09
  9
$DIMTSZ
 40
0.0
  9
$DIMTOL
 70
     0
  9
$DIMLIM
 70
     0
  9
$DIMTIH
 70
     1
  9
$DIMTOH
 70
     1
  9
$DIMSE1
 70
     0
  9
$DIMSE2
 70
     0
  9
$DIMTAD
 70
     0
  9
$DIMZIN
 70
     0
  9
$DIMBLK
  1

  9
$DIMASO
 70
     1
  9
$DIMSHO
 70
     1
  9
$DIMPOST
  1

  9
$DIMAPOST
  1

  9
$DIMALT
 70
     0
  9
$DIMALTD
 70
     2
  9
$DIMALTF
 40
25.4
  9
$DIMLFAC
 40
1.0
  9
$DIMTOFL
 70
     0
  9
$DIMTVP
 40
0.0
  9
$DIMTIX
 70
     0
  9
$DIMSOXD
 70
     0
  9
$DIMSAH
 70
     0
  9
$DIMBLK1
  1

  9
$DIMBLK2
  1

  9
$DIMSTYLE
  2
Standard
  9
$DIMCLRD
 70
     0
  9
$DIMCLRE
 70
     0
  9
$DIMCLRT
 70
     0
  9
$DIMTFAC
 40
1.0
  9
$DIMGAP
 40
0.09
  9
$DIMJUST
 70
     0
  9
$DIMSD1
 70
     0
  9
$DIMSD2
 70
     0
  9
$DIMTOLJ
 70
     1
  9
$DIMTZIN
 70
     0
  9
$DIMALTZ
 70
     0
  9
$DIMALTTZ
 70
     0
  9
$DIMUPT
 70
     0
  9
$DIMDEC
 70
     4
  9
$DIMTDEC
 70
     4
  9
$DIMALTU
 70
     2
  9
$DIMALTTD
 70
     2
  9
$DIMTXSTY
  7
Standard
  9
$DIMAUNIT
 70
     0
  9
$DIMADEC
 70
     0
  9
$DIMALTRND
 40
0.0
  9
$DIMAZIN
 70
     0
  9
$DIMDSEP
 70
    46
  9
$DIMATFIT
 70
     3
  9
$DIMFRAC
 70
     0
  9
$DIMLDRBLK
  1

  9
$DIMLUNIT
 70
     2
  9
$DIMLWD
 70
    -2
  9
$DIMLWE
 70
    -2
  9
$DIMTMOVE
 70
     0
  9
$LUNITS
 70
     2
  9
$LUPREC
 70
     4
  9
$SKETCHINC
 40
0.1
  9
$FILLETRAD
 40
0.5
  9
$AUNITS
 70
     0
  9
$AUPREC
 70
     0
  9
$MENU
  1
.
  9
$ELEVATION
 40
0.0
  9
$PELEVATION
 40
0.0
  9
$THICKNESS
 40
0.0
  9
$LIMCHECK
 70
     0
  9
$CHAMFERA
 40
0.5
  9
$CHAMFERB
 40
0.5
  9
$CHAMFERC
 40
1.0
  9
$CHAMFERD
 40
0.0
  9
$SKPOLY
 70
     0
  9
$TDCREATE
 40
2460816.68114765
  9
$TDUCREATE
 40
2460816.264480984
  9
$TDUPDATE
 40
2460816.681147662
  9
$TDUUPDATE
 40
2460816.264480995
  9
$TDINDWG
 40
0.0000000116
  9
$TDUSRTIMER
 40
0.0000000116
  9
$USRTIMER
 70
     1
  9
$ANGBASE
 50
0.0
  9
$ANGDIR
 70
     0
  9
$PDMODE
 70
     0
  9
$PDSIZE
 40
0.0
  9
$PLINEWID
 40
0.0
  9
$SPLFRAME
 70
     0
  9
$SPLINETYPE
 70
     6
  9
$SPLINESEGS
 70
     8
  9
$HANDSEED
  5
10C
  9
$SURFTAB1
 70
     6
  9
$SURFTAB2
 70
     6
  9
$SURFTYPE
 70
     6
  9
$SURFU
 70
     6
  9
$SURFV
 70
     6
  9
$UCSBASE
  2

  9
$UCSNAME
  2

  9
$UCSORG
 10
0.0
 20
0.0
 30
0.0
  9
$UCSXDIR
 10
1.0
 20
0.0
 30
0.0
  9
$UCSYDIR
 10
0.0
 20
1.0
 30
0.0
  9
$UCSORTHOREF
  2

  9
$UCSORTHOVIEW
 70
     0
  9
$UCSORGTOP
 10
0.0
 20
0.0
 30
0.0
  9
$UCSORGBOTTOM
 10
0.0
 20
0.0
 30
0.0
  9
$UCSORGLEFT
 10
0.0
 20
0.0
 30
0.0
  9
$UCSORGRIGHT
 10
0.0
 20
0.0
 30
0.0
  9
$UCSORGFRONT
 10
0.0
 20
0.0
 30
0.0
  9
$UCSORGBACK
 10
0.0
 20
0.0
 30
0.0
  9
$PUCSBASE
  2

  9
$PUCSNAME
  2

  9
$PUCSORG
 10
0.0
 20
0.0
 30
0.0
  9
$PUCSXDIR
 10
1.0
 20
0.0
 30
0.0
  9
$PUCSYDIR
 10
0.0
 20
1.0
 30
0.0
  9
$PUCSORTHOREF
  2

  9
$PUCSORTHOVIEW
 70
     0
  9
$PUCSORGTOP
 10
0.0
 20
0.0
 30
0.0
  9
$PUCSORGBOTTOM
 10
0.0
 20
0.0
 30
0.0
  9
$PUCSORGLEFT
 10
0.0
 20
0.0
 30
0.0
  9
$PUCSORGRIGHT
 10
0.0
 20
0.0
 30
0.0
  9
$PUCSORGFRONT
 10
0.0
 20
0.0
 30
0.0
  9
$PUCSORGBACK
 10
0.0
 20
0.0
 30
0.0
  9
$USERI1
 70
     0
  9
$USERI2
 70
     0
  9
$USERI3
 70
     0
  9
$USERI4
 70
     0
  9
$USERI5
 70
     0
  9
$USERR1
 40
0.0
  9
$USERR2
 40
0.0
  9
$USERR3
 40
0.0
  9
$USERR4
 40
0.0
  9
$USERR5
 40
0.0
  9
$WORLDVIEW
 70
     1
  9
$SHADEDGE
 70
     3
  9
$SHADEDIF
 70
    70
  9
$TILEMODE
 70
     1
  9
$MAXACTVP
 70
    64
  9
$PINSBASE
 10
0.0
 20
0.0
 30
0.0
  9
$PLIMCHECK
 70
     0
  9
$PEXTMIN
 10
1.000000000000000E+20
 20
1.000000000000000E+20
 30
1.000000000000000E+20
  9
$PEXTMAX
 10
-1.000000000000000E+20
 20
-1.000000000000000E+20
 30
-1.000000000000000E+20
  9
$PLIMMIN
 10
0.0
 20
0.0
  9
$PLIMMAX
 10
12.0
 20
9.0
  9
$UNITMODE
 70
     0
  9
$VISRETAIN
 70
     1
  9
$PLINEGEN
 70
     0
  9
$PSLTSCALE
 70
     1
  9
$TREEDEPTH
 70
  3020
  9
$CMLSTYLE
  2
Standard
  9
$CMLJUST
 70
     0
  9
$CMLSCALE
 40
1.0
  9
$PROXYGRAPHICS
 70
     1
  9
$MEASUREMENT
 70
     0
  9
$CELWEIGHT
370
    -1
  9
$ENDCAPS
280
     0
  9
$JOINSTYLE
280
     0
  9
$LWDISPLAY
290
     1
  9
$INSUNITS
 70
     1
  9
$HYPERLINKBASE
  1

  9
$STYLESHEET
  1

  9
$XEDIT
290
     1
  9
$CEPSNTYPE
380
     0
  9
$PSTYLEMODE
290
     1
  9
$FINGERPRINTGUID
  2
{A5C094FE-DB29-4176-B684-DEC96B3BD9B8}
  9
$VERSIONGUID
  2
{FAEB1C32-E019-11D5-929B-00C0DF256EC4}
  9
$EXTNAMES
290
     1
  9
$PSVPSCALE
 40
0.0
  9
$OLESTARTUP
290
     0
  9
$SORTENTS
280
   127
  9
$INDEXCTL
280
     0
  9
$HIDETEXT
280
     1
  9
$XCLIPFRAME
290
     0
  9
$HALOGAP
280
     0
  9
$OBSCOLOR
 70
   257
  9
$OBSLTYPE
280
     0
  9
$INTERSECTIONDISPLAY
280
     0
  9
$INTERSECTIONCOLOR
 70
   257
  9
$DIMASSOC
280
     2
  9
$PROJECTNAME
  1

  0
ENDSEC
  0
SECTION
  2
CLASSES
  0
CLASS
  1
ACDBDICTIONARYWDFLT
  2
AcDbDictionaryWithDefault
  3
ObjectDBX Classes
 90
        0
 91
        3
280
     0
281
     0
  0
CLASS
  1
VISUALSTYLE
  2
AcDbVisualStyle
  3
ObjectDBX Classes
 90
     4095
 91
        3
280
     0
281
     0
  0
ENDSEC
  0
SECTION
  2
TABLES
  0
TABLE
  2
VPORT
  5
8
330
0
100
AcDbSymbolTable
 70
     1
  0
VPORT
  5
29
330
8
100
AcDbSymbolTableRecord
100
AcDbViewportTableRecord
  2
*Active
 70
     0
 10
0.0
 20
0.0
 11
1.0
 21
1.0
 12
0.0
 22
0.0
 13
0.0
 23
0.0
 14
0.5
 24
0.5
 15
0.5
 25
0.5
 16
0.0
 26
0.0
 36
1.0
 17
148.4999796178229
 27
-105.0008259828644
 37
0.0
 40
210.0016519657288
 41
1.414274394775308
 42
50.0
 43
0.0
 44
0.0
 50
0.0
 51
0.0
 71
     0
 72
   100
 73
     1
 74
     3
 75
     0
 76
     0
 77
     0
 78
     0
281
     0
 65
     1
110
0.0
120
0.0
130
0.0
111
1.0
121
0.0
131
0.0
112
0.0
122
1.0
132
0.0
 79
     0
146
0.0
  0
ENDTAB
  0
TABLE
  2
LTYPE
  5
5
330
0
100
AcDbSymbolTable
 70
     1
  0
LTYPE
  5
14
330
5
100
AcDbSymbolTableRecord
100
AcDbLinetypeTableRecord
  2
ByBlock
 70
     0
  3

 72
    65
 73
     0
 40
0.0
  0
LTYPE
  5
15
330
5
100
AcDbSymbolTableRecord
100
AcDbLinetypeTableRecord
  2
ByLayer
 70
     0
  3

 72
    65
 73
     0
 40
0.0
  0
LTYPE
  5
16
330
5
100
AcDbSymbolTableRecord
100
AcDbLinetypeTableRecord
  2
Continuous
 70
     0
  3
Solid line
 72
    65
 73
     0
 40
0.0
  0
ENDTAB
  0
TABLE
  2
LAYER
  5
2
330
0
100
AcDbSymbolTable
 70
     2
  0
LAYER
  5
10
330
2
100
AcDbSymbolTableRecord
100
AcDbLayerTableRecord
  2
0
 70
     0
 62
     7
  6
Continuous
370
    -3
390
F
  0
LAYER
  5
3B
330
2
100
AcDbSymbolTableRecord
100
AcDbLayerTableRecord
  2
Layer 1
 70
     0
 62
     7
  6
Continuous
370
    -3
390
F
  0
ENDTAB
  0
TABLE
  2
STYLE
  5
3
330
0
100
AcDbSymbolTable
 70
     1
  0
STYLE
  5
11
330
3
100
AcDbSymbolTableRecord
100
AcDbTextStyleTableRecord
  2
Standard
 70
     0
 40
0.0
 41
1.0
 50
0.0
 71
     0
 42
0.2
  3
txt
  4

  0
ENDTAB
  0
TABLE
  2
VIEW
  5
6
330
0
100
AcDbSymbolTable
 70
     0
  0
ENDTAB
  0
TABLE
  2
UCS
  5
7
330
0
100
AcDbSymbolTable
 70
     0
  0
ENDTAB
  0
TABLE
  2
APPID
  5
9
330
0
100
AcDbSymbolTable
 70
     1
  0
APPID
  5
12
330
9
100
AcDbSymbolTableRecord
100
AcDbRegAppTableRecord
  2
ACAD
 70
     0
  0
ENDTAB
  0
TABLE
  2
DIMSTYLE
  5
A
330
0
100
AcDbSymbolTable
 70
     1
100
AcDbDimStyleTable
  0
DIMSTYLE
105
27
330
A
100
AcDbSymbolTableRecord
100
AcDbDimStyleTableRecord
  2
Standard
 70
     0
340
11
  0
ENDTAB
  0
TABLE
  2
BLOCK_RECORD
  5
1
330
0
100
AcDbSymbolTable
 70
    24
  0
BLOCK_RECORD
  5
1F
330
1
100
AcDbSymbolTableRecord
100
AcDbBlockTableRecord
  2
*Model_Space
340
22
  0
BLOCK_RECORD
  5
1B
330
1
100
AcDbSymbolTableRecord
100
AcDbBlockTableRecord
  2
*Paper_Space
340
1E
  0
BLOCK_RECORD
  5
23
330
1
100
AcDbSymbolTableRecord
100
AcDbBlockTableRecord
  2
*Paper_Space0
340
26
  0
BLOCK_RECORD
  5
3C
330
1
100
AcDbSymbolTableRecord
100
AcDbBlockTableRecord
  2
block 2
340
0
102
{BLKREFS
331
3D
102
}
  0
BLOCK_RECORD
  5
40
330
1
100
AcDbSymbolTableRecord
100
AcDbBlockTableRecord
  2
block 3
340
0
102
{BLKREFS
331
41
102
}
  0
BLOCK_RECORD
  5
5C
330
1
100
AcDbSymbolTableRecord
100
AcDbBlockTableRecord
  2
block 4
340
0
102
{BLKREFS
331
5D
102
}
  0
BLOCK_RECORD
  5
68
330
1
100
AcDbSymbolTableRecord
100
AcDbBlockTableRecord
  2
block 5
340
0
102
{BLKREFS
331
69
102
}
  0
BLOCK_RECORD
  5
6C
330
1
100
AcDbSymbolTableRecord
100
AcDbBlockTableRecord
  2
block 6
340
0
102
{BLKREFS
331
6D
102
}
  0
BLOCK_RECORD
  5
70
330
1
100
AcDbSymbolTableRecord
100
AcDbBlockTableRecord
  2
block 7
340
0
102
{BLKREFS
331
71
102
}
  0
BLOCK_RECORD
  5
79
330
1
100
AcDbSymbolTableRecord
100
AcDbBlockTableRecord
  2
block 8
340
0
102
{BLKREFS
331
7A
102
}
  0
BLOCK_RECORD
  5
7D
330
1
100
AcDbSymbolTableRecord
100
AcDbBlockTableRecord
  2
block 9
340
0
102
{BLKREFS
331
7E
102
}
  0
BLOCK_RECORD
  5
81
330
1
100
AcDbSymbolTableRecord
100
AcDbBlockTableRecord
  2
block 10
340
0
102
{BLKREFS
331
82
102
}
  0
BLOCK_RECORD
  5
85
330
1
100
AcDbSymbolTableRecord
100
AcDbBlockTableRecord
  2
block 11
340
0
102
{BLKREFS
331
86
102
}
  0
BLOCK_RECORD
  5
8C
330
1
100
AcDbSymbolTableRecord
100
AcDbBlockTableRecord
  2
block 12
340
0
102
{BLKREFS
331
8D
102
}
  0
BLOCK_RECORD
  5
90
330
1
100
AcDbSymbolTableRecord
100
AcDbBlockTableRecord
  2
block 13
340
0
102
{BLKREFS
331
91
102
}
  0
BLOCK_RECORD
  5
94
330
1
100
AcDbSymbolTableRecord
100
AcDbBlockTableRecord
  2
block 14
340
0
102
{BLKREFS
331
95
102
}
  0
BLOCK_RECORD
  5
98
330
1
100
AcDbSymbolTableRecord
100
AcDbBlockTableRecord
  2
block 15
340
0
102
{BLKREFS
331
99
102
}
  0
BLOCK_RECORD
  5
9C
330
1
100
AcDbSymbolTableRecord
100
AcDbBlockTableRecord
  2
block 16
340
0
102
{BLKREFS
331
9D
102
}
  0
BLOCK_RECORD
  5
A6
330
1
100
AcDbSymbolTableRecord
100
AcDbBlockTableRecord
  2
block 17
340
0
102
{BLKREFS
331
A7
102
}
  0
BLOCK_RECORD
  5
BE
330
1
100
AcDbSymbolTableRecord
100
AcDbBlockTableRecord
  2
block 18
340
0
102
{BLKREFS
331
BF
102
}
  0
BLOCK_RECORD
  5
C2
330
1
100
AcDbSymbolTableRecord
100
AcDbBlockTableRecord
  2
block 19
340
0
102
{BLKREFS
331
C3
102
}
  0
BLOCK_RECORD
  5
CF
330
1
100
AcDbSymbolTableRecord
100
AcDbBlockTableRecord
  2
block 20
340
0
102
{BLKREFS
331
D0
102
}
  0
BLOCK_RECORD
  5
D8
330
1
100
AcDbSymbolTableRecord
100
AcDbBlockTableRecord
  2
block 21
340
0
102
{BLKREFS
331
D9
102
}
  0
BLOCK_RECORD
  5
E1
330
1
100
AcDbSymbolTableRecord
100
AcDbBlockTableRecord
  2
block 22
340
0
102
{BLKREFS
331
E2
102
}
  0
BLOCK_RECORD
  5
101
330
1
100
AcDbSymbolTableRecord
100
AcDbBlockTableRecord
  2
block 23
340
0
102
{BLKREFS
331
102
102
}
  0
BLOCK_RECORD
  5
105
330
1
100
AcDbSymbolTableRecord
100
AcDbBlockTableRecord
  2
block 24
340
0
102
{BLKREFS
331
106
102
}
  0
ENDTAB
  0
ENDSEC
  0
SECTION
  2
BLOCKS
  0
BLOCK
  5
20
330
1F
100
AcDbEntity
  8
0
100
AcDbBlockBegin
  2
*Model_Space
 70
     0
 71
     0
 10
0.0
 20
0.0
 30
0.0
  3
*Model_Space
  1

  0
ENDBLK
  5
21
330
1F
100
AcDbEntity
  8
0
100
AcDbBlockEnd
  0
BLOCK
  5
1C
330
1B
100
AcDbEntity
 67
     1
  8
0
100
AcDbBlockBegin
  2
*Paper_Space
 70
     0
 71
     0
 10
0.0
 20
0.0
 30
0.0
  3
*Paper_Space
  1

  0
ENDBLK
  5
1D
330
1B
100
AcDbEntity
 67
     1
  8
0
100
AcDbBlockEnd
  0
BLOCK
  5
24
330
23
100
AcDbEntity
  8
0
100
AcDbBlockBegin
  2
*Paper_Space0
 70
     0
 71
     0
 10
0.0
 20
0.0
 30
0.0
  3
*Paper_Space0
  1

  0
ENDBLK
  5
25
330
23
100
AcDbEntity
  8
0
100
AcDbBlockEnd
  0
BLOCK
  5
3E
330
3C
100
AcDbEntity
  8
0
100
AcDbBlockBegin
  2
block 2
 70
     0
 71
     0
 10
0.0
 20
0.0
 30
0.0
  3
block 2
  1

  0
INSERT
  5
41
330
3C
100
AcDbEntity
  8
Layer 1
100
AcDbBlockReference
  2
block 3
 10
0.0
 20
0.0
 30
0.0
  0
POLYLINE
  5
4A
330
3C
100
AcDbEntity
  8
Layer 1
370
     0
100
AcDb2dPolyline
 66
     1
 10
0.0
 20
0.0
 30
0.0
  0
VERTEX
  5
4B
330
4A
100
AcDbEntity
  8
Layer 1
370
     0
100
AcDbVertex
100
AcDb2dVertex
 10
282.1009547905859
 20
-140.0252169788826
 30
0.0
  0
VERTEX
  5
4C
330
4A
100
AcDbEntity
  8
Layer 1
370
     0
100
AcDbVertex
100
AcDb2dVertex
 10
280.7160264055154
 20
-137.6246744447605
 30
0.0
  0
VERTEX
  5
4D
330
4A
100
AcDbEntity
  8
Layer 1
370
     0
100
AcDbVertex
100
AcDb2dVertex
 10
282.1009547905859
 20
-135.2248209297355
 30
0.0
  0
VERTEX
  5
4E
330
4A
100
AcDbEntity
  8
Layer 1
370
     0
100
AcDbVertex
100
AcDb2dVertex
 10
284.8721895989208
 20
-135.2248209297355
 30
0.0
  0
VERTEX
  5
4F
330
4A
100
AcDbEntity
  8
Layer 1
370
     0
100
AcDbVertex
100
AcDb2dVertex
 10
286.2571179839913
 20
-137.6246744447605
 30
0.0
  0
VERTEX
  5
50
330
4A
100
AcDbEntity
  8
Layer 1
370
     0
100
AcDbVertex
100
AcDb2dVertex
 10
284.8721895989208
 20
-140.0252169788826
 30
0.0
  0
VERTEX
  5
51
330
4A
100
AcDbEntity
  8
Layer 1
370
     0
100
AcDbVertex
100
AcDb2dVertex
 10
282.1009547905859
 20
-140.0252169788826
 30
0.0
  0
SEQEND
  5
52
330
4A
100
AcDbEntity
  8
Layer 1
370
     0
  0
POLYLINE
  5
53
330
3C
100
AcDbEntity
  8
Layer 1
370
     0
100
AcDb2dPolyline
 66
     1
 10
0.0
 20
0.0
 30
0.0
  0
VERTEX
  5
54
330
53
100
AcDbEntity
  8
Layer 1
370
     0
100
AcDbVertex
100
AcDb2dVertex
 10
237.3505424753846
 20
-90.29819198046366
 30
0.0
  0
VERTEX
  5
55
330
53
100
AcDbEntity
  8
Layer 1
370
     0
100
AcDbVertex
100
AcDb2dVertex
 10
235.9656140903142
 20
-87.89833846543861
 30
0.0
  0
VERTEX
  5
56
330
53
100
AcDbEntity
  8
Layer 1
370
     0
100
AcDbVertex
100
AcDb2dVertex
 10
237.3505424753846
 20
-85.49848495041358
 30
0.0
  0
VERTEX
  5
57
330
53
100
AcDbEntity
  8
Layer 1
370
     0
100
AcDbVertex
100
AcDb2dVertex
 10
240.1217772837196
 20
-85.49848495041358
 30
0.0
  0
VERTEX
  5
58
330
53
100
AcDbEntity
  8
Layer 1
370
     0
100
AcDbVertex
100
AcDb2dVertex
 10
241.5073946878871
 20
-87.89833846543861
 30
0.0
  0
VERTEX
  5
59
330
53
100
AcDbEntity
  8
Layer 1
370
     0
100
AcDbVertex
100
AcDb2dVertex
 10
240.1217772837196
 20
-90.29819198046366
 30
0.0
  0
VERTEX
  5
5A
330
53
100
AcDbEntity
  8
Layer 1
370
     0
100
AcDbVertex
100
AcDb2dVertex
 10
237.3505424753846
 20
-90.29819198046366
 30
0.0
  0
SEQEND
  5
5B
330
53
100
AcDbEntity
  8
Layer 1
370
     0
  0
ENDBLK
  5
3F
330
3C
100
AcDbEntity
  8
0
100
AcDbBlockEnd
  0
BLOCK
  5
42
330
40
100
AcDbEntity
  8
0
100
AcDbBlockBegin
  2
block 3
 70
     0
 71
     0
 10
0.0
 20
0.0
 30
0.0
  3
block 3
  1

  0
SPLINE
  5
44
330
40
100
AcDbEntity
  8
Layer 1
370
     0
100
AcDbSpline
210
0.0
220
0.0
230
1.0
 70
    11
 71
     3
 72
    17
 73
    13
 74
     0
 42
0.0000000001
 43
0.0000000001
 40
0.0
 40
0.0
 40
0.0
 40
0.0
 40
1.0
 40
1.0
 40
1.0
 40
2.0
 40
2.0
 40
2.0
 40
3.0
 40
3.0
 40
3.0
 40
4.0
 40
4.0
 40
4.0
 40
4.0
 10
236.7455837081747
 20
-99.62268742084086
 30
0.0
 10
236.7455837081747
 20
-100.727185033412
 30
0.0
 10
237.6413085343397
 20
-101.6229098595769
 30
0.0
 10
238.7458061469108
 20
-101.6229098595769
 30
0.0
 10
239.8503037594819
 20
-101.6229098595769
 30
0.0
 10
240.7460285856468
 20
-100.727185033412
 30
0.0
 10
240.7460285856468
 20
-99.62268742084086
 30
0.0
 10
240.7460285856468
 20
-98.51818980826977
 30
0.0
 10
239.8503037594819
 20
-97.6224649821048
 30
0.0
 10
238.7458061469108
 20
-97.6224649821048
 30
0.0
 10
237.6413085343397
 20
-97.6224649821048
 30
0.0
 10
236.7455837081747
 20
-98.51818980826977
 30
0.0
 10
236.7455837081747
 20
-99.62268742084086
 30
0.0
  0
SPLINE
  5
45
330
40
100
AcDbEntity
  8
Layer 1
370
     0
100
AcDbSpline
210
0.0
220
0.0
230
1.0
 70
    11
 71
     3
 72
    17
 73
    13
 74
     0
 42
0.0000000001
 43
0.0000000001
 40
0.0
 40
0.0
 40
0.0
 40
0.0
 40
1.0
 40
1.0
 40
1.0
 40
2.0
 40
2.0
 40
2.0
 40
3.0
 40
3.0
 40
3.0
 40
4.0
 40
4.0
 40
4.0
 40
4.0
 10
236.7455837081747
 20
-117.5590603004713
 30
0.0
 10
236.7455837081747
 20
-118.6635579130425
 30
0.0
 10
237.6413085343397
 20
-119.5592827392074
 30
0.0
 10
238.7458061469108
 20
-119.5592827392074
 30
0.0
 10
239.8503037594819
 20
-119.5592827392074
 30
0.0
 10
240.7460285856468
 20
-118.6635579130425
 30
0.0
 10
240.7460285856468
 20
-117.5590603004713
 30
0.0
 10
240.7460285856468
 20
-116.4545626879002
 30
0.0
 10
239.8503037594819
 20
-115.5588378617353
 30
0.0
 10
238.7458061469108
 20
-115.5588378617353
 30
0.0
 10
237.6413085343397
 20
-115.5588378617353
 30
0.0
 10
236.7455837081747
 20
-116.4545626879002
 30
0.0
 10
236.7455837081747
 20
-117.5590603004713
 30
0.0
  0
SPLINE
  5
46
330
40
100
AcDbEntity
  8
Layer 1
370
     0
100
AcDbSpline
210
0.0
220
0.0
230
1.0
 70
    11
 71
     3
 72
    17
 73
    13
 74
     0
 42
0.0000000001
 43
0.0000000001
 40
0.0
 40
0.0
 40
0.0
 40
0.0
 40
1.0
 40
1.0
 40
1.0
 40
2.0
 40
2.0
 40
2.0
 40
3.0
 40
3.0
 40
3.0
 40
4.0
 40
4.0
 40
4.0
 40
4.0
 10
263.2328558369696
 20
-121.1219780513167
 30
0.0
 10
272.8970376921924
 20
-121.1219780513167
 30
0.0
 10
280.7325628638446
 20
-113.2864528796645
 30
0.0
 10
280.7325628638446
 20
-103.6224432792159
 30
0.0
 10
280.7325628638446
 20
-93.95688338579897
 30
0.0
 10
272.8970376921924
 20
-86.12204723324379
 30
0.0
 10
263.2328558369696
 20
-86.12204723324379
 30
0.0
 10
253.5686739817467
 20
-86.12204723324379
 30
0.0
 10
245.7324597909974
 20
-93.95688338579897
 30
0.0
 10
245.7324597909974
 20
-103.6224432792159
 30
0.0
 10
245.7324597909974
 20
-113.2864528796645
 30
0.0
 10
253.5686739817467
 20
-121.1219780513167
 30
0.0
 10
263.2328558369696
 20
-121.1219780513167
 30
0.0
  0
SPLINE
  5
47
330
40
100
AcDbEntity
  8
Layer 1
370
     0
100
AcDbSpline
210
0.0
220
0.0
230
1.0
 70
    11
 71
     3
 72
    17
 73
    13
 74
     0
 42
0.0000000001
 43
0.0000000001
 40
0.0
 40
0.0
 40
0.0
 40
0.0
 40
1.0
 40
1.0
 40
1.0
 40
2.0
 40
2.0
 40
2.0
 40
3.0
 40
3.0
 40
3.0
 40
4.0
 40
4.0
 40
4.0
 40
4.0
 10
247.7457735925775
 20
-146.621885814039
 30
0.0
 10
252.7163573586959
 20
-146.621885814039
 30
0.0
 10
256.7457410382441
 20
-142.5925021344908
 30
0.0
 10
256.7457410382441
 20
-137.6219183683723
 30
0.0
 10
256.7457410382441
 20
-132.6513346022538
 30
0.0
 10
252.7163573586959
 20
-128.6219509227056
 30
0.0
 10
247.7457735925775
 20
-128.6219509227056
 30
0.0
 10
242.775189826459
 20
-128.6219509227056
 30
0.0
 10
238.7458061469108
 20
-132.6513346022538
 30
0.0
 10
238.7458061469108
 20
-137.6219183683723
 30
0.0
 10
238.7458061469108
 20
-142.5925021344908
 30
0.0
 10
242.775189826459
 20
-146.621885814039
 30
0.0
 10
247.7457735925775
 20
-146.621885814039
 30
0.0
  0
SPLINE
  5
48
330
40
100
AcDbEntity
  8
Layer 1
370
     0
100
AcDbSpline
210
0.0
220
0.0
230
1.0
 70
    11
 71
     3
 72
    17
 73
    13
 74
     0
 42
0.0000000001
 43
0.0000000001
 40
0.0
 40
0.0
 40
0.0
 40
0.0
 40
1.0
 40
1.0
 40
1.0
 40
2.0
 40
2.0
 40
2.0
 40
3.0
 40
3.0
 40
3.0
 40
4.0
 40
4.0
 40
4.0
 40
4.0
 10
269.7461533613829
 20
-146.621885814039
 30
0.0
 10
274.7167371275014
 20
-146.621885814039
 30
0.0
 10
278.7461208070496
 20
-142.5925021344908
 30
0.0
 10
278.7461208070496
 20
-137.6219183683723
 30
0.0
 10
278.7461208070496
 20
-132.6513346022538
 30
0.0
 10
274.7167371275014
 20
-128.6219509227056
 30
0.0
 10
269.7461533613829
 20
-128.6219509227056
 30
0.0
 10
264.7755695952645
 20
-128.6219509227056
 30
0.0
 10
260.7461859157162
 20
-132.6513346022538
 30
0.0
 10
260.7461859157162
 20
-137.6219183683723
 30
0.0
 10
260.7461859157162
 20
-142.5925021344908
 30
0.0
 10
264.7755695952645
 20
-146.621885814039
 30
0.0
 10
269.7461533613829
 20
-146.621885814039
 30
0.0
  0
SPLINE
  5
49
330
40
100
AcDbEntity
  8
Layer 1
370
     0
100
AcDbSpline
210
0.0
220
0.0
230
1.0
 70
    11
 71
     3
 72
    17
 73
    13
 74
     0
 42
0.0000000001
 43
0.0000000001
 40
0.0
 40
0.0
 40
0.0
 40
0.0
 40
1.0
 40
1.0
 40
1.0
 40
2.0
 40
2.0
 40
2.0
 40
3.0
 40
3.0
 40
3.0
 40
4.0
 40
4.0
 40
4.0
 40
4.0
 10
236.7462727272718
 20
-108.590787733269
 30
0.0
 10
236.7462727272718
 20
-109.6952853458401
 30
0.0
 10
237.6413085343397
 20
-110.591010172005
 30
0.0
 10
238.7464951660078
 20
-110.591010172005
 30
0.0
 10
239.8509927785789
 20
-110.591010172005
 30
0.0
 10
240.7460285856468
 20
-109.6952853458401
 30
0.0
 10
240.7460285856468
 20
-108.590787733269
 30
0.0
 10
240.7460285856468
 20
-107.4862901206979
 30
0.0
 10
239.8509927785789
 20
-106.5905652945329
 30
0.0
 10
238.7464951660078
 20
-106.5905652945329
 30
0.0
 10
237.6413085343397
 20
-106.5905652945329
 30
0.0
 10
236.7462727272718
 20
-107.4862901206979
 30
0.0
 10
236.7462727272718
 20
-108.590787733269
 30
0.0
  0
ENDBLK
  5
43
330
40
100
AcDbEntity
  8
0
100
AcDbBlockEnd
  0
BLOCK
  5
5E
330
5C
100
AcDbEntity
  8
0
100
AcDbBlockBegin
  2
block 4
 70
     0
 71
     0
 10
0.0
 20
0.0
 30
0.0
  3
block 4
  1

  0
SPLINE
  5
60
330
5C
100
AcDbEntity
  8
Layer 1
370
     0
100
AcDbSpline
210
0.0
220
0.0
230
1.0
 70
    11
 71
     3
 72
    17
 73
    13
 74
     0
 42
0.0000000001
 43
0.0000000001
 40
0.0
 40
0.0
 40
0.0
 40
0.0
 40
1.0
 40
1.0
 40
1.0
 40
2.0
 40
2.0
 40
2.0
 40
3.0
 40
3.0
 40
3.0
 40
4.0
 40
4.0
 40
4.0
 40
4.0
 10
209.4666286368695
 20
-83.8841132060255
 30
0.0
 10
209.4666286368695
 20
-88.85469697214397
 30
0.0
 10
213.4960123164177
 20
-92.88408065169217
 30
0.0
 10
218.4665960825361
 20
-92.88408065169217
 30
0.0
 10
223.4371798486546
 20
-92.88408065169217
 30
0.0
 10
227.4665635282028
 20
-88.85469697214397
 30
0.0
 10
227.4665635282028
 20
-83.8841132060255
 30
0.0
 10
227.4665635282028
 20
-78.91352943990704
 30
0.0
 10
223.4371798486546
 20
-74.88414576035883
 30
0.0
 10
218.4665960825361
 20
-74.88414576035883
 30
0.0
 10
213.4960123164177
 20
-74.88414576035883
 30
0.0
 10
209.4666286368695
 20
-78.91352943990704
 30
0.0
 10
209.4666286368695
 20
-83.8841132060255
 30
0.0
  0
SPLINE
  5
61
330
5C
100
AcDbEntity
  8
Layer 1
370
     0
100
AcDbSpline
210
0.0
220
0.0
230
1.0
 70
    11
 71
     3
 72
    17
 73
    13
 74
     0
 42
0.0000000001
 43
0.0000000001
 40
0.0
 40
0.0
 40
0.0
 40
0.0
 40
1.0
 40
1.0
 40
1.0
 40
2.0
 40
2.0
 40
2.0
 40
3.0
 40
3.0
 40
3.0
 40
4.0
 40
4.0
 40
4.0
 40
4.0
 10
209.4666286368695
 20
-105.8843207200567
 30
0.0
 10
209.4666286368695
 20
-110.8549044861752
 30
0.0
 10
213.4960123164177
 20
-114.8842881657234
 30
0.0
 10
218.4665960825361
 20
-114.8842881657234
 30
0.0
 10
223.4371798486546
 20
-114.8842881657234
 30
0.0
 10
227.4665635282028
 20
-110.8549044861752
 30
0.0
 10
227.4665635282028
 20
-105.8843207200567
 30
0.0
 10
227.4665635282028
 20
-100.9139092087125
 30
0.0
 10
223.4371798486546
 20
-96.88452552916429
 30
0.0
 10
218.4665960825361
 20
-96.88452552916429
 30
0.0
 10
213.4960123164177
 20
-96.88452552916429
 30
0.0
 10
209.4666286368695
 20
-100.9139092087125
 30
0.0
 10
209.4666286368695
 20
-105.8843207200567
 30
0.0
  0
SPLINE
  5
62
330
5C
100
AcDbEntity
  8
Layer 1
370
     0
100
AcDbSpline
210
0.0
220
0.0
230
1.0
 70
    11
 71
     3
 72
    17
 73
    13
 74
     0
 42
0.0000000001
 43
0.0000000001
 40
0.0
 40
0.0
 40
0.0
 40
0.0
 40
1.0
 40
1.0
 40
1.0
 40
2.0
 40
2.0
 40
2.0
 40
3.0
 40
3.0
 40
3.0
 40
4.0
 40
4.0
 40
4.0
 40
4.0
 10
256.4659992848419
 20
-72.88392332162277
 30
0.0
 10
255.3615016722707
 20
-72.88392332162277
 30
0.0
 10
254.4657768461058
 20
-73.77964814778773
 30
0.0
 10
254.4657768461058
 20
-74.88414576035883
 30
0.0
 10
254.4657768461058
 20
-75.98864337292993
 30
0.0
 10
255.3615016722707
 20
-76.88436819909488
 30
0.0
 10
256.4659992848419
 20
-76.88436819909488
 30
0.0
 10
257.570496897413
 20
-76.88436819909488
 30
0.0
 10
258.4662217235779
 20
-75.98864337292993
 30
0.0
 10
258.4662217235779
 20
-74.88414576035883
 30
0.0
 10
258.4662217235779
 20
-73.77964814778773
 30
0.0
 10
257.570496897413
 20
-72.88392332162277
 30
0.0
 10
256.4659992848419
 20
-72.88392332162277
 30
0.0
  0
SPLINE
  5
63
330
5C
100
AcDbEntity
  8
Layer 1
370
     0
100
AcDbSpline
210
0.0
220
0.0
230
1.0
 70
    11
 71
     3
 72
    17
 73
    13
 74
     0
 42
0.0000000001
 43
0.0000000001
 40
0.0
 40
0.0
 40
0.0
 40
0.0
 40
1.0
 40
1.0
 40
1.0
 40
2.0
 40
2.0
 40
2.0
 40
3.0
 40
3.0
 40
3.0
 40
4.0
 40
4.0
 40
4.0
 40
4.0
 10
238.5294541504371
 20
-72.88392332162277
 30
0.0
 10
237.424956537866
 20
-72.88392332162277
 30
0.0
 10
236.529231711701
 20
-73.77964814778773
 30
0.0
 10
236.529231711701
 20
-74.88414576035883
 30
0.0
 10
236.529231711701
 20
-75.98864337292993
 30
0.0
 10
237.424956537866
 20
-76.88436819909488
 30
0.0
 10
238.5294541504371
 20
-76.88436819909488
 30
0.0
 10
239.6339517630082
 20
-76.88436819909488
 30
0.0
 10
240.5296765891731
 20
-75.98864337292993
 30
0.0
 10
240.5296765891731
 20
-74.88414576035883
 30
0.0
 10
240.5296765891731
 20
-73.77964814778773
 30
0.0
 10
239.6339517630082
 20
-72.88392332162277
 30
0.0
 10
238.5294541504371
 20
-72.88392332162277
 30
0.0
  0
SPLINE
  5
64
330
5C
100
AcDbEntity
  8
Layer 1
370
     0
100
AcDbSpline
210
0.0
220
0.0
230
1.0
 70
    11
 71
     3
 72
    17
 73
    13
 74
     0
 42
0.0000000001
 43
0.0000000001
 40
0.0
 40
0.0
 40
0.0
 40
0.0
 40
1.0
 40
1.0
 40
1.0
 40
2.0
 40
2.0
 40
2.0
 40
3.0
 40
3.0
 40
3.0
 40
4.0
 40
4.0
 40
4.0
 40
4.0
 10
265.7932508016073
 20
-74.88414576035883
 30
0.0
 10
265.7932508016073
 20
-76.20981850308297
 30
0.0
 10
266.8674315739082
 20
-77.28331025628681
 30
0.0
 10
268.1931043166323
 20
-77.28331025628681
 30
0.0
 10
269.5180880402594
 20
-77.28331025628681
 30
0.0
 10
270.5922688125603
 20
-76.20981850308297
 30
0.0
 10
270.5922688125603
 20
-74.88414576035883
 30
0.0
 10
270.5922688125603
 20
-73.5584730176347
 30
0.0
 10
269.5180880402594
 20
-72.48360322623674
 30
0.0
 10
268.1931043166323
 20
-72.48360322623674
 30
0.0
 10
266.8674315739082
 20
-72.48360322623674
 30
0.0
 10
265.7932508016073
 20
-73.5584730176347
 30
0.0
 10
265.7932508016073
 20
-74.88414576035883
 30
0.0
  0
SPLINE
  5
65
330
5C
100
AcDbEntity
  8
Layer 1
370
     0
100
AcDbSpline
210
0.0
220
0.0
230
1.0
 70
    11
 71
     3
 72
    17
 73
    13
 74
     0
 42
0.0000000001
 43
0.0000000001
 40
0.0
 40
0.0
 40
0.0
 40
0.0
 40
1.0
 40
1.0
 40
1.0
 40
2.0
 40
2.0
 40
2.0
 40
3.0
 40
3.0
 40
3.0
 40
4.0
 40
4.0
 40
4.0
 40
4.0
 10
216.0667425675111
 20
-119.6343858207859
 30
0.0
 10
216.0667425675111
 20
-120.96005856351
 30
0.0
 10
217.140923339812
 20
-122.0342393358109
 30
0.0
 10
218.4665960825361
 20
-122.0342393358109
 30
0.0
 10
219.7922688252603
 20
-122.0342393358109
 30
0.0
 10
220.8664495975612
 20
-120.96005856351
 30
0.0
 10
220.8664495975612
 20
-119.6343858207859
 30
0.0
 10
220.8664495975612
 20
-118.3087130780617
 30
0.0
 10
219.7922688252603
 20
-117.2338432866638
 30
0.0
 10
218.4665960825361
 20
-117.2338432866638
 30
0.0
 10
217.140923339812
 20
-117.2338432866638
 30
0.0
 10
216.0667425675111
 20
-118.3087130780617
 30
0.0
 10
216.0667425675111
 20
-119.6343858207859
 30
0.0
  0
SPLINE
  5
66
330
5C
100
AcDbEntity
  8
Layer 1
370
     0
100
AcDbSpline
210
0.0
220
0.0
230
1.0
 70
    11
 71
     3
 72
    17
 73
    13
 74
     0
 42
0.0000000001
 43
0.0000000001
 40
0.0
 40
0.0
 40
0.0
 40
0.0
 40
1.0
 40
1.0
 40
1.0
 40
2.0
 40
2.0
 40
2.0
 40
3.0
 40
3.0
 40
3.0
 40
4.0
 40
4.0
 40
4.0
 40
4.0
 10
247.4977267176395
 20
-72.88461234071983
 30
0.0
 10
246.3932291050684
 20
-72.88461234071983
 30
0.0
 10
245.4975042789034
 20
-73.77964814778773
 30
0.0
 10
245.4975042789034
 20
-74.88483477945587
 30
0.0
 10
245.4975042789034
 20
-75.98933239202698
 30
0.0
 10
246.3932291050684
 20
-76.88436819909488
 30
0.0
 10
247.4977267176395
 20
-76.88436819909488
 30
0.0
 10
248.6022243302106
 20
-76.88436819909488
 30
0.0
 10
249.4979491563755
 20
-75.98933239202698
 30
0.0
 10
249.4979491563755
 20
-74.88483477945587
 30
0.0
 10
249.4979491563755
 20
-73.77964814778773
 30
0.0
 10
248.6022243302106
 20
-72.88461234071983
 30
0.0
 10
247.4977267176395
 20
-72.88461234071983
 30
0.0
  0
SPLINE
  5
67
330
5C
100
AcDbEntity
  8
Layer 1
370
     0
100
AcDbSpline
210
0.0
220
0.0
230
1.0
 70
    11
 71
     3
 72
    44
 73
    40
 74
     0
 42
0.0000000001
 43
0.0000000001
 40
0.0
 40
0.0
 40
0.0
 40
0.0
 40
1.0
 40
1.0
 40
1.0
 40
2.0
 40
2.0
 40
2.0
 40
3.0
 40
3.0
 40
3.0
 40
4.0
 40
4.0
 40
4.0
 40
5.0
 40
5.0
 40
5.0
 40
6.0
 40
6.0
 40
6.0
 40
7.0
 40
7.0
 40
7.0
 40
8.0
 40
8.0
 40
8.0
 40
9.0
 40
9.0
 40
9.0
 40
10.0
 40
10.0
 40
10.0
 40
11.0
 40
11.0
 40
11.0
 40
12.0
 40
12.0
 40
12.0
 40
13.0
 40
13.0
 40
13.0
 40
13.0
 10
207.5077473439564
 20
-70.88438990198377
 30
0.0
 10
207.5077473439564
 20
-70.88438990198377
 30
0.0
 10
229.9663248123001
 20
-70.88438990198377
 30
0.0
 10
229.9663248123001
 20
-70.88438990198377
 30
0.0
 10
229.9663248123001
 20
-70.88438990198377
 30
0.0
 10
269.9666394724389
 20
-70.88438990198377
 30
0.0
 10
269.9666394724389
 20
-70.88438990198377
 30
0.0
 10
271.347433742927
 20
-70.88438990198377
 30
0.0
 10
272.4664007565362
 20
-72.00335691559292
 30
0.0
 10
272.4664007565362
 20
-73.38415118608106
 30
0.0
 10
272.4664007565362
 20
-73.38415118608106
 30
0.0
 10
272.4664007565362
 20
-76.37793916276316
 30
0.0
 10
272.4664007565362
 20
-76.37793916276316
 30
0.0
 10
272.4664007565362
 20
-77.7587334332513
 30
0.0
 10
271.347433742927
 20
-78.87770044686044
 30
0.0
 10
269.9666394724389
 20
-78.87770044686044
 30
0.0
 10
269.9666394724389
 20
-78.87770044686044
 30
0.0
 10
232.4660860963974
 20
-78.87770044686044
 30
0.0
 10
232.4660860963974
 20
-78.87770044686044
 30
0.0
 10
232.4660860963974
 20
-78.87770044686044
 30
0.0
 10
232.4660860963974
 20
-121.1343803950636
 30
0.0
 10
232.4660860963974
 20
-121.1343803950636
 30
0.0
 10
232.4660860963974
 20
-122.5151746655518
 30
0.0
 10
231.3471190827882
 20
-123.6341416791609
 30
0.0
 10
229.9663248123001
 20
-123.6341416791609
 30
0.0
 10
229.9663248123001
 20
-123.6341416791609
 30
0.0
 10
207.5077473439564
 20
-123.6341416791609
 30
0.0
 10
207.5077473439564
 20
-123.6341416791609
 30
0.0
 10
206.1269530734683
 20
-123.6341416791609
 30
0.0
 10
205.0072970407621
 20
-122.5151746655518
 30
0.0
 10
205.0072970407621
 20
-121.1343803950636
 30
0.0
 10
205.0072970407621
 20
-121.1343803950636
 30
0.0
 10
205.0072970407621
 20
-76.37793916276316
 30
0.0
 10
205.0072970407621
 20
-76.37793916276316
 30
0.0
 10
205.0072970407621
 20
-76.37793916276316
 30
0.0
 10
205.0072970407621
 20
-73.38415118608106
 30
0.0
 10
205.0072970407621
 20
-73.38415118608106
 30
0.0
 10
205.0072970407621
 20
-72.00335691559292
 30
0.0
 10
206.1269530734683
 20
-70.88438990198377
 30
0.0
 10
207.5077473439564
 20
-70.88438990198377
 30
0.0
  0
ENDBLK
  5
5F
330
5C
100
AcDbEntity
  8
0
100
AcDbBlockEnd
  0
BLOCK
  5
6A
330
68
100
AcDbEntity
  8
0
100
AcDbBlockBegin
  2
block 5
 70
     0
 71
     0
 10
0.0
 20
0.0
 30
0.0
  3
block 5
  1

  0
INSERT
  5
6D
330
68
100
AcDbEntity
  8
Layer 1
100
AcDbBlockReference
  2
block 6
 10
0.0
 20
0.0
 30
0.0
  0
SPLINE
  5
78
330
68
100
AcDbEntity
  8
Layer 1
370
     0
100
AcDbSpline
210
0.0
220
0.0
230
1.0
 70
    11
 71
     3
 72
   167
 73
   163
 74
     0
 42
0.0000000001
 43
0.0000000001
 40
0.0
 40
0.0
 40
0.0
 40
0.0
 40
1.0
 40
1.0
 40
1.0
 40
2.0
 40
2.0
 40
2.0
 40
3.0
 40
3.0
 40
3.0
 40
4.0
 40
4.0
 40
4.0
 40
5.0
 40
5.0
 40
5.0
 40
6.0
 40
6.0
 40
6.0
 40
7.0
 40
7.0
 40
7.0
 40
8.0
 40
8.0
 40
8.0
 40
9.0
 40
9.0
 40
9.0
 40
10.0
 40
10.0
 40
10.0
 40
11.0
 40
11.0
 40
11.0
 40
12.0
 40
12.0
 40
12.0
 40
13.0
 40
13.0
 40
13.0
 40
14.0
 40
14.0
 40
14.0
 40
15.0
 40
15.0
 40
15.0
 40
16.0
 40
16.0
 40
16.0
 40
17.0
 40
17.0
 40
17.0
 40
18.0
 40
18.0
 40
18.0
 40
19.0
 40
19.0
 40
19.0
 40
20.0
 40
20.0
 40
20.0
 40
21.0
 40
21.0
 40
21.0
 40
22.0
 40
22.0
 40
22.0
 40
23.0
 40
23.0
 40
23.0
 40
24.0
 40
24.0
 40
24.0
 40
25.0
 40
25.0
 40
25.0
 40
26.0
 40
26.0
 40
26.0
 40
27.0
 40
27.0
 40
27.0
 40
28.0
 40
28.0
 40
28.0
 40
29.0
 40
29.0
 40
29.0
 40
30.0
 40
30.0
 40
30.0
 40
31.0
 40
31.0
 40
31.0
 40
32.0
 40
32.0
 40
32.0
 40
33.0
 40
33.0
 40
33.0
 40
34.0
 40
34.0
 40
34.0
 40
35.0
 40
35.0
 40
35.0
 40
36.0
 40
36.0
 40
36.0
 40
37.0
 40
37.0
 40
37.0
 40
38.0
 40
38.0
 40
38.0
 40
39.0
 40
39.0
 40
39.0
 40
40.0
 40
40.0
 40
40.0
 40
41.0
 40
41.0
 40
41.0
 40
42.0
 40
42.0
 40
42.0
 40
43.0
 40
43.0
 40
43.0
 40
44.0
 40
44.0
 40
44.0
 40
45.0
 40
45.0
 40
45.0
 40
46.0
 40
46.0
 40
46.0
 40
47.0
 40
47.0
 40
47.0
 40
48.0
 40
48.0
 40
48.0
 40
49.0
 40
49.0
 40
49.0
 40
50.0
 40
50.0
 40
50.0
 40
51.0
 40
51.0
 40
51.0
 40
52.0
 40
52.0
 40
52.0
 40
53.0
 40
53.0
 40
53.0
 40
54.0
 40
54.0
 40
54.0
 40
54.0
 10
285.0155055711073
 20
-63.49913871025369
 30
0.0
 10
285.0155055711073
 20
-63.49913871025369
 30
0.0
 10
285.0155055711073
 20
-58.78831514372306
 30
0.0
 10
285.0155055711073
 20
-58.78831514372306
 30
0.0
 10
285.0155055711073
 20
-58.78831514372306
 30
0.0
 10
284.9803655971577
 20
-58.78831514372306
 30
0.0
 10
284.9803655971577
 20
-58.78831514372306
 30
0.0
 10
282.0906195041301
 20
-58.78831514372306
 30
0.0
 10
279.607394678362
 20
-59.50248343781536
 30
0.0
 10
278.4746472828119
 20
-61.96848278615719
 30
0.0
 10
278.4746472828119
 20
-61.96848278615719
 30
0.0
 10
275.2610622141709
 20
-61.96848278615719
 30
0.0
 10
275.2610622141709
 20
-61.96848278615719
 30
0.0
 10
274.8028645146326
 20
-61.36180147120469
 30
0.0
 10
274.0793944627301
 20
-60.96664901904654
 30
0.0
 10
273.2642848709201
 20
-60.96664901904654
 30
0.0
 10
273.2642848709201
 20
-60.96664901904654
 30
0.0
 10
271.264062432184
 20
-60.96664901904654
 30
0.0
 10
271.264062432184
 20
-60.96664901904654
 30
0.0
 10
270.4455077448886
 20
-60.96664901904654
 30
0.0
 10
269.7227267120832
 20
-61.36180147120469
 30
0.0
 10
269.2672850889332
 20
-61.96848278615719
 30
0.0
 10
269.2672850889332
 20
-61.96848278615719
 30
0.0
 10
254.9060600491207
 20
-61.96848278615719
 30
0.0
 10
254.9060600491207
 20
-61.96848278615719
 30
0.0
 10
254.4471733304854
 20
-61.36180147120469
 30
0.0
 10
253.72439229768
 20
-60.96664901904654
 30
0.0
 10
252.9092827058699
 20
-60.96664901904654
 30
0.0
 10
252.9092827058699
 20
-60.96664901904654
 30
0.0
 10
250.9090602671339
 20
-60.96664901904654
 30
0.0
 10
250.9090602671339
 20
-60.96664901904654
 30
0.0
 10
250.0905055798385
 20
-60.96664901904654
 30
0.0
 10
249.367035527936
 20
-61.36180147120469
 30
0.0
 10
248.9122829238831
 20
-61.96848278615719
 30
0.0
 10
248.9122829238831
 20
-61.96848278615719
 30
0.0
 10
234.391894472652
 20
-61.96848278615719
 30
0.0
 10
234.391894472652
 20
-61.96848278615719
 30
0.0
 10
233.936452849502
 20
-61.36180147120469
 30
0.0
 10
233.2136718166966
 20
-60.96664901904654
 30
0.0
 10
232.3951171294012
 20
-60.96664901904654
 30
0.0
 10
232.3951171294012
 20
-60.96664901904654
 30
0.0
 10
230.3948946906652
 20
-60.96664901904654
 30
0.0
 10
230.3948946906652
 20
-60.96664901904654
 30
0.0
 10
229.5797850988551
 20
-60.96664901904654
 30
0.0
 10
228.8570040660497
 20
-61.36180147120469
 30
0.0
 10
228.3981173474144
 20
-61.96848278615719
 30
0.0
 10
228.3981173474144
 20
-61.96848278615719
 30
0.0
 10
213.9590331496352
 20
-61.96848278615719
 30
0.0
 10
213.9590331496352
 20
-61.96848278615719
 30
0.0
 10
213.5035915264852
 20
-61.36180147120469
 30
0.0
 10
212.7808104936798
 20
-60.96664901904654
 30
0.0
 10
211.9622558063844
 20
-60.96664901904654
 30
0.0
 10
211.9622558063844
 20
-60.96664901904654
 30
0.0
 10
209.9620333676484
 20
-60.96664901904654
 30
0.0
 10
209.9620333676484
 20
-60.96664901904654
 30
0.0
 10
209.143478680353
 20
-60.96664901904654
 30
0.0
 10
208.4200086284506
 20
-61.36180147120469
 30
0.0
 10
207.9652560243976
 20
-61.96848278615719
 30
0.0
 10
207.9652560243976
 20
-61.96848278615719
 30
0.0
 10
204.4870876224894
 20
-61.96848278615719
 30
0.0
 10
204.4870876224894
 20
-61.96848278615719
 30
0.0
 10
204.2080348881841
 20
-61.96848278615719
 30
0.0
 10
203.986170738934
 20
-62.1906914449558
 30
0.0
 10
203.986170738934
 20
-62.46939966971252
 30
0.0
 10
203.986170738934
 20
-62.46939966971252
 30
0.0
 10
203.986170738934
 20
-67.46823321881003
 30
0.0
 10
203.986170738934
 20
-67.46823321881003
 30
0.0
 10
203.986170738934
 20
-67.7434963480815
 30
0.0
 10
204.2080348881841
 20
-67.96915010236536
 30
0.0
 10
204.4870876224894
 20
-67.96915010236536
 30
0.0
 10
204.4870876224894
 20
-67.96915010236536
 30
0.0
 10
207.9652560243976
 20
-67.96915010236536
 30
0.0
 10
207.9652560243976
 20
-67.96915010236536
 30
0.0
 10
208.4200086284506
 20
-68.57617592686637
 30
0.0
 10
209.143478680353
 20
-68.96753877399075
 30
0.0
 10
209.9620333676484
 20
-68.96753877399075
 30
0.0
 10
209.9620333676484
 20
-68.96753877399075
 30
0.0
 10
211.9622558063844
 20
-68.96753877399075
 30
0.0
 10
211.9622558063844
 20
-68.96753877399075
 30
0.0
 10
212.7808104936798
 20
-68.96753877399075
 30
0.0
 10
213.5035915264852
 20
-68.57617592686637
 30
0.0
 10
213.9590331496352
 20
-67.96915010236536
 30
0.0
 10
213.9590331496352
 20
-67.96915010236536
 30
0.0
 10
228.3981173474144
 20
-67.96915010236536
 30
0.0
 10
228.3981173474144
 20
-67.96915010236536
 30
0.0
 10
228.8570040660497
 20
-68.57617592686637
 30
0.0
 10
229.5797850988551
 20
-68.96753877399075
 30
0.0
 10
230.3948946906652
 20
-68.96753877399075
 30
0.0
 10
230.3948946906652
 20
-68.96753877399075
 30
0.0
 10
232.3951171294012
 20
-68.96753877399075
 30
0.0
 10
232.3951171294012
 20
-68.96753877399075
 30
0.0
 10
233.2136718166966
 20
-68.96753877399075
 30
0.0
 10
233.936452849502
 20
-68.57617592686637
 30
0.0
 10
234.391894472652
 20
-67.96915010236536
 30
0.0
 10
234.391894472652
 20
-67.96915010236536
 30
0.0
 10
248.9122829238831
 20
-67.96915010236536
 30
0.0
 10
248.9122829238831
 20
-67.96915010236536
 30
0.0
 10
249.367035527936
 20
-68.57617592686637
 30
0.0
 10
250.0905055798385
 20
-68.96753877399075
 30
0.0
 10
250.9090602671339
 20
-68.96753877399075
 30
0.0
 10
250.9090602671339
 20
-68.96753877399075
 30
0.0
 10
252.9092827058699
 20
-68.96753877399075
 30
0.0
 10
252.9092827058699
 20
-68.96753877399075
 30
0.0
 10
253.72439229768
 20
-68.96753877399075
 30
0.0
 10
254.4471733304854
 20
-68.57617592686637
 30
0.0
 10
254.9060600491207
 20
-67.96915010236536
 30
0.0
 10
254.9060600491207
 20
-67.96915010236536
 30
0.0
 10
269.2672850889332
 20
-67.96915010236536
 30
0.0
 10
269.2672850889332
 20
-67.96915010236536
 30
0.0
 10
269.7227267120832
 20
-68.57617592686637
 30
0.0
 10
270.4455077448886
 20
-68.96753877399075
 30
0.0
 10
271.264062432184
 20
-68.96753877399075
 30
0.0
 10
271.264062432184
 20
-68.96753877399075
 30
0.0
 10
273.2642848709201
 20
-68.96753877399075
 30
0.0
 10
273.2642848709201
 20
-68.96753877399075
 30
0.0
 10
274.0793944627301
 20
-68.96753877399075
 30
0.0
 10
274.8028645146326
 20
-68.57617592686637
 30
0.0
 10
275.2610622141709
 20
-67.96915010236536
 30
0.0
 10
275.2610622141709
 20
-67.96915010236536
 30
0.0
 10
278.4960068748205
 20
-67.96915010236536
 30
0.0
 10
278.4960068748205
 20
-67.96915010236536
 30
0.0
 10
279.6356444613411
 20
-70.41068927276191
 30
0.0
 10
282.1085340006534
 20
-71.10384248439418
 30
0.0
 10
284.9803655971577
 20
-71.10384248439418
 30
0.0
 10
285.0155055711073
 20
-71.10384248439418
 30
0.0
 10
284.9796765780607
 20
-71.10384248439418
 30
0.0
 10
285.0155055711073
 20
-71.10039738890893
 30
0.0
 10
285.0155055711073
 20
-71.10039738890893
 30
0.0
 10
285.0155055711073
 20
-66.59834660878444
 30
0.0
 10
285.0155055711073
 20
-66.59834660878444
 30
0.0
 10
285.0155055711073
 20
-66.59834660878444
 30
0.0
 10
283.8421060488312
 20
-66.59834660878444
 30
0.0
 10
283.8421060488312
 20
-66.59834660878444
 30
0.0
 10
283.8421060488312
 20
-66.59834660878444
 30
0.0
 10
283.7918076547465
 20
-66.59834660878444
 30
0.0
 10
283.7918076547465
 20
-66.59834660878444
 30
0.0
 10
283.7918076547465
 20
-66.59834660878444
 30
0.0
 10
283.7918076547465
 20
-66.64830049332056
 30
0.0
 10
283.7918076547465
 20
-66.64830049332056
 30
0.0
 10
283.7918076547465
 20
-66.64830049332056
 30
0.0
 10
283.7918076547465
 20
-67.59949135679804
 30
0.0
 10
283.7918076547465
 20
-67.59949135679804
 30
0.0
 10
283.7918076547465
 20
-67.59949135679804
 30
0.0
 10
281.6916774469382
 20
-67.59949135679804
 30
0.0
 10
281.6916774469382
 20
-67.59949135679804
 30
0.0
 10
281.6916774469382
 20
-67.59949135679804
 30
0.0
 10
281.6916774469382
 20
-62.50075003862829
 30
0.0
 10
281.6916774469382
 20
-62.50075003862829
 30
0.0
 10
281.6916774469382
 20
-62.50075003862829
 30
0.0
 10
283.7918076547465
 20
-62.50075003862829
 30
0.0
 10
283.7918076547465
 20
-62.50075003862829
 30
0.0
 10
283.7918076547465
 20
-62.50075003862829
 30
0.0
 10
283.7918076547465
 20
-63.44918482571757
 30
0.0
 10
283.7918076547465
 20
-63.44918482571757
 30
0.0
 10
283.7918076547465
 20
-63.44918482571757
 30
0.0
 10
283.7918076547465
 20
-63.49913871025369
 30
0.0
 10
283.7918076547465
 20
-63.49913871025369
 30
0.0
 10
283.7918076547465
 20
-63.49913871025369
 30
0.0
 10
283.8421060488312
 20
-63.49913871025369
 30
0.0
 10
283.8421060488312
 20
-63.49913871025369
 30
0.0
 10
283.8421060488312
 20
-63.49913871025369
 30
0.0
 10
285.0155055711073
 20
-63.49913871025369
 30
0.0
 10
285.0155055711073
 20
-63.49913871025369
 30
0.0
  0
ENDBLK
  5
6B
330
68
100
AcDbEntity
  8
0
100
AcDbBlockEnd
  0
BLOCK
  5
6E
330
6C
100
AcDbEntity
  8
0
100
AcDbBlockBegin
  2
block 6
 70
     0
 71
     0
 10
0.0
 20
0.0
 30
0.0
  3
block 6
  1

  0
INSERT
  5
71
330
6C
100
AcDbEntity
  8
Layer 1
100
AcDbBlockReference
  2
block 7
 10
0.0
 20
0.0
 30
0.0
  0
ENDBLK
  5
6F
330
6C
100
AcDbEntity
  8
0
100
AcDbBlockEnd
  0
BLOCK
  5
72
330
70
100
AcDbEntity
  8
0
100
AcDbBlockBegin
  2
block 7
 70
     0
 71
     0
 10
0.0
 20
0.0
 30
0.0
  3
block 7
  1

  0
SPLINE
  5
74
330
70
100
AcDbEntity
  8
Layer 1
370
     0
100
AcDbSpline
210
0.0
220
0.0
230
1.0
 70
    11
 71
     3
 72
    17
 73
    13
 74
     0
 42
0.0000000001
 43
0.0000000001
 40
0.0
 40
0.0
 40
0.0
 40
0.0
 40
1.0
 40
1.0
 40
1.0
 40
2.0
 40
2.0
 40
2.0
 40
3.0
 40
3.0
 40
3.0
 40
4.0
 40
4.0
 40
4.0
 40
4.0
 10
269.761311781518
 20
-64.96709389651865
 30
0.0
 10
269.761311781518
 20
-63.58767766422461
 30
0.0
 10
270.8830348715153
 20
-62.46939966971252
 30
0.0
 10
272.2624511038094
 20
-62.46939966971252
 30
0.0
 10
273.6418673361034
 20
-62.46939966971252
 30
0.0
 10
274.7635904261008
 20
-63.58767766422461
 30
0.0
 10
274.7635904261008
 20
-64.96709389651865
 30
0.0
 10
274.7635904261008
 20
-66.34995522429793
 30
0.0
 10
273.6418673361034
 20
-67.46823321881003
 30
0.0
 10
272.2624511038094
 20
-67.46823321881003
 30
0.0
 10
270.8830348715153
 20
-67.46823321881003
 30
0.0
 10
269.761311781518
 20
-66.34995522429793
 30
0.0
 10
269.761311781518
 20
-64.96709389651865
 30
0.0
  0
SPLINE
  5
75
330
70
100
AcDbEntity
  8
Layer 1
370
     0
100
AcDbSpline
210
0.0
220
0.0
230
1.0
 70
    11
 71
     3
 72
    17
 73
    13
 74
     0
 42
0.0000000001
 43
0.0000000001
 40
0.0
 40
0.0
 40
0.0
 40
0.0
 40
1.0
 40
1.0
 40
1.0
 40
2.0
 40
2.0
 40
2.0
 40
3.0
 40
3.0
 40
3.0
 40
4.0
 40
4.0
 40
4.0
 40
4.0
 10
249.3284504585012
 20
-64.96709389651865
 30
0.0
 10
249.3284504585012
 20
-63.58767766422461
 30
0.0
 10
250.4501735484986
 20
-62.46939966971252
 30
0.0
 10
251.8295897807926
 20
-62.46939966971252
 30
0.0
 10
253.2090060130867
 20
-62.46939966971252
 30
0.0
 10
254.330729103084
 20
-63.58767766422461
 30
0.0
 10
254.330729103084
 20
-64.96709389651865
 30
0.0
 10
254.330729103084
 20
-66.34995522429793
 30
0.0
 10
253.2090060130867
 20
-67.46823321881003
 30
0.0
 10
251.8295897807926
 20
-67.46823321881003
 30
0.0
 10
250.4501735484986
 20
-67.46823321881003
 30
0.0
 10
249.3284504585012
 20
-66.34995522429793
 30
0.0
 10
249.3284504585012
 20
-64.96709389651865
 30
0.0
  0
SPLINE
  5
76
330
70
100
AcDbEntity
  8
Layer 1
370
     0
100
AcDbSpline
210
0.0
220
0.0
230
1.0
 70
    11
 71
     3
 72
    17
 73
    13
 74
     0
 42
0.0000000001
 43
0.0000000001
 40
0.0
 40
0.0
 40
0.0
 40
0.0
 40
1.0
 40
1.0
 40
1.0
 40
2.0
 40
2.0
 40
2.0
 40
3.0
 40
3.0
 40
3.0
 40
4.0
 40
4.0
 40
4.0
 40
4.0
 10
228.8955891354844
 20
-64.96709389651865
 30
0.0
 10
228.8955891354844
 20
-63.58767766422461
 30
0.0
 10
230.0138671299966
 20
-62.46939966971252
 30
0.0
 10
231.3967284577758
 20
-62.46939966971252
 30
0.0
 10
232.7761446900699
 20
-62.46939966971252
 30
0.0
 10
233.894422684582
 20
-63.58767766422461
 30
0.0
 10
233.894422684582
 20
-64.96709389651865
 30
0.0
 10
233.894422684582
 20
-66.34995522429793
 30
0.0
 10
232.7761446900699
 20
-67.46823321881003
 30
0.0
 10
231.3967284577758
 20
-67.46823321881003
 30
0.0
 10
230.0138671299966
 20
-67.46823321881003
 30
0.0
 10
228.8955891354844
 20
-66.34995522429793
 30
0.0
 10
228.8955891354844
 20
-64.96709389651865
 30
0.0
  0
SPLINE
  5
77
330
70
100
AcDbEntity
  8
Layer 1
370
     0
100
AcDbSpline
210
0.0
220
0.0
230
1.0
 70
    11
 71
     3
 72
    17
 73
    13
 74
     0
 42
0.0000000001
 43
0.0000000001
 40
0.0
 40
0.0
 40
0.0
 40
0.0
 40
1.0
 40
1.0
 40
1.0
 40
2.0
 40
2.0
 40
2.0
 40
3.0
 40
3.0
 40
3.0
 40
4.0
 40
4.0
 40
4.0
 40
4.0
 10
208.4627278124676
 20
-64.96709389651865
 30
0.0
 10
208.4627278124676
 20
-63.58767766422461
 30
0.0
 10
209.5810058069798
 20
-62.46939966971252
 30
0.0
 10
210.9604220392738
 20
-62.46939966971252
 30
0.0
 10
212.3432833670531
 20
-62.46939966971252
 30
0.0
 10
213.4615613615652
 20
-63.58767766422461
 30
0.0
 10
213.4615613615652
 20
-64.96709389651865
 30
0.0
 10
213.4615613615652
 20
-66.34995522429793
 30
0.0
 10
212.3432833670531
 20
-67.46823321881003
 30
0.0
 10
210.9604220392738
 20
-67.46823321881003
 30
0.0
 10
209.5810058069798
 20
-67.46823321881003
 30
0.0
 10
208.4627278124676
 20
-66.34995522429793
 30
0.0
 10
208.4627278124676
 20
-64.96709389651865
 30
0.0
  0
ENDBLK
  5
73
330
70
100
AcDbEntity
  8
0
100
AcDbBlockEnd
  0
BLOCK
  5
7B
330
79
100
AcDbEntity
  8
0
100
AcDbBlockBegin
  2
block 8
 70
     0
 71
     0
 10
0.0
 20
0.0
 30
0.0
  3
block 8
  1

  0
INSERT
  5
7E
330
79
100
AcDbEntity
  8
Layer 1
100
AcDbBlockReference
  2
block 9
 10
0.0
 20
0.0
 30
0.0
  0
SPLINE
  5
8A
330
79
100
AcDbEntity
  8
Layer 1
370
     0
100
AcDbSpline
210
0.0
220
0.0
230
1.0
 70
    11
 71
     3
 72
    89
 73
    85
 74
     0
 42
0.0000000001
 43
0.0000000001
 40
0.0
 40
0.0
 40
0.0
 40
0.0
 40
1.0
 40
1.0
 40
1.0
 40
2.0
 40
2.0
 40
2.0
 40
3.0
 40
3.0
 40
3.0
 40
4.0
 40
4.0
 40
4.0
 40
5.0
 40
5.0
 40
5.0
 40
6.0
 40
6.0
 40
6.0
 40
7.0
 40
7.0
 40
7.0
 40
8.0
 40
8.0
 40
8.0
 40
9.0
 40
9.0
 40
9.0
 40
10.0
 40
10.0
 40
10.0
 40
11.0
 40
11.0
 40
11.0
 40
12.0
 40
12.0
 40
12.0
 40
13.0
 40
13.0
 40
13.0
 40
14.0
 40
14.0
 40
14.0
 40
15.0
 40
15.0
 40
15.0
 40
16.0
 40
16.0
 40
16.0
 40
17.0
 40
17.0
 40
17.0
 40
18.0
 40
18.0
 40
18.0
 40
19.0
 40
19.0
 40
19.0
 40
20.0
 40
20.0
 40
20.0
 40
21.0
 40
21.0
 40
21.0
 40
22.0
 40
22.0
 40
22.0
 40
23.0
 40
23.0
 40
23.0
 40
24.0
 40
24.0
 40
24.0
 40
25.0
 40
25.0
 40
25.0
 40
26.0
 40
26.0
 40
26.0
 40
27.0
 40
27.0
 40
27.0
 40
28.0
 40
28.0
 40
28.0
 40
28.0
 10
39.23808728402729
 20
-67.72868243749491
 30
0.0
 10
39.23808728402729
 20
-67.72868243749491
 30
0.0
 10
39.23808728402729
 20
-75.93386635471445
 30
0.0
 10
39.23808728402729
 20
-75.93386635471445
 30
0.0
 10
39.23808728402729
 20
-75.93386635471445
 30
0.0
 10
40.4008070102991
 20
-75.93076576877773
 30
0.0
 10
40.4008070102991
 20
-75.93076576877773
 30
0.0
 10
40.4008070102991
 20
-75.93076576877773
 30
0.0
 10
37.04114989308346
 20
-81.72713892271058
 30
0.0
 10
37.04114989308346
 20
-81.72713892271058
 30
0.0
 10
37.04114989308346
 20
-81.72713892271058
 30
0.0
 10
33.6963066864544
 20
-75.93386635471445
 30
0.0
 10
33.6963066864544
 20
-75.93386635471445
 30
0.0
 10
33.6963066864544
 20
-75.93386635471445
 30
0.0
 10
34.84386799259111
 20
-75.93386635471445
 30
0.0
 10
34.84386799259111
 20
-75.93386635471445
 30
0.0
 10
34.84386799259111
 20
-75.93386635471445
 30
0.0
 10
34.84386799259111
 20
-67.65289033681942
 30
0.0
 10
34.84386799259111
 20
-67.65289033681942
 30
0.0
 10
34.84386799259111
 20
-67.65289033681942
 30
0.0
 10
20.22529432003048
 20
-67.65289033681942
 30
0.0
 10
20.22529432003048
 20
-67.65289033681942
 30
0.0
 10
20.22529432003048
 20
-67.65289033681942
 30
0.0
 10
20.22529432003048
 20
-80.93476696110312
 30
0.0
 10
20.22529432003048
 20
-80.93476696110312
 30
0.0
 10
20.22529432003048
 20
-80.93476696110312
 30
0.0
 10
21.34873995777046
 20
-80.93476696110312
 30
0.0
 10
21.34873995777046
 20
-80.93476696110312
 30
0.0
 10
21.34873995777046
 20
-80.93476696110312
 30
0.0
 10
18.00424126068991
 20
-86.72769501955072
 30
0.0
 10
18.00424126068991
 20
-86.72769501955072
 30
0.0
 10
18.00424126068991
 20
-86.72769501955072
 30
0.0
 10
14.65905354451232
 20
-80.93476696110312
 30
0.0
 10
14.65905354451232
 20
-80.93476696110312
 30
0.0
 10
14.65905354451232
 20
-80.93476696110312
 30
0.0
 10
15.82521836626939
 20
-80.93476696110312
 30
0.0
 10
15.82521836626939
 20
-80.93476696110312
 30
0.0
 10
15.82521836626939
 20
-80.93476696110312
 30
0.0
 10
15.82521836626939
 20
-67.65289033681942
 30
0.0
 10
15.82521836626939
 20
-67.65289033681942
 30
0.0
 10
15.82521836626939
 20
-67.65289033681942
 30
0.0
 10
11.97601318059975
 20
-67.65289033681942
 30
0.0
 10
11.97601318059975
 20
-67.65289033681942
 30
0.0
 10
11.97601318059975
 20
-67.65289033681942
 30
0.0
 10
11.97601318059975
 20
-62.45630830686856
 30
0.0
 10
11.97601318059975
 20
-62.45630830686856
 30
0.0
 10
11.97601318059975
 20
-61.12374537317393
 30
0.0
 10
13.05501708658
 20
-60.04060735261138
 30
0.0
 10
14.38758002027463
 20
-60.04060735261138
 30
0.0
 10
14.38758002027463
 20
-60.04060735261138
 30
0.0
 10
170.4998426223056
 20
-60.04060735261138
 30
0.0
 10
170.4998426223056
 20
-60.04060735261138
 30
0.0
 10
171.8806368927937
 20
-60.04060735261138
 30
0.0
 10
173.0002929254999
 20
-61.15544025163823
 30
0.0
 10
173.0002929254999
 20
-62.53623452212636
 30
0.0
 10
173.0002929254999
 20
-62.53623452212636
 30
0.0
 10
173.0002929254999
 20
-62.59411212627856
 30
0.0
 10
173.0002929254999
 20
-62.59411212627856
 30
0.0
 10
173.0002929254999
 20
-62.59411212627856
 30
0.0
 10
173.0002929254999
 20
-80.5871568266414
 30
0.0
 10
173.0002929254999
 20
-80.5871568266414
 30
0.0
 10
173.0002929254999
 20
-80.5871568266414
 30
0.0
 10
84.80877683426655
 20
-80.5871568266414
 30
0.0
 10
84.80877683426655
 20
-80.5871568266414
 30
0.0
 10
84.80877683426655
 20
-80.5871568266414
 30
0.0
 10
84.80877683426655
 20
-76.92157523033558
 30
0.0
 10
84.80877683426655
 20
-76.92157523033558
 30
0.0
 10
84.80877683426655
 20
-76.92157523033558
 30
0.0
 10
76.72589380677339
 20
-76.92157523033558
 30
0.0
 10
76.72589380677339
 20
-76.92157523033558
 30
0.0
 10
75.34509953628526
 20
-76.92157523033558
 30
0.0
 10
74.22544350357906
 20
-75.80191919762939
 30
0.0
 10
74.22544350357906
 20
-74.4218139462383
 30
0.0
 10
74.22544350357906
 20
-74.4218139462383
 30
0.0
 10
74.22544350357906
 20
-73.52608912007334
 30
0.0
 10
74.22544350357906
 20
-73.52608912007334
 30
0.0
 10
74.22544350357906
 20
-73.52608912007334
 30
0.0
 10
74.22544350357906
 20
-72.39816485820255
 30
0.0
 10
74.22544350357906
 20
-72.39816485820255
 30
0.0
 10
74.22544350357906
 20
-72.39816485820255
 30
0.0
 10
74.22544350357906
 20
-67.65220131772237
 30
0.0
 10
74.22544350357906
 20
-67.65220131772237
 30
0.0
 10
74.22544350357906
 20
-67.65220131772237
 30
0.0
 10
39.23808728402729
 20
-67.72868243749491
 30
0.0
 10
39.23808728402729
 20
-67.72868243749491
 30
0.0
  0
ENDBLK
  5
7C
330
79
100
AcDbEntity
  8
0
100
AcDbBlockEnd
  0
BLOCK
  5
7F
330
7D
100
AcDbEntity
  8
0
100
AcDbBlockBegin
  2
block 9
 70
     0
 71
     0
 10
0.0
 20
0.0
 30
0.0
  3
block 9
  1

  0
INSERT
  5
82
330
7D
100
AcDbEntity
  8
Layer 1
100
AcDbBlockReference
  2
block 10
 10
0.0
 20
0.0
 30
0.0
  0
ENDBLK
  5
80
330
7D
100
AcDbEntity
  8
0
100
AcDbBlockEnd
  0
BLOCK
  5
83
330
81
100
AcDbEntity
  8
0
100
AcDbBlockBegin
  2
block 10
 70
     0
 71
     0
 10
0.0
 20
0.0
 30
0.0
  3
block 10
  1

  0
INSERT
  5
86
330
81
100
AcDbEntity
  8
Layer 1
100
AcDbBlockReference
  2
block 11
 10
0.0
 20
0.0
 30
0.0
  0
ENDBLK
  5
84
330
81
100
AcDbEntity
  8
0
100
AcDbBlockEnd
  0
BLOCK
  5
87
330
85
100
AcDbEntity
  8
0
100
AcDbBlockBegin
  2
block 11
 70
     0
 71
     0
 10
0.0
 20
0.0
 30
0.0
  3
block 11
  1

  0
SPLINE
  5
89
330
85
100
AcDbEntity
  8
Layer 1
370
     0
100
AcDbSpline
210
0.0
220
0.0
230
1.0
 70
    11
 71
     3
 72
    17
 73
    13
 74
     0
 42
0.0000000001
 43
0.0000000001
 40
0.0
 40
0.0
 40
0.0
 40
0.0
 40
1.0
 40
1.0
 40
1.0
 40
2.0
 40
2.0
 40
2.0
 40
3.0
 40
3.0
 40
3.0
 40
4.0
 40
4.0
 40
4.0
 40
4.0
 10
79.49023842413786
 20
-70.38829615210778
 30
0.0
 10
78.38574081156676
 20
-70.38829615210778
 30
0.0
 10
77.49070500449885
 20
-69.49326034503989
 30
0.0
 10
77.49070500449885
 20
-68.38876273246879
 30
0.0
 10
77.49070500449885
 20
-67.28426511989768
 30
0.0
 10
78.38574081156676
 20
-66.38854029373273
 30
0.0
 10
79.49023842413786
 20
-66.38854029373273
 30
0.0
 10
80.59473603670895
 20
-66.38854029373273
 30
0.0
 10
81.49046086287392
 20
-67.28426511989768
 30
0.0
 10
81.49046086287392
 20
-68.38876273246879
 30
0.0
 10
81.49046086287392
 20
-69.49326034503989
 30
0.0
 10
80.59473603670895
 20
-70.38829615210778
 30
0.0
 10
79.49023842413786
 20
-70.38829615210778
 30
0.0
  0
ENDBLK
  5
88
330
85
100
AcDbEntity
  8
0
100
AcDbBlockEnd
  0
BLOCK
  5
8E
330
8C
100
AcDbEntity
  8
0
100
AcDbBlockBegin
  2
block 12
 70
     0
 71
     0
 10
0.0
 20
0.0
 30
0.0
  3
block 12
  1

  0
INSERT
  5
91
330
8C
100
AcDbEntity
  8
Layer 1
100
AcDbBlockReference
  2
block 13
 10
0.0
 20
0.0
 30
0.0
  0
SPLINE
  5
F2
330
8C
100
AcDbEntity
  8
Layer 1
370
     0
100
AcDbSpline
210
0.0
220
0.0
230
1.0
 70
    11
 71
     3
 72
    17
 73
    13
 74
     0
 42
0.0000000001
 43
0.0000000001
 40
0.0
 40
0.0
 40
0.0
 40
0.0
 40
1.0
 40
1.0
 40
1.0
 40
2.0
 40
2.0
 40
2.0
 40
3.0
 40
3.0
 40
3.0
 40
4.0
 40
4.0
 40
4.0
 40
4.0
 10
146.369877079293
 20
-93.39981144583408
 30
0.0
 10
146.369877079293
 20
-94.78060571632221
 30
0.0
 10
147.4888440929021
 20
-95.90026174902842
 30
0.0
 10
148.8696383633902
 20
-95.90026174902842
 30
0.0
 10
150.2502603791041
 20
-95.90026174902842
 30
0.0
 10
151.3692273927132
 20
-94.78060571632221
 30
0.0
 10
151.3692273927132
 20
-93.39981144583408
 30
0.0
 10
151.3692273927132
 20
-92.01901717534595
 30
0.0
 10
150.2502603791041
 20
-90.9000501617368
 30
0.0
 10
148.8696383633902
 20
-90.9000501617368
 30
0.0
 10
147.4888440929021
 20
-90.9000501617368
 30
0.0
 10
146.369877079293
 20
-92.01901717534595
 30
0.0
 10
146.369877079293
 20
-93.39981144583408
 30
0.0
  0
SPLINE
  5
F3
330
8C
100
AcDbEntity
  8
Layer 1
370
     0
100
AcDbSpline
210
0.0
220
0.0
230
1.0
 70
    11
 71
     3
 72
    17
 73
    13
 74
     0
 42
0.0000000001
 43
0.0000000001
 40
0.0
 40
0.0
 40
0.0
 40
0.0
 40
1.0
 40
1.0
 40
1.0
 40
2.0
 40
2.0
 40
2.0
 40
3.0
 40
3.0
 40
3.0
 40
4.0
 40
4.0
 40
4.0
 40
4.0
 10
154.1659559076391
 20
-98.00314803322492
 30
0.0
 10
154.1659559076391
 20
-98.55505232996194
 30
0.0
 10
154.6131293016245
 20
-99.00222572394736
 30
0.0
 10
155.1650335983615
 20
-99.00222572394736
 30
0.0
 10
155.7176269141956
 20
-99.00222572394736
 30
0.0
 10
156.1654893272781
 20
-98.55505232996194
 30
0.0
 10
156.1654893272781
 20
-98.00314803322492
 30
0.0
 10
156.1654893272781
 20
-97.45124373648788
 30
0.0
 10
155.7176269141956
 20
-97.0033813234054
 30
0.0
 10
155.1650335983615
 20
-97.0033813234054
 30
0.0
 10
154.6131293016245
 20
-97.0033813234054
 30
0.0
 10
154.1659559076391
 20
-97.45124373648788
 30
0.0
 10
154.1659559076391
 20
-98.00314803322492
 30
0.0
  0
SPLINE
  5
F4
330
8C
100
AcDbEntity
  8
Layer 1
370
     0
100
AcDbSpline
210
0.0
220
0.0
230
1.0
 70
    11
 71
     3
 72
    17
 73
    13
 74
     0
 42
0.0000000001
 43
0.0000000001
 40
0.0
 40
0.0
 40
0.0
 40
0.0
 40
1.0
 40
1.0
 40
1.0
 40
2.0
 40
2.0
 40
2.0
 40
3.0
 40
3.0
 40
3.0
 40
4.0
 40
4.0
 40
4.0
 40
4.0
 10
141.4967895154071
 20
-98.00314803322492
 30
0.0
 10
141.4967895154071
 20
-98.55505232996194
 30
0.0
 10
141.944307418941
 20
-99.00222572394736
 30
0.0
 10
142.496211715678
 20
-99.00222572394736
 30
0.0
 10
143.0484605219636
 20
-99.00222572394736
 30
0.0
 10
143.4966674445946
 20
-98.55505232996194
 30
0.0
 10
143.4966674445946
 20
-98.00314803322492
 30
0.0
 10
143.4966674445946
 20
-97.45124373648788
 30
0.0
 10
143.0484605219636
 20
-97.0033813234054
 30
0.0
 10
142.496211715678
 20
-97.0033813234054
 30
0.0
 10
141.944307418941
 20
-97.0033813234054
 30
0.0
 10
141.4967895154071
 20
-97.45124373648788
 30
0.0
 10
141.4967895154071
 20
-98.00314803322492
 30
0.0
  0
SPLINE
  5
F5
330
8C
100
AcDbEntity
  8
Layer 1
370
     0
100
AcDbSpline
210
0.0
220
0.0
230
1.0
 70
    11
 71
     3
 72
    17
 73
    13
 74
     0
 42
0.0000000001
 43
0.0000000001
 40
0.0
 40
0.0
 40
0.0
 40
0.0
 40
1.0
 40
1.0
 40
1.0
 40
2.0
 40
2.0
 40
2.0
 40
3.0
 40
3.0
 40
3.0
 40
4.0
 40
4.0
 40
4.0
 40
4.0
 10
154.165266888542
 20
-88.79785289663735
 30
0.0
 10
154.165266888542
 20
-89.35044621247143
 30
0.0
 10
154.6131293016245
 20
-89.79761960645685
 30
0.0
 10
155.1650335983615
 20
-89.79761960645685
 30
0.0
 10
155.7176269141956
 20
-89.79761960645685
 30
0.0
 10
156.1654893272781
 20
-89.35044621247143
 30
0.0
 10
156.1654893272781
 20
-88.79785289663735
 30
0.0
 10
156.1654893272781
 20
-88.24594859990032
 30
0.0
 10
155.7176269141956
 20
-87.79808618681784
 30
0.0
 10
155.1650335983615
 20
-87.79808618681784
 30
0.0
 10
154.6131293016245
 20
-87.79808618681784
 30
0.0
 10
154.165266888542
 20
-88.24594859990032
 30
0.0
 10
154.165266888542
 20
-88.79785289663735
 30
0.0
  0
SPLINE
  5
F6
330
8C
100
AcDbEntity
  8
Layer 1
370
     0
100
AcDbSpline
210
0.0
220
0.0
230
1.0
 70
    11
 71
     3
 72
    17
 73
    13
 74
     0
 42
0.0000000001
 43
0.0000000001
 40
0.0
 40
0.0
 40
0.0
 40
0.0
 40
1.0
 40
1.0
 40
1.0
 40
2.0
 40
2.0
 40
2.0
 40
3.0
 40
3.0
 40
3.0
 40
4.0
 40
4.0
 40
4.0
 40
4.0
 10
141.4974785345041
 20
-88.79785289663735
 30
0.0
 10
141.4974785345041
 20
-89.3501017029229
 30
0.0
 10
141.9449964380381
 20
-89.79796411600537
 30
0.0
 10
142.4969007347751
 20
-89.79796411600537
 30
0.0
 10
143.0494940506092
 20
-89.79796411600537
 30
0.0
 10
143.4973564636916
 20
-89.3501017029229
 30
0.0
 10
143.4973564636916
 20
-88.79785289663735
 30
0.0
 10
143.4973564636916
 20
-88.24594859990032
 30
0.0
 10
143.0494940506092
 20
-87.79774167726931
 30
0.0
 10
142.4969007347751
 20
-87.79774167726931
 30
0.0
 10
141.9449964380381
 20
-87.79774167726931
 30
0.0
 10
141.4974785345041
 20
-88.24594859990032
 30
0.0
 10
141.4974785345041
 20
-88.79785289663735
 30
0.0
  0
SPLINE
  5
F7
330
8C
100
AcDbEntity
  8
Layer 1
370
     0
100
AcDbSpline
210
0.0
220
0.0
230
1.0
 70
    11
 71
     3
 72
    17
 73
    13
 74
     0
 42
0.0000000001
 43
0.0000000001
 40
0.0
 40
0.0
 40
0.0
 40
0.0
 40
1.0
 40
1.0
 40
1.0
 40
2.0
 40
2.0
 40
2.0
 40
3.0
 40
3.0
 40
3.0
 40
4.0
 40
4.0
 40
4.0
 40
4.0
 10
166.8032551666325
 20
-93.39981144583408
 30
0.0
 10
166.8032551666325
 20
-94.78060571632221
 30
0.0
 10
167.9222221802417
 20
-95.90026174902842
 30
0.0
 10
169.3030164507298
 20
-95.90026174902842
 30
0.0
 10
170.683810721218
 20
-95.90026174902842
 30
0.0
 10
171.8027777348271
 20
-94.78060571632221
 30
0.0
 10
171.8027777348271
 20
-93.39981144583408
 30
0.0
 10
171.8027777348271
 20
-92.01901717534595
 30
0.0
 10
170.683810721218
 20
-90.9000501617368
 30
0.0
 10
169.3030164507298
 20
-90.9000501617368
 30
0.0
 10
167.9222221802417
 20
-90.9000501617368
 30
0.0
 10
166.8032551666325
 20
-92.01901717534595
 30
0.0
 10
166.8032551666325
 20
-93.39981144583408
 30
0.0
  0
SPLINE
  5
F8
330
8C
100
AcDbEntity
  8
Layer 1
370
     0
100
AcDbSpline
210
0.0
220
0.0
230
1.0
 70
    11
 71
     3
 72
    17
 73
    13
 74
     0
 42
0.0000000001
 43
0.0000000001
 40
0.0
 40
0.0
 40
0.0
 40
0.0
 40
1.0
 40
1.0
 40
1.0
 40
2.0
 40
2.0
 40
2.0
 40
3.0
 40
3.0
 40
3.0
 40
4.0
 40
4.0
 40
4.0
 40
4.0
 10
174.5995062497529
 20
-98.00314803322492
 30
0.0
 10
174.5995062497529
 20
-98.55505232996194
 30
0.0
 10
175.0466796437383
 20
-99.00222572394736
 30
0.0
 10
175.5985839404754
 20
-99.00222572394736
 30
0.0
 10
176.1511772563094
 20
-99.00222572394736
 30
0.0
 10
176.5990396693919
 20
-98.55505232996194
 30
0.0
 10
176.5990396693919
 20
-98.00314803322492
 30
0.0
 10
176.5990396693919
 20
-97.45124373648788
 30
0.0
 10
176.1511772563094
 20
-97.0033813234054
 30
0.0
 10
175.5985839404754
 20
-97.0033813234054
 30
0.0
 10
175.0466796437383
 20
-97.0033813234054
 30
0.0
 10
174.5995062497529
 20
-97.45124373648788
 30
0.0
 10
174.5995062497529
 20
-98.00314803322492
 30
0.0
  0
SPLINE
  5
F9
330
8C
100
AcDbEntity
  8
Layer 1
370
     0
100
AcDbSpline
210
0.0
220
0.0
230
1.0
 70
    11
 71
     3
 72
    17
 73
    13
 74
     0
 42
0.0000000001
 43
0.0000000001
 40
0.0
 40
0.0
 40
0.0
 40
0.0
 40
1.0
 40
1.0
 40
1.0
 40
2.0
 40
2.0
 40
2.0
 40
3.0
 40
3.0
 40
3.0
 40
4.0
 40
4.0
 40
4.0
 40
4.0
 10
161.9305121122952
 20
-98.00314803322492
 30
0.0
 10
161.9305121122952
 20
-98.55505232996194
 30
0.0
 10
162.3776855062806
 20
-99.00222572394736
 30
0.0
 10
162.9295898030176
 20
-99.00222572394736
 30
0.0
 10
163.4821831188517
 20
-99.00222572394736
 30
0.0
 10
163.9300455319342
 20
-98.55505232996194
 30
0.0
 10
163.9300455319342
 20
-98.00314803322492
 30
0.0
 10
163.9300455319342
 20
-97.45124373648788
 30
0.0
 10
163.4821831188517
 20
-97.0033813234054
 30
0.0
 10
162.9295898030176
 20
-97.0033813234054
 30
0.0
 10
162.3776855062806
 20
-97.0033813234054
 30
0.0
 10
161.9305121122952
 20
-97.45124373648788
 30
0.0
 10
161.9305121122952
 20
-98.00314803322492
 30
0.0
  0
SPLINE
  5
FA
330
8C
100
AcDbEntity
  8
Layer 1
370
     0
100
AcDbSpline
210
0.0
220
0.0
230
1.0
 70
    11
 71
     3
 72
    17
 73
    13
 74
     0
 42
0.0000000001
 43
0.0000000001
 40
0.0
 40
0.0
 40
0.0
 40
0.0
 40
1.0
 40
1.0
 40
1.0
 40
2.0
 40
2.0
 40
2.0
 40
3.0
 40
3.0
 40
3.0
 40
4.0
 40
4.0
 40
4.0
 40
4.0
 10
174.5988172306559
 20
-88.79785289663735
 30
0.0
 10
174.5988172306559
 20
-89.35044621247143
 30
0.0
 10
175.0466796437383
 20
-89.79761960645685
 30
0.0
 10
175.5985839404754
 20
-89.79761960645685
 30
0.0
 10
176.1511772563094
 20
-89.79761960645685
 30
0.0
 10
176.5990396693919
 20
-89.35044621247143
 30
0.0
 10
176.5990396693919
 20
-88.79785289663735
 30
0.0
 10
176.5990396693919
 20
-88.24594859990032
 30
0.0
 10
176.1511772563094
 20
-87.79808618681784
 30
0.0
 10
175.5985839404754
 20
-87.79808618681784
 30
0.0
 10
175.0466796437383
 20
-87.79808618681784
 30
0.0
 10
174.5988172306559
 20
-88.24594859990032
 30
0.0
 10
174.5988172306559
 20
-88.79785289663735
 30
0.0
  0
SPLINE
  5
FB
330
8C
100
AcDbEntity
  8
Layer 1
370
     0
100
AcDbSpline
210
0.0
220
0.0
230
1.0
 70
    11
 71
     3
 72
    17
 73
    13
 74
     0
 42
0.0000000001
 43
0.0000000001
 40
0.0
 40
0.0
 40
0.0
 40
0.0
 40
1.0
 40
1.0
 40
1.0
 40
2.0
 40
2.0
 40
2.0
 40
3.0
 40
3.0
 40
3.0
 40
4.0
 40
4.0
 40
4.0
 40
4.0
 10
161.9312011313922
 20
-88.79785289663735
 30
0.0
 10
161.9312011313922
 20
-89.3501017029229
 30
0.0
 10
162.3783745253776
 20
-89.79796411600537
 30
0.0
 10
162.9302788221147
 20
-89.79796411600537
 30
0.0
 10
163.4828721379487
 20
-89.79796411600537
 30
0.0
 10
163.9307345510312
 20
-89.3501017029229
 30
0.0
 10
163.9307345510312
 20
-88.79785289663735
 30
0.0
 10
163.9307345510312
 20
-88.24594859990032
 30
0.0
 10
163.4828721379487
 20
-87.79774167726931
 30
0.0
 10
162.9302788221147
 20
-87.79774167726931
 30
0.0
 10
162.3783745253776
 20
-87.79774167726931
 30
0.0
 10
161.9312011313922
 20
-88.24594859990032
 30
0.0
 10
161.9312011313922
 20
-88.79785289663735
 30
0.0
  0
SPLINE
  5
FC
330
8C
100
AcDbEntity
  8
Layer 1
370
     0
100
AcDbSpline
210
0.0
220
0.0
230
1.0
 70
    11
 71
     3
 72
    17
 73
    13
 74
     0
 42
0.0000000001
 43
0.0000000001
 40
0.0
 40
0.0
 40
0.0
 40
0.0
 40
1.0
 40
1.0
 40
1.0
 40
2.0
 40
2.0
 40
2.0
 40
3.0
 40
3.0
 40
3.0
 40
4.0
 40
4.0
 40
4.0
 40
4.0
 10
187.2368055087464
 20
-93.39981144583408
 30
0.0
 10
187.2368055087464
 20
-94.78060571632221
 30
0.0
 10
188.3557725223555
 20
-95.90026174902842
 30
0.0
 10
189.7365667928436
 20
-95.90026174902842
 30
0.0
 10
191.1173610633318
 20
-95.90026174902842
 30
0.0
 10
192.2363280769409
 20
-94.78060571632221
 30
0.0
 10
192.2363280769409
 20
-93.39981144583408
 30
0.0
 10
192.2363280769409
 20
-92.01901717534595
 30
0.0
 10
191.1173610633318
 20
-90.9000501617368
 30
0.0
 10
189.7365667928436
 20
-90.9000501617368
 30
0.0
 10
188.3557725223555
 20
-90.9000501617368
 30
0.0
 10
187.2368055087464
 20
-92.01901717534595
 30
0.0
 10
187.2368055087464
 20
-93.39981144583408
 30
0.0
  0
SPLINE
  5
FD
330
8C
100
AcDbEntity
  8
Layer 1
370
     0
100
AcDbSpline
210
0.0
220
0.0
230
1.0
 70
    11
 71
     3
 72
    17
 73
    13
 74
     0
 42
0.0000000001
 43
0.0000000001
 40
0.0
 40
0.0
 40
0.0
 40
0.0
 40
1.0
 40
1.0
 40
1.0
 40
2.0
 40
2.0
 40
2.0
 40
3.0
 40
3.0
 40
3.0
 40
4.0
 40
4.0
 40
4.0
 40
4.0
 10
195.0330565918667
 20
-98.00314803322492
 30
0.0
 10
195.0330565918667
 20
-98.55505232996194
 30
0.0
 10
195.4802299858522
 20
-99.00222572394736
 30
0.0
 10
196.0321342825892
 20
-99.00222572394736
 30
0.0
 10
196.5847275984233
 20
-99.00222572394736
 30
0.0
 10
197.0325900115058
 20
-98.55505232996194
 30
0.0
 10
197.0325900115058
 20
-98.00314803322492
 30
0.0
 10
197.0325900115058
 20
-97.45124373648788
 30
0.0
 10
196.5847275984233
 20
-97.0033813234054
 30
0.0
 10
196.0321342825892
 20
-97.0033813234054
 30
0.0
 10
195.4802299858522
 20
-97.0033813234054
 30
0.0
 10
195.0330565918667
 20
-97.45124373648788
 30
0.0
 10
195.0330565918667
 20
-98.00314803322492
 30
0.0
  0
SPLINE
  5
FE
330
8C
100
AcDbEntity
  8
Layer 1
370
     0
100
AcDbSpline
210
0.0
220
0.0
230
1.0
 70
    11
 71
     3
 72
    17
 73
    13
 74
     0
 42
0.0000000001
 43
0.0000000001
 40
0.0
 40
0.0
 40
0.0
 40
0.0
 40
1.0
 40
1.0
 40
1.0
 40
2.0
 40
2.0
 40
2.0
 40
3.0
 40
3.0
 40
3.0
 40
4.0
 40
4.0
 40
4.0
 40
4.0
 10
182.364062454409
 20
-98.00314803322492
 30
0.0
 10
182.364062454409
 20
-98.55505232996194
 30
0.0
 10
182.8112358483944
 20
-99.00222572394736
 30
0.0
 10
183.3631401451314
 20
-99.00222572394736
 30
0.0
 10
183.9157334609655
 20
-99.00222572394736
 30
0.0
 10
184.363595874048
 20
-98.55505232996194
 30
0.0
 10
184.363595874048
 20
-98.00314803322492
 30
0.0
 10
184.363595874048
 20
-97.45124373648788
 30
0.0
 10
183.9157334609655
 20
-97.0033813234054
 30
0.0
 10
183.3631401451314
 20
-97.0033813234054
 30
0.0
 10
182.8112358483944
 20
-97.0033813234054
 30
0.0
 10
182.364062454409
 20
-97.45124373648788
 30
0.0
 10
182.364062454409
 20
-98.00314803322492
 30
0.0
  0
SPLINE
  5
FF
330
8C
100
AcDbEntity
  8
Layer 1
370
     0
100
AcDbSpline
210
0.0
220
0.0
230
1.0
 70
    11
 71
     3
 72
    17
 73
    13
 74
     0
 42
0.0000000001
 43
0.0000000001
 40
0.0
 40
0.0
 40
0.0
 40
0.0
 40
1.0
 40
1.0
 40
1.0
 40
2.0
 40
2.0
 40
2.0
 40
3.0
 40
3.0
 40
3.0
 40
4.0
 40
4.0
 40
4.0
 40
4.0
 10
195.0323675727697
 20
-88.79785289663735
 30
0.0
 10
195.0323675727697
 20
-89.35044621247143
 30
0.0
 10
195.4802299858522
 20
-89.79761960645685
 30
0.0
 10
196.0321342825892
 20
-89.79761960645685
 30
0.0
 10
196.5847275984233
 20
-89.79761960645685
 30
0.0
 10
197.0325900115058
 20
-89.35044621247143
 30
0.0
 10
197.0325900115058
 20
-88.79785289663735
 30
0.0
 10
197.0325900115058
 20
-88.24594859990032
 30
0.0
 10
196.5847275984233
 20
-87.79808618681784
 30
0.0
 10
196.0321342825892
 20
-87.79808618681784
 30
0.0
 10
195.4802299858522
 20
-87.79808618681784
 30
0.0
 10
195.0323675727697
 20
-88.24594859990032
 30
0.0
 10
195.0323675727697
 20
-88.79785289663735
 30
0.0
  0
SPLINE
  5
100
330
8C
100
AcDbEntity
  8
Layer 1
370
     0
100
AcDbSpline
210
0.0
220
0.0
230
1.0
 70
    11
 71
     3
 72
    17
 73
    13
 74
     0
 42
0.0000000001
 43
0.0000000001
 40
0.0
 40
0.0
 40
0.0
 40
0.0
 40
1.0
 40
1.0
 40
1.0
 40
2.0
 40
2.0
 40
2.0
 40
3.0
 40
3.0
 40
3.0
 40
4.0
 40
4.0
 40
4.0
 40
4.0
 10
182.364751473506
 20
-88.79785289663735
 30
0.0
 10
182.364751473506
 20
-89.3501017029229
 30
0.0
 10
182.8119248674915
 20
-89.79796411600537
 30
0.0
 10
183.3638291642285
 20
-89.79796411600537
 30
0.0
 10
183.9164224800626
 20
-89.79796411600537
 30
0.0
 10
184.3642848931451
 20
-89.3501017029229
 30
0.0
 10
184.3642848931451
 20
-88.79785289663735
 30
0.0
 10
184.3642848931451
 20
-88.24594859990032
 30
0.0
 10
183.9164224800626
 20
-87.79774167726931
 30
0.0
 10
183.3638291642285
 20
-87.79774167726931
 30
0.0
 10
182.8119248674915
 20
-87.79774167726931
 30
0.0
 10
182.364751473506
 20
-88.24594859990032
 30
0.0
 10
182.364751473506
 20
-88.79785289663735
 30
0.0
  0
ENDBLK
  5
8F
330
8C
100
AcDbEntity
  8
0
100
AcDbBlockEnd
  0
BLOCK
  5
92
330
90
100
AcDbEntity
  8
0
100
AcDbBlockBegin
  2
block 13
 70
     0
 71
     0
 10
0.0
 20
0.0
 30
0.0
  3
block 13
  1

  0
INSERT
  5
95
330
90
100
AcDbEntity
  8
Layer 1
100
AcDbBlockReference
  2
block 14
 10
0.0
 20
0.0
 30
0.0
  0
SPLINE
  5
EA
330
90
100
AcDbEntity
  8
Layer 1
370
     0
100
AcDbSpline
210
0.0
220
0.0
230
1.0
 70
    11
 71
     3
 72
    29
 73
    25
 74
     0
 42
0.0000000001
 43
0.0000000001
 40
0.0
 40
0.0
 40
0.0
 40
0.0
 40
1.0
 40
1.0
 40
1.0
 40
2.0
 40
2.0
 40
2.0
 40
3.0
 40
3.0
 40
3.0
 40
4.0
 40
4.0
 40
4.0
 40
5.0
 40
5.0
 40
5.0
 40
6.0
 40
6.0
 40
6.0
 40
7.0
 40
7.0
 40
7.0
 40
8.0
 40
8.0
 40
8.0
 40
8.0
 10
133.3973700295847
 20
-104.1078572330876
 30
0.0
 10
133.3973700295847
 20
-104.7114379621034
 30
0.0
 10
132.9081664706792
 20
-105.2013305401059
 30
0.0
 10
132.3042412321149
 20
-105.2013305401059
 30
0.0
 10
132.3042412321149
 20
-105.2013305401059
 30
0.0
 10
124.4907646715683
 20
-105.2013305401059
 30
0.0
 10
124.4907646715683
 20
-105.2013305401059
 30
0.0
 10
123.8871839425525
 20
-105.2013305401059
 30
0.0
 10
123.3976358740985
 20
-104.7114379621034
 30
0.0
 10
123.3976358740985
 20
-104.1078572330876
 30
0.0
 10
123.3976358740985
 20
-104.1078572330876
 30
0.0
 10
123.3976358740985
 20
-104.1078572330876
 30
0.0
 10
123.3976358740985
 20
-104.1078572330876
 30
0.0
 10
123.3976358740985
 20
-103.5042765040719
 30
0.0
 10
123.8871839425525
 20
-103.0150729451664
 30
0.0
 10
124.4907646715683
 20
-103.0150729451664
 30
0.0
 10
124.4907646715683
 20
-103.0150729451664
 30
0.0
 10
132.3042412321149
 20
-103.0150729451664
 30
0.0
 10
132.3042412321149
 20
-103.0150729451664
 30
0.0
 10
132.9081664706792
 20
-103.0150729451664
 30
0.0
 10
133.3973700295847
 20
-103.5042765040719
 30
0.0
 10
133.3973700295847
 20
-104.1078572330876
 30
0.0
 10
133.3973700295847
 20
-104.1078572330876
 30
0.0
 10
133.3973700295847
 20
-104.1078572330876
 30
0.0
 10
133.3973700295847
 20
-104.1078572330876
 30
0.0
  0
SPLINE
  5
EB
330
90
100
AcDbEntity
  8
Layer 1
370
     0
100
AcDbSpline
210
0.0
220
0.0
230
1.0
 70
    11
 71
     3
 72
    29
 73
    25
 74
     0
 42
0.0000000001
 43
0.0000000001
 40
0.0
 40
0.0
 40
0.0
 40
0.0
 40
1.0
 40
1.0
 40
1.0
 40
2.0
 40
2.0
 40
2.0
 40
3.0
 40
3.0
 40
3.0
 40
4.0
 40
4.0
 40
4.0
 40
5.0
 40
5.0
 40
5.0
 40
6.0
 40
6.0
 40
6.0
 40
7.0
 40
7.0
 40
7.0
 40
8.0
 40
8.0
 40
8.0
 40
8.0
 10
133.3973700295847
 20
-110.9176052240067
 30
0.0
 10
133.3973700295847
 20
-111.5211859530225
 30
0.0
 10
132.9081664706792
 20
-112.011078531025
 30
0.0
 10
132.3042412321149
 20
-112.011078531025
 30
0.0
 10
132.3042412321149
 20
-112.011078531025
 30
0.0
 10
124.4907646715683
 20
-112.011078531025
 30
0.0
 10
124.4907646715683
 20
-112.011078531025
 30
0.0
 10
123.8871839425525
 20
-112.011078531025
 30
0.0
 10
123.3976358740985
 20
-111.5211859530225
 30
0.0
 10
123.3976358740985
 20
-110.9176052240067
 30
0.0
 10
123.3976358740985
 20
-110.9176052240067
 30
0.0
 10
123.3976358740985
 20
-110.9176052240067
 30
0.0
 10
123.3976358740985
 20
-110.9176052240067
 30
0.0
 10
123.3976358740985
 20
-110.3140244949909
 30
0.0
 10
123.8871839425525
 20
-109.8248209360855
 30
0.0
 10
124.4907646715683
 20
-109.8248209360855
 30
0.0
 10
124.4907646715683
 20
-109.8248209360855
 30
0.0
 10
132.3042412321149
 20
-109.8248209360855
 30
0.0
 10
132.3042412321149
 20
-109.8248209360855
 30
0.0
 10
132.9081664706792
 20
-109.8248209360855
 30
0.0
 10
133.3973700295847
 20
-110.3140244949909
 30
0.0
 10
133.3973700295847
 20
-110.9176052240067
 30
0.0
 10
133.3973700295847
 20
-110.9176052240067
 30
0.0
 10
133.3973700295847
 20
-110.9176052240067
 30
0.0
 10
133.3973700295847
 20
-110.9176052240067
 30
0.0
  0
SPLINE
  5
EC
330
90
100
AcDbEntity
  8
Layer 1
370
     0
100
AcDbSpline
210
0.0
220
0.0
230
1.0
 70
    11
 71
     3
 72
    29
 73
    25
 74
     0
 42
0.0000000001
 43
0.0000000001
 40
0.0
 40
0.0
 40
0.0
 40
0.0
 40
1.0
 40
1.0
 40
1.0
 40
2.0
 40
2.0
 40
2.0
 40
3.0
 40
3.0
 40
3.0
 40
4.0
 40
4.0
 40
4.0
 40
5.0
 40
5.0
 40
5.0
 40
6.0
 40
6.0
 40
6.0
 40
7.0
 40
7.0
 40
7.0
 40
8.0
 40
8.0
 40
8.0
 40
8.0
 10
153.8310926264728
 20
-104.1078572330876
 30
0.0
 10
153.8310926264728
 20
-104.7114379621034
 30
0.0
 10
153.3418890675673
 20
-105.2013305401059
 30
0.0
 10
152.7376193194545
 20
-105.2013305401059
 30
0.0
 10
152.7376193194545
 20
-105.2013305401059
 30
0.0
 10
144.9243150136821
 20
-105.2013305401059
 30
0.0
 10
144.9243150136821
 20
-105.2013305401059
 30
0.0
 10
144.3207342846663
 20
-105.2013305401059
 30
0.0
 10
143.8311862162124
 20
-104.7114379621034
 30
0.0
 10
143.8311862162124
 20
-104.1078572330876
 30
0.0
 10
143.8311862162124
 20
-104.1078572330876
 30
0.0
 10
143.8311862162124
 20
-104.1078572330876
 30
0.0
 10
143.8311862162124
 20
-104.1078572330876
 30
0.0
 10
143.8311862162124
 20
-103.5042765040719
 30
0.0
 10
144.3207342846663
 20
-103.0150729451664
 30
0.0
 10
144.9243150136821
 20
-103.0150729451664
 30
0.0
 10
144.9243150136821
 20
-103.0150729451664
 30
0.0
 10
152.7376193194545
 20
-103.0150729451664
 30
0.0
 10
152.7376193194545
 20
-103.0150729451664
 30
0.0
 10
153.3418890675673
 20
-103.0150729451664
 30
0.0
 10
153.8310926264728
 20
-103.5042765040719
 30
0.0
 10
153.8310926264728
 20
-104.1078572330876
 30
0.0
 10
153.8310926264728
 20
-104.1078572330876
 30
0.0
 10
153.8310926264728
 20
-104.1078572330876
 30
0.0
 10
153.8310926264728
 20
-104.1078572330876
 30
0.0
  0
SPLINE
  5
ED
330
90
100
AcDbEntity
  8
Layer 1
370
     0
100
AcDbSpline
210
0.0
220
0.0
230
1.0
 70
    11
 71
     3
 72
    29
 73
    25
 74
     0
 42
0.0000000001
 43
0.0000000001
 40
0.0
 40
0.0
 40
0.0
 40
0.0
 40
1.0
 40
1.0
 40
1.0
 40
2.0
 40
2.0
 40
2.0
 40
3.0
 40
3.0
 40
3.0
 40
4.0
 40
4.0
 40
4.0
 40
5.0
 40
5.0
 40
5.0
 40
6.0
 40
6.0
 40
6.0
 40
7.0
 40
7.0
 40
7.0
 40
8.0
 40
8.0
 40
8.0
 40
8.0
 10
153.8310926264728
 20
-110.9176052240067
 30
0.0
 10
153.8310926264728
 20
-111.5211859530225
 30
0.0
 10
153.3418890675673
 20
-112.011078531025
 30
0.0
 10
152.7376193194545
 20
-112.011078531025
 30
0.0
 10
152.7376193194545
 20
-112.011078531025
 30
0.0
 10
144.9243150136821
 20
-112.011078531025
 30
0.0
 10
144.9243150136821
 20
-112.011078531025
 30
0.0
 10
144.3207342846663
 20
-112.011078531025
 30
0.0
 10
143.8311862162124
 20
-111.5211859530225
 30
0.0
 10
143.8311862162124
 20
-110.9176052240067
 30
0.0
 10
143.8311862162124
 20
-110.9176052240067
 30
0.0
 10
143.8311862162124
 20
-110.9176052240067
 30
0.0
 10
143.8311862162124
 20
-110.9176052240067
 30
0.0
 10
143.8311862162124
 20
-110.3140244949909
 30
0.0
 10
144.3207342846663
 20
-109.8248209360855
 30
0.0
 10
144.9243150136821
 20
-109.8248209360855
 30
0.0
 10
144.9243150136821
 20
-109.8248209360855
 30
0.0
 10
152.7376193194545
 20
-109.8248209360855
 30
0.0
 10
152.7376193194545
 20
-109.8248209360855
 30
0.0
 10
153.3418890675673
 20
-109.8248209360855
 30
0.0
 10
153.8310926264728
 20
-110.3140244949909
 30
0.0
 10
153.8310926264728
 20
-110.9176052240067
 30
0.0
 10
153.8310926264728
 20
-110.9176052240067
 30
0.0
 10
153.8310926264728
 20
-110.9176052240067
 30
0.0
 10
153.8310926264728
 20
-110.9176052240067
 30
0.0
  0
SPLINE
  5
EE
330
90
100
AcDbEntity
  8
Layer 1
370
     0
100
AcDbSpline
210
0.0
220
0.0
230
1.0
 70
    11
 71
     3
 72
    29
 73
    25
 74
     0
 42
0.0000000001
 43
0.0000000001
 40
0.0
 40
0.0
 40
0.0
 40
0.0
 40
1.0
 40
1.0
 40
1.0
 40
2.0
 40
2.0
 40
2.0
 40
3.0
 40
3.0
 40
3.0
 40
4.0
 40
4.0
 40
4.0
 40
5.0
 40
5.0
 40
5.0
 40
6.0
 40
6.0
 40
6.0
 40
7.0
 40
7.0
 40
7.0
 40
8.0
 40
8.0
 40
8.0
 40
8.0
 10
174.2687770831689
 20
-104.1078572330876
 30
0.0
 10
174.2687770831689
 20
-104.7114379621034
 30
0.0
 10
173.7795735242634
 20
-105.2013305401059
 30
0.0
 10
173.1759927952477
 20
-105.2013305401059
 30
0.0
 10
173.1759927952477
 20
-105.2013305401059
 30
0.0
 10
165.362516234701
 20
-105.2013305401059
 30
0.0
 10
165.362516234701
 20
-105.2013305401059
 30
0.0
 10
164.7589355056853
 20
-105.2013305401059
 30
0.0
 10
164.2690429276827
 20
-104.7114379621034
 30
0.0
 10
164.2690429276827
 20
-104.1078572330876
 30
0.0
 10
164.2690429276827
 20
-104.1078572330876
 30
0.0
 10
164.2690429276827
 20
-104.1078572330876
 30
0.0
 10
164.2690429276827
 20
-104.1078572330876
 30
0.0
 10
164.2690429276827
 20
-103.5042765040719
 30
0.0
 10
164.7589355056853
 20
-103.0150729451664
 30
0.0
 10
165.362516234701
 20
-103.0150729451664
 30
0.0
 10
165.362516234701
 20
-103.0150729451664
 30
0.0
 10
173.1759927952477
 20
-103.0150729451664
 30
0.0
 10
173.1759927952477
 20
-103.0150729451664
 30
0.0
 10
173.7795735242634
 20
-103.0150729451664
 30
0.0
 10
174.2687770831689
 20
-103.5042765040719
 30
0.0
 10
174.2687770831689
 20
-104.1078572330876
 30
0.0
 10
174.2687770831689
 20
-104.1078572330876
 30
0.0
 10
174.2687770831689
 20
-104.1078572330876
 30
0.0
 10
174.2687770831689
 20
-104.1078572330876
 30
0.0
  0
SPLINE
  5
EF
330
90
100
AcDbEntity
  8
Layer 1
370
     0
100
AcDbSpline
210
0.0
220
0.0
230
1.0
 70
    11
 71
     3
 72
    29
 73
    25
 74
     0
 42
0.0000000001
 43
0.0000000001
 40
0.0
 40
0.0
 40
0.0
 40
0.0
 40
1.0
 40
1.0
 40
1.0
 40
2.0
 40
2.0
 40
2.0
 40
3.0
 40
3.0
 40
3.0
 40
4.0
 40
4.0
 40
4.0
 40
5.0
 40
5.0
 40
5.0
 40
6.0
 40
6.0
 40
6.0
 40
7.0
 40
7.0
 40
7.0
 40
8.0
 40
8.0
 40
8.0
 40
8.0
 10
174.2687770831689
 20
-110.9176052240067
 30
0.0
 10
174.2687770831689
 20
-111.5211859530225
 30
0.0
 10
173.7795735242634
 20
-112.011078531025
 30
0.0
 10
173.1759927952477
 20
-112.011078531025
 30
0.0
 10
173.1759927952477
 20
-112.011078531025
 30
0.0
 10
165.362516234701
 20
-112.011078531025
 30
0.0
 10
165.362516234701
 20
-112.011078531025
 30
0.0
 10
164.7589355056853
 20
-112.011078531025
 30
0.0
 10
164.2690429276827
 20
-111.5211859530225
 30
0.0
 10
164.2690429276827
 20
-110.9176052240067
 30
0.0
 10
164.2690429276827
 20
-110.9176052240067
 30
0.0
 10
164.2690429276827
 20
-110.9176052240067
 30
0.0
 10
164.2690429276827
 20
-110.9176052240067
 30
0.0
 10
164.2690429276827
 20
-110.3140244949909
 30
0.0
 10
164.7589355056853
 20
-109.8248209360855
 30
0.0
 10
165.362516234701
 20
-109.8248209360855
 30
0.0
 10
165.362516234701
 20
-109.8248209360855
 30
0.0
 10
173.1759927952477
 20
-109.8248209360855
 30
0.0
 10
173.1759927952477
 20
-109.8248209360855
 30
0.0
 10
173.7795735242634
 20
-109.8248209360855
 30
0.0
 10
174.2687770831689
 20
-110.3140244949909
 30
0.0
 10
174.2687770831689
 20
-110.9176052240067
 30
0.0
 10
174.2687770831689
 20
-110.9176052240067
 30
0.0
 10
174.2687770831689
 20
-110.9176052240067
 30
0.0
 10
174.2687770831689
 20
-110.9176052240067
 30
0.0
  0
SPLINE
  5
F0
330
90
100
AcDbEntity
  8
Layer 1
370
     0
100
AcDbSpline
210
0.0
220
0.0
230
1.0
 70
    11
 71
     3
 72
    29
 73
    25
 74
     0
 42
0.0000000001
 43
0.0000000001
 40
0.0
 40
0.0
 40
0.0
 40
0.0
 40
1.0
 40
1.0
 40
1.0
 40
2.0
 40
2.0
 40
2.0
 40
3.0
 40
3.0
 40
3.0
 40
4.0
 40
4.0
 40
4.0
 40
5.0
 40
5.0
 40
5.0
 40
6.0
 40
6.0
 40
6.0
 40
7.0
 40
7.0
 40
7.0
 40
8.0
 40
8.0
 40
8.0
 40
8.0
 10
194.7002603679916
 20
-104.1078572330876
 30
0.0
 10
194.7002603679916
 20
-104.7114379621034
 30
0.0
 10
194.2110568090861
 20
-105.2013305401059
 30
0.0
 10
193.6074760800704
 20
-105.2013305401059
 30
0.0
 10
193.6074760800704
 20
-105.2013305401059
 30
0.0
 10
185.7939995195237
 20
-105.2013305401059
 30
0.0
 10
185.7939995195237
 20
-105.2013305401059
 30
0.0
 10
185.1904187905079
 20
-105.2013305401059
 30
0.0
 10
184.7005262125054
 20
-104.7114379621034
 30
0.0
 10
184.7005262125054
 20
-104.1078572330876
 30
0.0
 10
184.7005262125054
 20
-104.1078572330876
 30
0.0
 10
184.7005262125054
 20
-104.1078572330876
 30
0.0
 10
184.7005262125054
 20
-104.1078572330876
 30
0.0
 10
184.7005262125054
 20
-103.5042765040719
 30
0.0
 10
185.1904187905079
 20
-103.0150729451664
 30
0.0
 10
185.7939995195237
 20
-103.0150729451664
 30
0.0
 10
185.7939995195237
 20
-103.0150729451664
 30
0.0
 10
193.6074760800704
 20
-103.0150729451664
 30
0.0
 10
193.6074760800704
 20
-103.0150729451664
 30
0.0
 10
194.2110568090861
 20
-103.0150729451664
 30
0.0
 10
194.7002603679916
 20
-103.5042765040719
 30
0.0
 10
194.7002603679916
 20
-104.1078572330876
 30
0.0
 10
194.7002603679916
 20
-104.1078572330876
 30
0.0
 10
194.7002603679916
 20
-104.1078572330876
 30
0.0
 10
194.7002603679916
 20
-104.1078572330876
 30
0.0
  0
SPLINE
  5
F1
330
90
100
AcDbEntity
  8
Layer 1
370
     0
100
AcDbSpline
210
0.0
220
0.0
230
1.0
 70
    11
 71
     3
 72
    29
 73
    25
 74
     0
 42
0.0000000001
 43
0.0000000001
 40
0.0
 40
0.0
 40
0.0
 40
0.0
 40
1.0
 40
1.0
 40
1.0
 40
2.0
 40
2.0
 40
2.0
 40
3.0
 40
3.0
 40
3.0
 40
4.0
 40
4.0
 40
4.0
 40
5.0
 40
5.0
 40
5.0
 40
6.0
 40
6.0
 40
6.0
 40
7.0
 40
7.0
 40
7.0
 40
8.0
 40
8.0
 40
8.0
 40
8.0
 10
194.7002603679916
 20
-110.9176052240067
 30
0.0
 10
194.7002603679916
 20
-111.5211859530225
 30
0.0
 10
194.2110568090861
 20
-112.011078531025
 30
0.0
 10
193.6074760800704
 20
-112.011078531025
 30
0.0
 10
193.6074760800704
 20
-112.011078531025
 30
0.0
 10
185.7939995195237
 20
-112.011078531025
 30
0.0
 10
185.7939995195237
 20
-112.011078531025
 30
0.0
 10
185.1904187905079
 20
-112.011078531025
 30
0.0
 10
184.7005262125054
 20
-111.5211859530225
 30
0.0
 10
184.7005262125054
 20
-110.9176052240067
 30
0.0
 10
184.7005262125054
 20
-110.9176052240067
 30
0.0
 10
184.7005262125054
 20
-110.9176052240067
 30
0.0
 10
184.7005262125054
 20
-110.9176052240067
 30
0.0
 10
184.7005262125054
 20
-110.3140244949909
 30
0.0
 10
185.1904187905079
 20
-109.8248209360855
 30
0.0
 10
185.7939995195237
 20
-109.8248209360855
 30
0.0
 10
185.7939995195237
 20
-109.8248209360855
 30
0.0
 10
193.6074760800704
 20
-109.8248209360855
 30
0.0
 10
193.6074760800704
 20
-109.8248209360855
 30
0.0
 10
194.2110568090861
 20
-109.8248209360855
 30
0.0
 10
194.7002603679916
 20
-110.3140244949909
 30
0.0
 10
194.7002603679916
 20
-110.9176052240067
 30
0.0
 10
194.7002603679916
 20
-110.9176052240067
 30
0.0
 10
194.7002603679916
 20
-110.9176052240067
 30
0.0
 10
194.7002603679916
 20
-110.9176052240067
 30
0.0
  0
ENDBLK
  5
93
330
90
100
AcDbEntity
  8
0
100
AcDbBlockEnd
  0
BLOCK
  5
96
330
94
100
AcDbEntity
  8
0
100
AcDbBlockBegin
  2
block 14
 70
     0
 71
     0
 10
0.0
 20
0.0
 30
0.0
  3
block 14
  1

  0
INSERT
  5
99
330
94
100
AcDbEntity
  8
Layer 1
100
AcDbBlockReference
  2
block 15
 10
0.0
 20
0.0
 30
0.0
  0
INSERT
  5
D0
330
94
100
AcDbEntity
  8
Layer 1
100
AcDbBlockReference
  2
block 20
 10
0.0
 20
0.0
 30
0.0
  0
INSERT
  5
D9
330
94
100
AcDbEntity
  8
Layer 1
100
AcDbBlockReference
  2
block 21
 10
0.0
 20
0.0
 30
0.0
  0
INSERT
  5
E2
330
94
100
AcDbEntity
  8
Layer 1
100
AcDbBlockReference
  2
block 22
 10
0.0
 20
0.0
 30
0.0
  0
ENDBLK
  5
97
330
94
100
AcDbEntity
  8
0
100
AcDbBlockEnd
  0
BLOCK
  5
9A
330
98
100
AcDbEntity
  8
0
100
AcDbBlockBegin
  2
block 15
 70
     0
 71
     0
 10
0.0
 20
0.0
 30
0.0
  3
block 15
  1

  0
INSERT
  5
9D
330
98
100
AcDbEntity
  8
Layer 1
100
AcDbBlockReference
  2
block 16
 10
0.0
 20
0.0
 30
0.0
  0
SPLINE
  5
CB
330
98
100
AcDbEntity
  8
Layer 1
370
     0
100
AcDbSpline
210
0.0
220
0.0
230
1.0
 70
    11
 71
     3
 72
    17
 73
    13
 74
     0
 42
0.0000000001
 43
0.0000000001
 40
0.0
 40
0.0
 40
0.0
 40
0.0
 40
1.0
 40
1.0
 40
1.0
 40
2.0
 40
2.0
 40
2.0
 40
3.0
 40
3.0
 40
3.0
 40
4.0
 40
4.0
 40
4.0
 40
4.0
 10
133.7325778202995
 20
-98.00314803322492
 30
0.0
 10
133.7325778202995
 20
-98.55505232996194
 30
0.0
 10
134.1800957238335
 20
-99.00222572394736
 30
0.0
 10
134.7320000205705
 20
-99.00222572394736
 30
0.0
 10
135.284248826856
 20
-99.00222572394736
 30
0.0
 10
135.732455749487
 20
-98.55505232996194
 30
0.0
 10
135.732455749487
 20
-98.00314803322492
 30
0.0
 10
135.732455749487
 20
-97.45124373648788
 30
0.0
 10
135.284248826856
 20
-97.0033813234054
 30
0.0
 10
134.7320000205705
 20
-97.0033813234054
 30
0.0
 10
134.1800957238335
 20
-97.0033813234054
 30
0.0
 10
133.7325778202995
 20
-97.45124373648788
 30
0.0
 10
133.7325778202995
 20
-98.00314803322492
 30
0.0
  0
SPLINE
  5
CC
330
98
100
AcDbEntity
  8
Layer 1
370
     0
100
AcDbSpline
210
0.0
220
0.0
230
1.0
 70
    11
 71
     3
 72
    17
 73
    13
 74
     0
 42
0.0000000001
 43
0.0000000001
 40
0.0
 40
0.0
 40
0.0
 40
0.0
 40
1.0
 40
1.0
 40
1.0
 40
2.0
 40
2.0
 40
2.0
 40
3.0
 40
3.0
 40
3.0
 40
4.0
 40
4.0
 40
4.0
 40
4.0
 10
121.0635836828418
 20
-98.00314803322492
 30
0.0
 10
121.0635836828418
 20
-98.55505232996194
 30
0.0
 10
121.5111015863757
 20
-99.00222572394736
 30
0.0
 10
122.0630058831127
 20
-99.00222572394736
 30
0.0
 10
122.6152546893983
 20
-99.00222572394736
 30
0.0
 10
123.0634616120293
 20
-98.55505232996194
 30
0.0
 10
123.0634616120293
 20
-98.00314803322492
 30
0.0
 10
123.0634616120293
 20
-97.45124373648788
 30
0.0
 10
122.6152546893983
 20
-97.0033813234054
 30
0.0
 10
122.0630058831127
 20
-97.0033813234054
 30
0.0
 10
121.5111015863757
 20
-97.0033813234054
 30
0.0
 10
121.0635836828418
 20
-97.45124373648788
 30
0.0
 10
121.0635836828418
 20
-98.00314803322492
 30
0.0
  0
SPLINE
  5
CD
330
98
100
AcDbEntity
  8
Layer 1
370
     0
100
AcDbSpline
210
0.0
220
0.0
230
1.0
 70
    11
 71
     3
 72
    17
 73
    13
 74
     0
 42
0.0000000001
 43
0.0000000001
 40
0.0
 40
0.0
 40
0.0
 40
0.0
 40
1.0
 40
1.0
 40
1.0
 40
2.0
 40
2.0
 40
2.0
 40
3.0
 40
3.0
 40
3.0
 40
4.0
 40
4.0
 40
4.0
 40
4.0
 10
133.732233310751
 20
-88.79785289663735
 30
0.0
 10
133.732233310751
 20
-89.35044621247143
 30
0.0
 10
134.1800957238335
 20
-89.79761960645685
 30
0.0
 10
134.7320000205705
 20
-89.79761960645685
 30
0.0
 10
135.284248826856
 20
-89.79761960645685
 30
0.0
 10
135.732455749487
 20
-89.35044621247143
 30
0.0
 10
135.732455749487
 20
-88.79785289663735
 30
0.0
 10
135.732455749487
 20
-88.24594859990032
 30
0.0
 10
135.284248826856
 20
-87.79808618681784
 30
0.0
 10
134.7320000205705
 20
-87.79808618681784
 30
0.0
 10
134.1800957238335
 20
-87.79808618681784
 30
0.0
 10
133.732233310751
 20
-88.24594859990032
 30
0.0
 10
133.732233310751
 20
-88.79785289663735
 30
0.0
  0
SPLINE
  5
CE
330
98
100
AcDbEntity
  8
Layer 1
370
     0
100
AcDbSpline
210
0.0
220
0.0
230
1.0
 70
    11
 71
     3
 72
    17
 73
    13
 74
     0
 42
0.0000000001
 43
0.0000000001
 40
0.0
 40
0.0
 40
0.0
 40
0.0
 40
1.0
 40
1.0
 40
1.0
 40
2.0
 40
2.0
 40
2.0
 40
3.0
 40
3.0
 40
3.0
 40
4.0
 40
4.0
 40
4.0
 40
4.0
 10
121.0642727019388
 20
-88.79785289663735
 30
0.0
 10
121.0642727019388
 20
-89.3501017029229
 30
0.0
 10
121.5117906054728
 20
-89.79796411600537
 30
0.0
 10
122.0636949022098
 20
-89.79796411600537
 30
0.0
 10
122.6162882180438
 20
-89.79796411600537
 30
0.0
 10
123.0641506311263
 20
-89.3501017029229
 30
0.0
 10
123.0641506311263
 20
-88.79785289663735
 30
0.0
 10
123.0641506311263
 20
-88.24594859990032
 30
0.0
 10
122.6162882180438
 20
-87.79774167726931
 30
0.0
 10
122.0636949022098
 20
-87.79774167726931
 30
0.0
 10
121.5117906054728
 20
-87.79774167726931
 30
0.0
 10
121.0642727019388
 20
-88.24594859990032
 30
0.0
 10
121.0642727019388
 20
-88.79785289663735
 30
0.0
  0
ENDBLK
  5
9B
330
98
100
AcDbEntity
  8
0
100
AcDbBlockEnd
  0
BLOCK
  5
9E
330
9C
100
AcDbEntity
  8
0
100
AcDbBlockBegin
  2
block 16
 70
     0
 71
     0
 10
0.0
 20
0.0
 30
0.0
  3
block 16
  1

  0
SPLINE
  5
A0
330
9C
100
AcDbEntity
  8
Layer 1
370
     0
100
AcDbSpline
210
0.0
220
0.0
230
1.0
 70
    11
 71
     3
 72
    17
 73
    13
 74
     0
 42
0.0000000001
 43
0.0000000001
 40
0.0
 40
0.0
 40
0.0
 40
0.0
 40
1.0
 40
1.0
 40
1.0
 40
2.0
 40
2.0
 40
2.0
 40
3.0
 40
3.0
 40
3.0
 40
4.0
 40
4.0
 40
4.0
 40
4.0
 10
52.68084986747215
 20
-97.3382446045717
 30
0.0
 10
52.68084986747215
 20
-102.3088283706902
 30
0.0
 10
56.71023354702036
 20
-106.3383843050126
 30
0.0
 10
61.68081731313882
 20
-106.3383843050126
 30
0.0
 10
66.6514010792573
 20
-106.3383843050126
 30
0.0
 10
70.6807847588055
 20
-102.3088283706902
 30
0.0
 10
70.6807847588055
 20
-97.3382446045717
 30
0.0
 10
70.6807847588055
 20
-92.36766083845323
 30
0.0
 10
66.6514010792573
 20
-88.33827715890502
 30
0.0
 10
61.68081731313882
 20
-88.33827715890502
 30
0.0
 10
56.71023354702036
 20
-88.33827715890502
 30
0.0
 10
52.68084986747215
 20
-92.36766083845323
 30
0.0
 10
52.68084986747215
 20
-97.3382446045717
 30
0.0
  0
SPLINE
  5
A1
330
9C
100
AcDbEntity
  8
Layer 1
370
     0
100
AcDbSpline
210
0.0
220
0.0
230
1.0
 70
    11
 71
     3
 72
    17
 73
    13
 74
     0
 42
0.0000000001
 43
0.0000000001
 40
0.0
 40
0.0
 40
0.0
 40
0.0
 40
1.0
 40
1.0
 40
1.0
 40
2.0
 40
2.0
 40
2.0
 40
3.0
 40
3.0
 40
3.0
 40
4.0
 40
4.0
 40
4.0
 40
4.0
 10
52.68084986747215
 20
-119.3381076090544
 30
0.0
 10
52.68084986747215
 20
-124.3086913751728
 30
0.0
 10
56.71023354702036
 20
-128.338075054721
 30
0.0
 10
61.68081731313882
 20
-128.338075054721
 30
0.0
 10
66.6514010792573
 20
-128.338075054721
 30
0.0
 10
70.6807847588055
 20
-124.3086913751728
 30
0.0
 10
70.6807847588055
 20
-119.3381076090544
 30
0.0
 10
70.6807847588055
 20
-114.3675238429359
 30
0.0
 10
66.6514010792573
 20
-110.3381401633877
 30
0.0
 10
61.68081731313882
 20
-110.3381401633877
 30
0.0
 10
56.71023354702036
 20
-110.3381401633877
 30
0.0
 10
52.68084986747215
 20
-114.3675238429359
 30
0.0
 10
52.68084986747215
 20
-119.3381076090544
 30
0.0
  0
SPLINE
  5
A2
330
9C
100
AcDbEntity
  8
Layer 1
370
     0
100
AcDbSpline
210
0.0
220
0.0
230
1.0
 70
    11
 71
     3
 72
    17
 73
    13
 74
     0
 42
0.0000000001
 43
0.0000000001
 40
0.0
 40
0.0
 40
0.0
 40
0.0
 40
1.0
 40
1.0
 40
1.0
 40
2.0
 40
2.0
 40
2.0
 40
3.0
 40
3.0
 40
3.0
 40
4.0
 40
4.0
 40
4.0
 40
4.0
 10
188.4481010813602
 20
-107.5131618654828
 30
0.0
 10
188.4481010813602
 20
-108.2028699816298
 30
0.0
 10
189.0082736072618
 20
-108.7630425075315
 30
0.0
 10
189.6979817234088
 20
-108.7630425075315
 30
0.0
 10
190.3883788586529
 20
-108.7630425075315
 30
0.0
 10
190.9485513845545
 20
-108.2028699816298
 30
0.0
 10
190.9485513845545
 20
-107.5131618654828
 30
0.0
 10
190.9485513845545
 20
-106.8227647302388
 30
0.0
 10
190.3883788586529
 20
-106.2632812234342
 30
0.0
 10
189.6979817234088
 20
-106.2632812234342
 30
0.0
 10
189.0082736072618
 20
-106.2632812234342
 30
0.0
 10
188.4481010813602
 20
-106.8227647302388
 30
0.0
 10
188.4481010813602
 20
-107.5131618654828
 30
0.0
  0
SPLINE
  5
A3
330
9C
100
AcDbEntity
  8
Layer 1
370
     0
100
AcDbSpline
210
0.0
220
0.0
230
1.0
 70
    11
 71
     3
 72
    17
 73
    13
 74
     0
 42
0.0000000001
 43
0.0000000001
 40
0.0
 40
0.0
 40
0.0
 40
0.0
 40
1.0
 40
1.0
 40
1.0
 40
2.0
 40
2.0
 40
2.0
 40
3.0
 40
3.0
 40
3.0
 40
4.0
 40
4.0
 40
4.0
 40
4.0
 10
168.0145507392464
 20
-107.5131618654828
 30
0.0
 10
168.0145507392464
 20
-108.2028699816298
 30
0.0
 10
168.574723265148
 20
-108.7630425075315
 30
0.0
 10
169.265120400392
 20
-108.7630425075315
 30
0.0
 10
169.9548285165391
 20
-108.7630425075315
 30
0.0
 10
170.5150010424407
 20
-108.2028699816298
 30
0.0
 10
170.5150010424407
 20
-107.5131618654828
 30
0.0
 10
170.5150010424407
 20
-106.8227647302388
 30
0.0
 10
169.9548285165391
 20
-106.2632812234342
 30
0.0
 10
169.265120400392
 20
-106.2632812234342
 30
0.0
 10
168.574723265148
 20
-106.2632812234342
 30
0.0
 10
168.0145507392464
 20
-106.8227647302388
 30
0.0
 10
168.0145507392464
 20
-107.5131618654828
 30
0.0
  0
SPLINE
  5
A4
330
9C
100
AcDbEntity
  8
Layer 1
370
     0
100
AcDbSpline
210
0.0
220
0.0
230
1.0
 70
    11
 71
     3
 72
    17
 73
    13
 74
     0
 42
0.0000000001
 43
0.0000000001
 40
0.0
 40
0.0
 40
0.0
 40
0.0
 40
1.0
 40
1.0
 40
1.0
 40
2.0
 40
2.0
 40
2.0
 40
3.0
 40
3.0
 40
3.0
 40
4.0
 40
4.0
 40
4.0
 40
4.0
 10
147.5811726519068
 20
-107.5131618654828
 30
0.0
 10
147.5811726519068
 20
-108.2028699816298
 30
0.0
 10
148.1410006682599
 20
-108.7630425075315
 30
0.0
 10
148.831397803504
 20
-108.7630425075315
 30
0.0
 10
149.5212781744252
 20
-108.7630425075315
 30
0.0
 10
150.0814507003269
 20
-108.2028699816298
 30
0.0
 10
150.0814507003269
 20
-107.5131618654828
 30
0.0
 10
150.0814507003269
 20
-106.8227647302388
 30
0.0
 10
149.5212781744252
 20
-106.2632812234342
 30
0.0
 10
148.831397803504
 20
-106.2632812234342
 30
0.0
 10
148.1410006682599
 20
-106.2632812234342
 30
0.0
 10
147.5811726519068
 20
-106.8227647302388
 30
0.0
 10
147.5811726519068
 20
-107.5131618654828
 30
0.0
  0
SPLINE
  5
A5
330
9C
100
AcDbEntity
  8
Layer 1
370
     0
100
AcDbSpline
210
0.0
220
0.0
230
1.0
 70
    11
 71
     3
 72
    17
 73
    13
 74
     0
 42
0.0000000001
 43
0.0000000001
 40
0.0
 40
0.0
 40
0.0
 40
0.0
 40
1.0
 40
1.0
 40
1.0
 40
2.0
 40
2.0
 40
2.0
 40
3.0
 40
3.0
 40
3.0
 40
4.0
 40
4.0
 40
4.0
 40
4.0
 10
127.147622309793
 20
-107.5131618654828
 30
0.0
 10
127.147622309793
 20
-108.2028699816298
 30
0.0
 10
127.7074503261461
 20
-108.7630425075315
 30
0.0
 10
128.3978474613901
 20
-108.7630425075315
 30
0.0
 10
129.0879000870857
 20
-108.7630425075315
 30
0.0
 10
129.6477281034388
 20
-108.2028699816298
 30
0.0
 10
129.6477281034388
 20
-107.5131618654828
 30
0.0
 10
129.6477281034388
 20
-106.8227647302388
 30
0.0
 10
129.0879000870857
 20
-106.2632812234342
 30
0.0
 10
128.3978474613901
 20
-106.2632812234342
 30
0.0
 10
127.7074503261461
 20
-106.2632812234342
 30
0.0
 10
127.147622309793
 20
-106.8227647302388
 30
0.0
 10
127.147622309793
 20
-107.5131618654828
 30
0.0
  0
INSERT
  5
A7
330
9C
100
AcDbEntity
  8
Layer 1
100
AcDbBlockReference
  2
block 17
 10
0.0
 20
0.0
 30
0.0
  0
SPLINE
  5
AB
330
9C
100
AcDbEntity
  8
Layer 1
370
     0
100
AcDbSpline
210
0.0
220
0.0
230
1.0
 70
    11
 71
     3
 72
    29
 73
    25
 74
     0
 42
0.0000000001
 43
0.0000000001
 40
0.0
 40
0.0
 40
0.0
 40
0.0
 40
1.0
 40
1.0
 40
1.0
 40
2.0
 40
2.0
 40
2.0
 40
3.0
 40
3.0
 40
3.0
 40
4.0
 40
4.0
 40
4.0
 40
5.0
 40
5.0
 40
5.0
 40
6.0
 40
6.0
 40
6.0
 40
7.0
 40
7.0
 40
7.0
 40
8.0
 40
8.0
 40
8.0
 40
8.0
 10
48.81786429986151
 20
-82.43407251628385
 30
0.0
 10
47.43707002937337
 20
-82.43407251628385
 30
0.0
 10
46.31810301576423
 20
-83.55372854899004
 30
0.0
 10
46.31810301576423
 20
-84.93452281947818
 30
0.0
 10
46.31810301576423
 20
-84.93452281947818
 30
0.0
 10
46.31810301576423
 20
-136.4919270492103
 30
0.0
 10
46.31810301576423
 20
-136.4919270492103
 30
0.0
 10
46.31810301576423
 20
-137.8727213196985
 30
0.0
 10
47.43707002937337
 20
-138.9923773524047
 30
0.0
 10
48.81786429986151
 20
-138.9923773524047
 30
0.0
 10
48.81786429986151
 20
-138.9923773524047
 30
0.0
 10
199.9154459135628
 20
-138.9923773524047
 30
0.0
 10
199.9154459135628
 20
-138.9923773524047
 30
0.0
 10
201.2955511649539
 20
-138.9923773524047
 30
0.0
 10
202.4152071976601
 20
-137.8727213196985
 30
0.0
 10
202.4152071976601
 20
-136.4919270492103
 30
0.0
 10
202.4152071976601
 20
-136.4919270492103
 30
0.0
 10
202.4152071976601
 20
-84.93452281947818
 30
0.0
 10
202.4152071976601
 20
-84.93452281947818
 30
0.0
 10
202.4152071976601
 20
-83.55372854899004
 30
0.0
 10
201.2955511649539
 20
-82.43407251628385
 30
0.0
 10
199.9154459135628
 20
-82.43407251628385
 30
0.0
 10
199.9154459135628
 20
-82.43407251628385
 30
0.0
 10
48.81786429986151
 20
-82.43407251628385
 30
0.0
 10
48.81786429986151
 20
-82.43407251628385
 30
0.0
  0
POLYLINE
  5
AC
330
9C
100
AcDbEntity
  8
Layer 1
370
     0
100
AcDb2dPolyline
 66
     1
 10
0.0
 20
0.0
 30
0.0
  0
VERTEX
  5
AD
330
AC
100
AcDbEntity
  8
Layer 1
370
     0
100
AcDbVertex
100
AcDb2dVertex
 10
108.9082532822348
 20
-86.89547116968238
 30
0.0
  0
VERTEX
  5
AE
330
AC
100
AcDbEntity
  8
Layer 1
370
     0
100
AcDbVertex
100
AcDb2dVertex
 10
111.408014566332
 20
-85.45197616136271
 30
0.0
  0
VERTEX
  5
AF
330
AC
100
AcDbEntity
  8
Layer 1
370
     0
100
AcDbVertex
100
AcDb2dVertex
 10
113.9077758504293
 20
-86.89547116968238
 30
0.0
  0
VERTEX
  5
B0
330
AC
100
AcDbEntity
  8
Layer 1
370
     0
100
AcDbVertex
100
AcDb2dVertex
 10
113.9077758504293
 20
-89.7817721672247
 30
0.0
  0
VERTEX
  5
B1
330
AC
100
AcDbEntity
  8
Layer 1
370
     0
100
AcDbVertex
100
AcDb2dVertex
 10
111.408014566332
 20
-91.22457815644734
 30
0.0
  0
VERTEX
  5
B2
330
AC
100
AcDbEntity
  8
Layer 1
370
     0
100
AcDbVertex
100
AcDb2dVertex
 10
108.9082532822348
 20
-89.7817721672247
 30
0.0
  0
VERTEX
  5
B3
330
AC
100
AcDbEntity
  8
Layer 1
370
     0
100
AcDbVertex
100
AcDb2dVertex
 10
108.9082532822348
 20
-86.89547116968238
 30
0.0
  0
SEQEND
  5
B4
330
AC
100
AcDbEntity
  8
Layer 1
370
     0
  0
POLYLINE
  5
B5
330
9C
100
AcDbEntity
  8
Layer 1
370
     0
100
AcDb2dPolyline
 66
     1
 10
0.0
 20
0.0
 30
0.0
  0
VERTEX
  5
B6
330
B5
100
AcDbEntity
  8
Layer 1
370
     0
100
AcDbVertex
100
AcDb2dVertex
 10
59.18174504813859
 20
-131.6453667205609
 30
0.0
  0
VERTEX
  5
B7
330
B5
100
AcDbEntity
  8
Layer 1
370
     0
100
AcDbVertex
100
AcDb2dVertex
 10
61.68150633223588
 20
-130.2025607313383
 30
0.0
  0
VERTEX
  5
B8
330
B5
100
AcDbEntity
  8
Layer 1
370
     0
100
AcDbVertex
100
AcDb2dVertex
 10
64.18126761633316
 20
-131.6453667205609
 30
0.0
  0
VERTEX
  5
B9
330
B5
100
AcDbEntity
  8
Layer 1
370
     0
100
AcDbVertex
100
AcDb2dVertex
 10
64.18126761633316
 20
-134.5316677181032
 30
0.0
  0
VERTEX
  5
BA
330
B5
100
AcDbEntity
  8
Layer 1
370
     0
100
AcDbVertex
100
AcDb2dVertex
 10
61.68150633223588
 20
-135.9744737073258
 30
0.0
  0
VERTEX
  5
BB
330
B5
100
AcDbEntity
  8
Layer 1
370
     0
100
AcDbVertex
100
AcDb2dVertex
 10
59.18174504813859
 20
-134.5316677181032
 30
0.0
  0
VERTEX
  5
BC
330
B5
100
AcDbEntity
  8
Layer 1
370
     0
100
AcDbVertex
100
AcDb2dVertex
 10
59.18174504813859
 20
-131.6453667205609
 30
0.0
  0
SEQEND
  5
BD
330
B5
100
AcDbEntity
  8
Layer 1
370
     0
  0
INSERT
  5
BF
330
9C
100
AcDbEntity
  8
Layer 1
100
AcDbBlockReference
  2
block 18
 10
0.0
 20
0.0
 30
0.0
  0
ENDBLK
  5
9F
330
9C
100
AcDbEntity
  8
0
100
AcDbBlockEnd
  0
BLOCK
  5
A8
330
A6
100
AcDbEntity
  8
0
100
AcDbBlockBegin
  2
block 17
 70
     0
 71
     0
 10
0.0
 20
0.0
 30
0.0
  3
block 17
  1

  0
SPLINE
  5
AA
330
A6
100
AcDbEntity
  8
Layer 1
370
     0
100
AcDbSpline
210
0.0
220
0.0
230
1.0
 70
    11
 71
     3
 72
    17
 73
    13
 74
     0
 42
0.0000000001
 43
0.0000000001
 40
0.0
 40
0.0
 40
0.0
 40
0.0
 40
1.0
 40
1.0
 40
1.0
 40
2.0
 40
2.0
 40
2.0
 40
3.0
 40
3.0
 40
3.0
 40
4.0
 40
4.0
 40
4.0
 40
4.0
 10
125.9366712467276
 20
-93.39981144583408
 30
0.0
 10
125.9366712467276
 20
-94.78060571632221
 30
0.0
 10
127.0556382603368
 20
-95.90026174902842
 30
0.0
 10
128.4364325308249
 20
-95.90026174902842
 30
0.0
 10
129.8172268013131
 20
-95.90026174902842
 30
0.0
 10
130.9361938149222
 20
-94.78060571632221
 30
0.0
 10
130.9361938149222
 20
-93.39981144583408
 30
0.0
 10
130.9361938149222
 20
-92.01901717534595
 30
0.0
 10
129.8172268013131
 20
-90.9000501617368
 30
0.0
 10
128.4364325308249
 20
-90.9000501617368
 30
0.0
 10
127.0556382603368
 20
-90.9000501617368
 30
0.0
 10
125.9366712467276
 20
-92.01901717534595
 30
0.0
 10
125.9366712467276
 20
-93.39981144583408
 30
0.0
  0
ENDBLK
  5
A9
330
A6
100
AcDbEntity
  8
0
100
AcDbBlockEnd
  0
BLOCK
  5
C0
330
BE
100
AcDbEntity
  8
0
100
AcDbBlockBegin
  2
block 18
 70
     0
 71
     0
 10
0.0
 20
0.0
 30
0.0
  3
block 18
  1

  0
INSERT
  5
C3
330
BE
100
AcDbEntity
  8
Layer 1
100
AcDbBlockReference
  2
block 19
 10
0.0
 20
0.0
 30
0.0
  0
ENDBLK
  5
C1
330
BE
100
AcDbEntity
  8
0
100
AcDbBlockEnd
  0
BLOCK
  5
C4
330
C2
100
AcDbEntity
  8
0
100
AcDbBlockBegin
  2
block 19
 70
     0
 71
     0
 10
0.0
 20
0.0
 30
0.0
  3
block 19
  1

  0
SPLINE
  5
C6
330
C2
100
AcDbEntity
  8
Layer 1
370
     0
100
AcDbSpline
210
0.0
220
0.0
230
1.0
 70
    11
 71
     3
 72
    17
 73
    13
 74
     0
 42
0.0000000001
 43
0.0000000001
 40
0.0
 40
0.0
 40
0.0
 40
0.0
 40
1.0
 40
1.0
 40
1.0
 40
2.0
 40
2.0
 40
2.0
 40
3.0
 40
3.0
 40
3.0
 40
4.0
 40
4.0
 40
4.0
 40
4.0
 10
130.436654969561
 20
-126.7057888138097
 30
0.0
 10
130.436654969561
 20
-127.8095974072837
 30
0.0
 10
129.5416191624931
 20
-128.7053222334487
 30
0.0
 10
128.437121549922
 20
-128.7046332143516
 30
0.0
 10
127.3319349182538
 20
-128.7046332143516
 30
0.0
 10
126.4368991111859
 20
-127.8095974072837
 30
0.0
 10
126.4368991111859
 20
-126.7057888138097
 30
0.0
 10
126.4368991111859
 20
-125.6012912012386
 30
0.0
 10
127.3319349182538
 20
-124.7055663750736
 30
0.0
 10
128.437121549922
 20
-124.7055663750736
 30
0.0
 10
129.5416191624931
 20
-124.7062553941707
 30
0.0
 10
130.436654969561
 20
-125.6012912012386
 30
0.0
 10
130.436654969561
 20
-126.7057888138097
 30
0.0
  0
SPLINE
  5
C7
330
C2
100
AcDbEntity
  8
Layer 1
370
     0
100
AcDbSpline
210
0.0
220
0.0
230
1.0
 70
    11
 71
     3
 72
    17
 73
    13
 74
     0
 42
0.0000000001
 43
0.0000000001
 40
0.0
 40
0.0
 40
0.0
 40
0.0
 40
1.0
 40
1.0
 40
1.0
 40
2.0
 40
2.0
 40
2.0
 40
3.0
 40
3.0
 40
3.0
 40
4.0
 40
4.0
 40
4.0
 40
4.0
 10
123.9733113296838
 20
-126.7057888138097
 30
0.0
 10
123.9733113296838
 20
-127.1192002720396
 30
0.0
 10
123.6374145198719
 20
-127.4554415914
 30
0.0
 10
123.2236585520934
 20
-127.4554415914
 30
0.0
 10
122.8095580747664
 20
-127.4554415914
 30
0.0
 10
122.473316755406
 20
-127.1192002720396
 30
0.0
 10
122.473316755406
 20
-126.7057888138097
 30
0.0
 10
122.473316755406
 20
-126.2916883364826
 30
0.0
 10
122.8095580747664
 20
-125.9554470171223
 30
0.0
 10
123.2236585520934
 20
-125.9554470171223
 30
0.0
 10
123.6374145198719
 20
-125.9554470171223
 30
0.0
 10
123.9733113296838
 20
-126.2916883364826
 30
0.0
 10
123.9733113296838
 20
-126.7057888138097
 30
0.0
  0
SPLINE
  5
C8
330
C2
100
AcDbEntity
  8
Layer 1
370
     0
100
AcDbSpline
210
0.0
220
0.0
230
1.0
 70
    11
 71
     3
 72
    17
 73
    13
 74
     0
 42
0.0000000001
 43
0.0000000001
 40
0.0
 40
0.0
 40
0.0
 40
0.0
 40
1.0
 40
1.0
 40
1.0
 40
2.0
 40
2.0
 40
2.0
 40
3.0
 40
3.0
 40
3.0
 40
4.0
 40
4.0
 40
4.0
 40
4.0
 10
134.3068752376907
 20
-126.7057888138097
 30
0.0
 10
134.3068752376907
 20
-127.1198892911367
 30
0.0
 10
133.9702894087818
 20
-127.4540635532059
 30
0.0
 10
133.5568779505518
 20
-127.4540635532059
 30
0.0
 10
133.1431219827733
 20
-127.454752572303
 30
0.0
 10
132.8068806634129
 20
-127.1192002720396
 30
0.0
 10
132.8068806634129
 20
-126.7057888138097
 30
0.0
 10
132.8061916443158
 20
-126.2916883364826
 30
0.0
 10
133.1431219827733
 20
-125.9554470171223
 30
0.0
 10
133.5568779505518
 20
-125.9554470171223
 30
0.0
 10
133.9709784278788
 20
-125.9554470171223
 30
0.0
 10
134.3061862185936
 20
-126.2916883364826
 30
0.0
 10
134.3068752376907
 20
-126.7057888138097
 30
0.0
  0
SPLINE
  5
C9
330
C2
100
AcDbEntity
  8
Layer 1
370
     0
100
AcDbSpline
210
0.0
220
0.0
230
1.0
 70
    11
 71
     3
 72
    17
 73
    13
 74
     0
 42
0.0000000001
 43
0.0000000001
 40
0.0
 40
0.0
 40
0.0
 40
0.0
 40
1.0
 40
1.0
 40
1.0
 40
2.0
 40
2.0
 40
2.0
 40
3.0
 40
3.0
 40
3.0
 40
4.0
 40
4.0
 40
4.0
 40
4.0
 10
125.15601260977
 20
-123.8318901600143
 30
0.0
 10
125.155323590673
 20
-124.2453016182442
 30
0.0
 10
124.8197712904096
 20
-124.5815429376046
 30
0.0
 10
124.4056708130826
 20
-124.5815429376046
 30
0.0
 10
123.9915703357556
 20
-124.5815429376046
 30
0.0
 10
123.6553290163952
 20
-124.2453016182442
 30
0.0
 10
123.6553290163952
 20
-123.8318901600143
 30
0.0
 10
123.6560180354923
 20
-123.4171006635902
 30
0.0
 10
123.9915703357556
 20
-123.0815483633268
 30
0.0
 10
124.4056708130826
 20
-123.0815483633268
 30
0.0
 10
124.8197712904096
 20
-123.0815483633268
 30
0.0
 10
125.15601260977
 20
-123.4171006635902
 30
0.0
 10
125.15601260977
 20
-123.8318901600143
 30
0.0
  0
SPLINE
  5
CA
330
C2
100
AcDbEntity
  8
Layer 1
370
     0
100
AcDbSpline
210
0.0
220
0.0
230
1.0
 70
    11
 71
     3
 72
    17
 73
    13
 74
     0
 42
0.0000000001
 43
0.0000000001
 40
0.0
 40
0.0
 40
0.0
 40
0.0
 40
1.0
 40
1.0
 40
1.0
 40
2.0
 40
2.0
 40
2.0
 40
3.0
 40
3.0
 40
3.0
 40
4.0
 40
4.0
 40
4.0
 40
4.0
 10
131.0684854815558
 20
-120.560427487221
 30
0.0
 10
131.4825859588828
 20
-120.559738468124
 30
0.0
 10
131.8181382591462
 20
-120.8959797874844
 30
0.0
 10
131.8188272782432
 20
-121.3100802648114
 30
0.0
 10
131.8188272782432
 20
-121.7241807421384
 30
0.0
 10
131.4825859588828
 20
-122.0604220614988
 30
0.0
 10
131.0684854815558
 20
-122.0604220614988
 30
0.0
 10
130.6543850042288
 20
-122.0604220614988
 30
0.0
 10
130.3188327039654
 20
-121.7241807421384
 30
0.0
 10
130.3188327039654
 20
-121.3100802648114
 30
0.0
 10
130.3188327039654
 20
-120.8959797874844
 30
0.0
 10
130.6543850042288
 20
-120.560427487221
 30
0.0
 10
131.0684854815558
 20
-120.560427487221
 30
0.0
  0
ENDBLK
  5
C5
330
C2
100
AcDbEntity
  8
0
100
AcDbBlockEnd
  0
BLOCK
  5
D1
330
CF
100
AcDbEntity
  8
0
100
AcDbBlockBegin
  2
block 20
 70
     0
 71
     0
 10
0.0
 20
0.0
 30
0.0
  3
block 20
  1

  0
SPLINE
  5
D3
330
CF
100
AcDbEntity
  8
Layer 1
370
     0
100
AcDbSpline
210
0.0
220
0.0
230
1.0
 70
    11
 71
     3
 72
    17
 73
    13
 74
     0
 42
0.0000000001
 43
0.0000000001
 40
0.0
 40
0.0
 40
0.0
 40
0.0
 40
1.0
 40
1.0
 40
1.0
 40
2.0
 40
2.0
 40
2.0
 40
3.0
 40
3.0
 40
3.0
 40
4.0
 40
4.0
 40
4.0
 40
4.0
 10
150.8359266115966
 20
-126.7057888138097
 30
0.0
 10
150.8359266115966
 20
-127.8095974072837
 30
0.0
 10
149.9408908045287
 20
-128.7053222334487
 30
0.0
 10
148.8362209371833
 20
-128.7046332143516
 30
0.0
 10
147.7310343055152
 20
-128.7046332143516
 30
0.0
 10
146.8359984984473
 20
-127.8095974072837
 30
0.0
 10
146.8359984984473
 20
-126.7057888138097
 30
0.0
 10
146.8359984984473
 20
-125.6012912012386
 30
0.0
 10
147.7310343055152
 20
-124.7055663750736
 30
0.0
 10
148.8362209371833
 20
-124.7055663750736
 30
0.0
 10
149.9408908045287
 20
-124.7062553941707
 30
0.0
 10
150.8359266115966
 20
-125.6012912012386
 30
0.0
 10
150.8359266115966
 20
-126.7057888138097
 30
0.0
  0
SPLINE
  5
D4
330
CF
100
AcDbEntity
  8
Layer 1
370
     0
100
AcDbSpline
210
0.0
220
0.0
230
1.0
 70
    11
 71
     3
 72
    17
 73
    13
 74
     0
 42
0.0000000001
 43
0.0000000001
 40
0.0
 40
0.0
 40
0.0
 40
0.0
 40
1.0
 40
1.0
 40
1.0
 40
2.0
 40
2.0
 40
2.0
 40
3.0
 40
3.0
 40
3.0
 40
4.0
 40
4.0
 40
4.0
 40
4.0
 10
144.3727552264936
 20
-126.7057888138097
 30
0.0
 10
144.3727552264936
 20
-127.1192002720396
 30
0.0
 10
144.0372029262303
 20
-127.4554415914
 30
0.0
 10
143.6231024489033
 20
-127.4554415914
 30
0.0
 10
143.2090019715762
 20
-127.4554415914
 30
0.0
 10
142.8727606522158
 20
-127.1192002720396
 30
0.0
 10
142.8727606522158
 20
-126.7057888138097
 30
0.0
 10
142.8727606522158
 20
-126.2916883364826
 30
0.0
 10
143.2090019715762
 20
-125.9554470171223
 30
0.0
 10
143.6231024489033
 20
-125.9554470171223
 30
0.0
 10
144.0372029262303
 20
-125.9554470171223
 30
0.0
 10
144.3727552264936
 20
-126.2916883364826
 30
0.0
 10
144.3727552264936
 20
-126.7057888138097
 30
0.0
  0
SPLINE
  5
D5
330
CF
100
AcDbEntity
  8
Layer 1
370
     0
100
AcDbSpline
210
0.0
220
0.0
230
1.0
 70
    11
 71
     3
 72
    17
 73
    13
 74
     0
 42
0.0000000001
 43
0.0000000001
 40
0.0
 40
0.0
 40
0.0
 40
0.0
 40
1.0
 40
1.0
 40
1.0
 40
2.0
 40
2.0
 40
2.0
 40
3.0
 40
3.0
 40
3.0
 40
4.0
 40
4.0
 40
4.0
 40
4.0
 10
154.7061468797262
 20
-126.7057888138097
 30
0.0
 10
154.7061468797262
 20
-127.1198892911367
 30
0.0
 10
154.3699055603659
 20
-127.4540635532059
 30
0.0
 10
153.9564941021359
 20
-127.4540635532059
 30
0.0
 10
153.5423936248089
 20
-127.454752572303
 30
0.0
 10
153.2061523054485
 20
-127.1192002720396
 30
0.0
 10
153.2061523054485
 20
-126.7057888138097
 30
0.0
 10
153.2054632863514
 20
-126.2916883364826
 30
0.0
 10
153.5423936248089
 20
-125.9554470171223
 30
0.0
 10
153.9564941021359
 20
-125.9554470171223
 30
0.0
 10
154.3705945794629
 20
-125.9554470171223
 30
0.0
 10
154.7054578606292
 20
-126.2916883364826
 30
0.0
 10
154.7061468797262
 20
-126.7057888138097
 30
0.0
  0
SPLINE
  5
D6
330
CF
100
AcDbEntity
  8
Layer 1
370
     0
100
AcDbSpline
210
0.0
220
0.0
230
1.0
 70
    11
 71
     3
 72
    17
 73
    13
 74
     0
 42
0.0000000001
 43
0.0000000001
 40
0.0
 40
0.0
 40
0.0
 40
0.0
 40
1.0
 40
1.0
 40
1.0
 40
2.0
 40
2.0
 40
2.0
 40
3.0
 40
3.0
 40
3.0
 40
4.0
 40
4.0
 40
4.0
 40
4.0
 10
145.5551119970314
 20
-123.8318901600143
 30
0.0
 10
145.5544229779343
 20
-124.2453016182442
 30
0.0
 10
145.218870677671
 20
-124.5815429376046
 30
0.0
 10
144.804770200344
 20
-124.5815429376046
 30
0.0
 10
144.3906697230169
 20
-124.5815429376046
 30
0.0
 10
144.0544284036565
 20
-124.2453016182442
 30
0.0
 10
144.0544284036565
 20
-123.8318901600143
 30
0.0
 10
144.0551174227536
 20
-123.4171006635902
 30
0.0
 10
144.3906697230169
 20
-123.0815483633268
 30
0.0
 10
144.804770200344
 20
-123.0815483633268
 30
0.0
 10
145.218870677671
 20
-123.0815483633268
 30
0.0
 10
145.5551119970314
 20
-123.4171006635902
 30
0.0
 10
145.5551119970314
 20
-123.8318901600143
 30
0.0
  0
SPLINE
  5
D7
330
CF
100
AcDbEntity
  8
Layer 1
370
     0
100
AcDbSpline
210
0.0
220
0.0
230
1.0
 70
    11
 71
     3
 72
    17
 73
    13
 74
     0
 42
0.0000000001
 43
0.0000000001
 40
0.0
 40
0.0
 40
0.0
 40
0.0
 40
1.0
 40
1.0
 40
1.0
 40
2.0
 40
2.0
 40
2.0
 40
3.0
 40
3.0
 40
3.0
 40
4.0
 40
4.0
 40
4.0
 40
4.0
 10
151.4677571235914
 20
-120.560427487221
 30
0.0
 10
151.8818576009184
 20
-120.559738468124
 30
0.0
 10
152.2174099011818
 20
-120.8959797874844
 30
0.0
 10
152.2180989202788
 20
-121.3100802648114
 30
0.0
 10
152.2180989202788
 20
-121.7241807421384
 30
0.0
 10
151.8818576009184
 20
-122.0604220614988
 30
0.0
 10
151.4677571235914
 20
-122.0604220614988
 30
0.0
 10
151.0536566462644
 20
-122.0604220614988
 30
0.0
 10
150.718104346001
 20
-121.7241807421384
 30
0.0
 10
150.718104346001
 20
-121.3100802648114
 30
0.0
 10
150.718104346001
 20
-120.8959797874844
 30
0.0
 10
151.0536566462644
 20
-120.560427487221
 30
0.0
 10
151.4677571235914
 20
-120.560427487221
 30
0.0
  0
ENDBLK
  5
D2
330
CF
100
AcDbEntity
  8
0
100
AcDbBlockEnd
  0
BLOCK
  5
DA
330
D8
100
AcDbEntity
  8
0
100
AcDbBlockBegin
  2
block 21
 70
     0
 71
     0
 10
0.0
 20
0.0
 30
0.0
  3
block 21
  1

  0
SPLINE
  5
DC
330
D8
100
AcDbEntity
  8
Layer 1
370
     0
100
AcDbSpline
210
0.0
220
0.0
230
1.0
 70
    11
 71
     3
 72
    17
 73
    13
 74
     0
 42
0.0000000001
 43
0.0000000001
 40
0.0
 40
0.0
 40
0.0
 40
0.0
 40
1.0
 40
1.0
 40
1.0
 40
2.0
 40
2.0
 40
2.0
 40
3.0
 40
3.0
 40
3.0
 40
4.0
 40
4.0
 40
4.0
 40
4.0
 10
171.2694769537104
 20
-126.7057888138097
 30
0.0
 10
171.2694769537104
 20
-127.8095974072837
 30
0.0
 10
170.3744411466425
 20
-128.7053222334487
 30
0.0
 10
169.2699435340714
 20
-128.7046332143516
 30
0.0
 10
168.1647569024033
 20
-128.7046332143516
 30
0.0
 10
167.2697210953353
 20
-127.8095974072837
 30
0.0
 10
167.2697210953353
 20
-126.7057888138097
 30
0.0
 10
167.2697210953353
 20
-125.6012912012386
 30
0.0
 10
168.1647569024033
 20
-124.7055663750736
 30
0.0
 10
169.2699435340714
 20
-124.7055663750736
 30
0.0
 10
170.3744411466425
 20
-124.7062553941707
 30
0.0
 10
171.2694769537104
 20
-125.6012912012386
 30
0.0
 10
171.2694769537104
 20
-126.7057888138097
 30
0.0
  0
SPLINE
  5
DD
330
D8
100
AcDbEntity
  8
Layer 1
370
     0
100
AcDbSpline
210
0.0
220
0.0
230
1.0
 70
    11
 71
     3
 72
    17
 73
    13
 74
     0
 42
0.0000000001
 43
0.0000000001
 40
0.0
 40
0.0
 40
0.0
 40
0.0
 40
1.0
 40
1.0
 40
1.0
 40
2.0
 40
2.0
 40
2.0
 40
3.0
 40
3.0
 40
3.0
 40
4.0
 40
4.0
 40
4.0
 40
4.0
 10
164.8057888042847
 20
-126.7057888138097
 30
0.0
 10
164.8057888042847
 20
-127.1192002720396
 30
0.0
 10
164.4702365040213
 20
-127.4554415914
 30
0.0
 10
164.0561360266943
 20
-127.4554415914
 30
0.0
 10
163.6420355493673
 20
-127.4554415914
 30
0.0
 10
163.3057942300069
 20
-127.1192002720396
 30
0.0
 10
163.3057942300069
 20
-126.7057888138097
 30
0.0
 10
163.3057942300069
 20
-126.2916883364826
 30
0.0
 10
163.6420355493673
 20
-125.9554470171223
 30
0.0
 10
164.0561360266943
 20
-125.9554470171223
 30
0.0
 10
164.4702365040213
 20
-125.9554470171223
 30
0.0
 10
164.8057888042847
 20
-126.2916883364826
 30
0.0
 10
164.8057888042847
 20
-126.7057888138097
 30
0.0
  0
SPLINE
  5
DE
330
D8
100
AcDbEntity
  8
Layer 1
370
     0
100
AcDbSpline
210
0.0
220
0.0
230
1.0
 70
    11
 71
     3
 72
    17
 73
    13
 74
     0
 42
0.0000000001
 43
0.0000000001
 40
0.0
 40
0.0
 40
0.0
 40
0.0
 40
1.0
 40
1.0
 40
1.0
 40
2.0
 40
2.0
 40
2.0
 40
3.0
 40
3.0
 40
3.0
 40
4.0
 40
4.0
 40
4.0
 40
4.0
 10
175.1396972218401
 20
-126.7057888138097
 30
0.0
 10
175.1396972218401
 20
-127.1198892911367
 30
0.0
 10
174.8027668833826
 20
-127.4540635532059
 30
0.0
 10
174.3893554251527
 20
-127.4540635532059
 30
0.0
 10
173.9759439669227
 20
-127.454752572303
 30
0.0
 10
173.6397026475623
 20
-127.1192002720396
 30
0.0
 10
173.6397026475623
 20
-126.7057888138097
 30
0.0
 10
173.6390136284652
 20
-126.2916883364826
 30
0.0
 10
173.9759439669227
 20
-125.9554470171223
 30
0.0
 10
174.3893554251527
 20
-125.9554470171223
 30
0.0
 10
174.8034559024797
 20
-125.9554470171223
 30
0.0
 10
175.139008202743
 20
-126.2916883364826
 30
0.0
 10
175.1396972218401
 20
-126.7057888138097
 30
0.0
  0
SPLINE
  5
DF
330
D8
100
AcDbEntity
  8
Layer 1
370
     0
100
AcDbSpline
210
0.0
220
0.0
230
1.0
 70
    11
 71
     3
 72
    17
 73
    13
 74
     0
 42
0.0000000001
 43
0.0000000001
 40
0.0
 40
0.0
 40
0.0
 40
0.0
 40
1.0
 40
1.0
 40
1.0
 40
2.0
 40
2.0
 40
2.0
 40
3.0
 40
3.0
 40
3.0
 40
4.0
 40
4.0
 40
4.0
 40
4.0
 10
165.9888345939195
 20
-123.8318901600143
 30
0.0
 10
165.9881455748224
 20
-124.2453016182442
 30
0.0
 10
165.6525932745591
 20
-124.5815429376046
 30
0.0
 10
165.2384927972321
 20
-124.5815429376046
 30
0.0
 10
164.824392319905
 20
-124.5815429376046
 30
0.0
 10
164.4881510005446
 20
-124.2453016182442
 30
0.0
 10
164.4881510005446
 20
-123.8318901600143
 30
0.0
 10
164.4888400196417
 20
-123.4171006635902
 30
0.0
 10
164.824392319905
 20
-123.0815483633268
 30
0.0
 10
165.2384927972321
 20
-123.0815483633268
 30
0.0
 10
165.6525932745591
 20
-123.0815483633268
 30
0.0
 10
165.9888345939195
 20
-123.4171006635902
 30
0.0
 10
165.9888345939195
 20
-123.8318901600143
 30
0.0
  0
SPLINE
  5
E0
330
D8
100
AcDbEntity
  8
Layer 1
370
     0
100
AcDbSpline
210
0.0
220
0.0
230
1.0
 70
    11
 71
     3
 72
    17
 73
    13
 74
     0
 42
0.0000000001
 43
0.0000000001
 40
0.0
 40
0.0
 40
0.0
 40
0.0
 40
1.0
 40
1.0
 40
1.0
 40
2.0
 40
2.0
 40
2.0
 40
3.0
 40
3.0
 40
3.0
 40
4.0
 40
4.0
 40
4.0
 40
4.0
 10
171.9013074657052
 20
-120.560427487221
 30
0.0
 10
172.3154079430323
 20
-120.559738468124
 30
0.0
 10
172.6509602432956
 20
-120.8959797874844
 30
0.0
 10
172.6516492623927
 20
-121.3100802648114
 30
0.0
 10
172.6516492623927
 20
-121.7241807421384
 30
0.0
 10
172.3154079430323
 20
-122.0604220614988
 30
0.0
 10
171.9013074657052
 20
-122.0604220614988
 30
0.0
 10
171.4872069883782
 20
-122.0604220614988
 30
0.0
 10
171.1516546881149
 20
-121.7241807421384
 30
0.0
 10
171.1516546881149
 20
-121.3100802648114
 30
0.0
 10
171.1516546881149
 20
-120.8959797874844
 30
0.0
 10
171.4872069883782
 20
-120.560427487221
 30
0.0
 10
171.9013074657052
 20
-120.560427487221
 30
0.0
  0
ENDBLK
  5
DB
330
D8
100
AcDbEntity
  8
0
100
AcDbBlockEnd
  0
BLOCK
  5
E3
330
E1
100
AcDbEntity
  8
0
100
AcDbBlockBegin
  2
block 22
 70
     0
 71
     0
 10
0.0
 20
0.0
 30
0.0
  3
block 22
  1

  0
SPLINE
  5
E5
330
E1
100
AcDbEntity
  8
Layer 1
370
     0
100
AcDbSpline
210
0.0
220
0.0
230
1.0
 70
    11
 71
     3
 72
    17
 73
    13
 74
     0
 42
0.0000000001
 43
0.0000000001
 40
0.0
 40
0.0
 40
0.0
 40
0.0
 40
1.0
 40
1.0
 40
1.0
 40
2.0
 40
2.0
 40
2.0
 40
3.0
 40
3.0
 40
3.0
 40
4.0
 40
4.0
 40
4.0
 40
4.0
 10
191.700271219436
 20
-126.7057888138097
 30
0.0
 10
191.700271219436
 20
-127.8095974072837
 30
0.0
 10
190.8052354123681
 20
-128.7053222334487
 30
0.0
 10
189.7007377997971
 20
-128.7046332143516
 30
0.0
 10
188.5955511681289
 20
-128.7046332143516
 30
0.0
 10
187.700515361061
 20
-127.8095974072837
 30
0.0
 10
187.700515361061
 20
-126.7057888138097
 30
0.0
 10
187.700515361061
 20
-125.6012912012386
 30
0.0
 10
188.5955511681289
 20
-124.7055663750736
 30
0.0
 10
189.7007377997971
 20
-124.7055663750736
 30
0.0
 10
190.8052354123681
 20
-124.7062553941707
 30
0.0
 10
191.700271219436
 20
-125.6012912012386
 30
0.0
 10
191.700271219436
 20
-126.7057888138097
 30
0.0
  0
SPLINE
  5
E6
330
E1
100
AcDbEntity
  8
Layer 1
370
     0
100
AcDbSpline
210
0.0
220
0.0
230
1.0
 70
    11
 71
     3
 72
    17
 73
    13
 74
     0
 42
0.0000000001
 43
0.0000000001
 40
0.0
 40
0.0
 40
0.0
 40
0.0
 40
1.0
 40
1.0
 40
1.0
 40
2.0
 40
2.0
 40
2.0
 40
3.0
 40
3.0
 40
3.0
 40
4.0
 40
4.0
 40
4.0
 40
4.0
 10
185.2372720891074
 20
-126.7057888138097
 30
0.0
 10
185.2372720891074
 20
-127.1192002720396
 30
0.0
 10
184.901719788844
 20
-127.4554415914
 30
0.0
 10
184.487619311517
 20
-127.4554415914
 30
0.0
 10
184.07351883419
 20
-127.4554415914
 30
0.0
 10
183.7372775148296
 20
-127.1192002720396
 30
0.0
 10
183.7372775148296
 20
-126.7057888138097
 30
0.0
 10
183.7372775148296
 20
-126.2916883364826
 30
0.0
 10
184.07351883419
 20
-125.9554470171223
 30
0.0
 10
184.487619311517
 20
-125.9554470171223
 30
0.0
 10
184.901719788844
 20
-125.9554470171223
 30
0.0
 10
185.2372720891074
 20
-126.2916883364826
 30
0.0
 10
185.2372720891074
 20
-126.7057888138097
 30
0.0
  0
SPLINE
  5
E7
330
E1
100
AcDbEntity
  8
Layer 1
370
     0
100
AcDbSpline
210
0.0
220
0.0
230
1.0
 70
    11
 71
     3
 72
    17
 73
    13
 74
     0
 42
0.0000000001
 43
0.0000000001
 40
0.0
 40
0.0
 40
0.0
 40
0.0
 40
1.0
 40
1.0
 40
1.0
 40
2.0
 40
2.0
 40
2.0
 40
3.0
 40
3.0
 40
3.0
 40
4.0
 40
4.0
 40
4.0
 40
4.0
 10
195.5704914875657
 20
-126.7057888138097
 30
0.0
 10
195.5704914875657
 20
-127.1198892911367
 30
0.0
 10
195.2342501682053
 20
-127.4540635532059
 30
0.0
 10
194.8208387099754
 20
-127.4540635532059
 30
0.0
 10
194.4067382326483
 20
-127.454752572303
 30
0.0
 10
194.0704969132879
 20
-127.1192002720396
 30
0.0
 10
194.0704969132879
 20
-126.7057888138097
 30
0.0
 10
194.0698078941909
 20
-126.2916883364826
 30
0.0
 10
194.4067382326483
 20
-125.9554470171223
 30
0.0
 10
194.8208387099754
 20
-125.9554470171223
 30
0.0
 10
195.2349391873024
 20
-125.9554470171223
 30
0.0
 10
195.5698024684687
 20
-126.2916883364826
 30
0.0
 10
195.5704914875657
 20
-126.7057888138097
 30
0.0
  0
SPLINE
  5
E8
330
E1
100
AcDbEntity
  8
Layer 1
370
     0
100
AcDbSpline
210
0.0
220
0.0
230
1.0
 70
    11
 71
     3
 72
    17
 73
    13
 74
     0
 42
0.0000000001
 43
0.0000000001
 40
0.0
 40
0.0
 40
0.0
 40
0.0
 40
1.0
 40
1.0
 40
1.0
 40
2.0
 40
2.0
 40
2.0
 40
3.0
 40
3.0
 40
3.0
 40
4.0
 40
4.0
 40
4.0
 40
4.0
 10
186.4196288596451
 20
-123.8318901600143
 30
0.0
 10
186.4189398405481
 20
-124.2453016182442
 30
0.0
 10
186.0833875402847
 20
-124.5815429376046
 30
0.0
 10
185.6692870629577
 20
-124.5815429376046
 30
0.0
 10
185.2551865856307
 20
-124.5815429376046
 30
0.0
 10
184.9189452662703
 20
-124.2453016182442
 30
0.0
 10
184.9189452662703
 20
-123.8318901600143
 30
0.0
 10
184.9196342853673
 20
-123.4171006635902
 30
0.0
 10
185.2551865856307
 20
-123.0815483633268
 30
0.0
 10
185.6692870629577
 20
-123.0815483633268
 30
0.0
 10
186.0833875402847
 20
-123.0815483633268
 30
0.0
 10
186.4196288596451
 20
-123.4171006635902
 30
0.0
 10
186.4196288596451
 20
-123.8318901600143
 30
0.0
  0
SPLINE
  5
E9
330
E1
100
AcDbEntity
  8
Layer 1
370
     0
100
AcDbSpline
210
0.0
220
0.0
230
1.0
 70
    11
 71
     3
 72
    17
 73
    13
 74
     0
 42
0.0000000001
 43
0.0000000001
 40
0.0
 40
0.0
 40
0.0
 40
0.0
 40
1.0
 40
1.0
 40
1.0
 40
2.0
 40
2.0
 40
2.0
 40
3.0
 40
3.0
 40
3.0
 40
4.0
 40
4.0
 40
4.0
 40
4.0
 10
192.3321017314309
 20
-120.560427487221
 30
0.0
 10
192.7462022087579
 20
-120.559738468124
 30
0.0
 10
193.0817545090212
 20
-120.8959797874844
 30
0.0
 10
193.0824435281183
 20
-121.3100802648114
 30
0.0
 10
193.0824435281183
 20
-121.7241807421384
 30
0.0
 10
192.7462022087579
 20
-122.0604220614988
 30
0.0
 10
192.3321017314309
 20
-122.0604220614988
 30
0.0
 10
191.9180012541038
 20
-122.0604220614988
 30
0.0
 10
191.5824489538405
 20
-121.7241807421384
 30
0.0
 10
191.5824489538405
 20
-121.3100802648114
 30
0.0
 10
191.5824489538405
 20
-120.8959797874844
 30
0.0
 10
191.9180012541038
 20
-120.560427487221
 30
0.0
 10
192.3321017314309
 20
-120.560427487221
 30
0.0
  0
ENDBLK
  5
E4
330
E1
100
AcDbEntity
  8
0
100
AcDbBlockEnd
  0
BLOCK
  5
103
330
101
100
AcDbEntity
  8
0
100
AcDbBlockBegin
  2
block 23
 70
     0
 71
     0
 10
0.0
 20
0.0
 30
0.0
  3
block 23
  1

  0
INSERT
  5
106
330
101
100
AcDbEntity
  8
Layer 1
100
AcDbBlockReference
  2
block 24
 10
0.0
 20
0.0
 30
0.0
  0
SPLINE
  5
10A
330
101
100
AcDbEntity
  8
Layer 1
370
     0
100
AcDbSpline
210
0.0
220
0.0
230
1.0
 70
    11
 71
     3
 72
   137
 73
   133
 74
     0
 42
0.0000000001
 43
0.0000000001
 40
0.0
 40
0.0
 40
0.0
 40
0.0
 40
1.0
 40
1.0
 40
1.0
 40
2.0
 40
2.0
 40
2.0
 40
3.0
 40
3.0
 40
3.0
 40
4.0
 40
4.0
 40
4.0
 40
5.0
 40
5.0
 40
5.0
 40
6.0
 40
6.0
 40
6.0
 40
7.0
 40
7.0
 40
7.0
 40
8.0
 40
8.0
 40
8.0
 40
9.0
 40
9.0
 40
9.0
 40
10.0
 40
10.0
 40
10.0
 40
11.0
 40
11.0
 40
11.0
 40
12.0
 40
12.0
 40
12.0
 40
13.0
 40
13.0
 40
13.0
 40
14.0
 40
14.0
 40
14.0
 40
15.0
 40
15.0
 40
15.0
 40
16.0
 40
16.0
 40
16.0
 40
17.0
 40
17.0
 40
17.0
 40
18.0
 40
18.0
 40
18.0
 40
19.0
 40
19.0
 40
19.0
 40
20.0
 40
20.0
 40
20.0
 40
21.0
 40
21.0
 40
21.0
 40
22.0
 40
22.0
 40
22.0
 40
23.0
 40
23.0
 40
23.0
 40
24.0
 40
24.0
 40
24.0
 40
25.0
 40
25.0
 40
25.0
 40
26.0
 40
26.0
 40
26.0
 40
27.0
 40
27.0
 40
27.0
 40
28.0
 40
28.0
 40
28.0
 40
29.0
 40
29.0
 40
29.0
 40
30.0
 40
30.0
 40
30.0
 40
31.0
 40
31.0
 40
31.0
 40
32.0
 40
32.0
 40
32.0
 40
33.0
 40
33.0
 40
33.0
 40
34.0
 40
34.0
 40
34.0
 40
35.0
 40
35.0
 40
35.0
 40
36.0
 40
36.0
 40
36.0
 40
37.0
 40
37.0
 40
37.0
 40
38.0
 40
38.0
 40
38.0
 40
39.0
 40
39.0
 40
39.0
 40
40.0
 40
40.0
 40
40.0
 40
41.0
 40
41.0
 40
41.0
 40
42.0
 40
42.0
 40
42.0
 40
43.0
 40
43.0
 40
43.0
 40
44.0
 40
44.0
 40
44.0
 40
44.0
 10
9.735667586541778
 20
-96.36810571592534
 30
0.0
 10
9.735667586541778
 20
-96.36810571592534
 30
0.0
 10
9.735667586541778
 20
-147.7208712738337
 30
0.0
 10
9.735667586541778
 20
-147.7208712738337
 30
0.0
 10
9.735667586541778
 20
-147.7208712738337
 30
0.0
 10
9.735667586541778
 20
-147.7215602929307
 30
0.0
 10
9.735667586541778
 20
-147.7215602929307
 30
0.0
 10
9.735667586541778
 20
-149.1016655443218
 30
0.0
 10
10.8460218614378
 20
-150.221321577028
 30
0.0
 10
12.22612711282889
 20
-150.221321577028
 30
0.0
 10
12.22612711282889
 20
-150.221321577028
 30
0.0
 10
12.26540120136073
 20
-150.221321577028
 30
0.0
 10
12.26540120136073
 20
-150.221321577028
 30
0.0
 10
12.26540120136073
 20
-150.221321577028
 30
0.0
 10
168.2267686211378
 20
-150.221321577028
 30
0.0
 10
168.2267686211378
 20
-150.221321577028
 30
0.0
 10
169.6082519107229
 20
-150.221321577028
 30
0.0
 10
170.725840886138
 20
-149.103732601613
 30
0.0
 10
170.725840886138
 20
-147.7222493120278
 30
0.0
 10
170.725840886138
 20
-147.7222493120278
 30
0.0
 10
170.725840886138
 20
-140.7604003554349
 30
0.0
 10
170.725840886138
 20
-140.7604003554349
 30
0.0
 10
170.725840886138
 20
-140.7604003554349
 30
0.0
 10
43.07075601136773
 20
-140.7604003554349
 30
0.0
 10
43.07075601136773
 20
-140.7604003554349
 30
0.0
 10
43.07075601136773
 20
-140.7604003554349
 30
0.0
 10
43.07075601136773
 20
-96.36810571592534
 30
0.0
 10
43.07075601136773
 20
-96.36810571592534
 30
0.0
 10
43.07075601136773
 20
-96.36810571592534
 30
0.0
 10
36.86889511882097
 20
-96.36810571592534
 30
0.0
 10
36.86889511882097
 20
-96.36810571592534
 30
0.0
 10
36.86889511882097
 20
-96.36810571592534
 30
0.0
 10
36.86889511882097
 20
-104.7493340124411
 30
0.0
 10
36.86889511882097
 20
-104.7493340124411
 30
0.0
 10
36.86889511882097
 20
-104.7493340124411
 30
0.0
 10
37.79114718022235
 20
-104.7493340124411
 30
0.0
 10
37.79114718022235
 20
-104.7493340124411
 30
0.0
 10
37.79114718022235
 20
-104.7493340124411
 30
0.0
 10
37.96443548313042
 20
-104.7493340124411
 30
0.0
 10
37.96443548313042
 20
-104.7493340124411
 30
0.0
 10
37.96443548313042
 20
-104.7493340124411
 30
0.0
 10
37.87761907690212
 20
-104.8991956660495
 30
0.0
 10
37.87761907690212
 20
-104.8991956660495
 30
0.0
 10
37.87761907690212
 20
-104.8991956660495
 30
0.0
 10
36.8554592464285
 20
-106.6698024906937
 30
0.0
 10
36.8554592464285
 20
-106.6698024906937
 30
0.0
 10
36.8554592464285
 20
-106.6698024906937
 30
0.0
 10
36.52955321352386
 20
-107.2341091311776
 30
0.0
 10
36.52955321352386
 20
-107.2341091311776
 30
0.0
 10
36.52955321352386
 20
-107.2341091311776
 30
0.0
 10
34.87935247608919
 20
-110.0921603457409
 30
0.0
 10
34.87935247608919
 20
-110.0921603457409
 30
0.0
 10
34.87935247608919
 20
-110.0921603457409
 30
0.0
 10
34.79288057940942
 20
-110.2423665088977
 30
0.0
 10
34.79288057940942
 20
-110.2423665088977
 30
0.0
 10
34.79288057940942
 20
-110.2423665088977
 30
0.0
 10
34.70640868272965
 20
-110.0921603457409
 30
0.0
 10
34.70640868272965
 20
-110.0921603457409
 30
0.0
 10
34.70640868272965
 20
-110.0921603457409
 30
0.0
 10
33.05620794529498
 20
-107.2341091311776
 30
0.0
 10
33.05620794529498
 20
-107.2341091311776
 30
0.0
 10
33.05620794529498
 20
-107.2341091311776
 30
0.0
 10
32.73030191239035
 20
-106.6698024906937
 30
0.0
 10
32.73030191239035
 20
-106.6698024906937
 30
0.0
 10
32.73030191239035
 20
-106.6698024906937
 30
0.0
 10
31.70814208191672
 20
-104.8991956660495
 30
0.0
 10
31.70814208191672
 20
-104.8991956660495
 30
0.0
 10
31.70814208191672
 20
-104.8991956660495
 30
0.0
 10
31.62132567568842
 20
-104.7493340124411
 30
0.0
 10
31.62132567568842
 20
-104.7493340124411
 30
0.0
 10
31.62132567568842
 20
-104.7493340124411
 30
0.0
 10
31.79461397859649
 20
-104.7493340124411
 30
0.0
 10
31.79461397859649
 20
-104.7493340124411
 30
0.0
 10
31.79461397859649
 20
-104.7493340124411
 30
0.0
 10
32.71686603999787
 20
-104.7493340124411
 30
0.0
 10
32.71686603999787
 20
-104.7493340124411
 30
0.0
 10
32.71686603999787
 20
-104.7493340124411
 30
0.0
 10
32.71686603999787
 20
-96.36810571592534
 30
0.0
 10
32.71686603999787
 20
-96.36810571592534
 30
0.0
 10
32.71686603999787
 20
-96.36810571592534
 30
0.0
 10
17.83612060100972
 20
-96.36810571592534
 30
0.0
 10
17.83612060100972
 20
-96.36810571592534
 30
0.0
 10
17.83612060100972
 20
-96.36810571592534
 30
0.0
 10
17.83612060100972
 20
-109.749717854507
 30
0.0
 10
17.83612060100972
 20
-109.749717854507
 30
0.0
 10
17.83612060100972
 20
-109.749717854507
 30
0.0
 10
18.75389403828028
 20
-109.749717854507
 30
0.0
 10
18.75389403828028
 20
-109.749717854507
 30
0.0
 10
18.75389403828028
 20
-109.749717854507
 30
0.0
 10
18.92718234118835
 20
-109.749717854507
 30
0.0
 10
18.92718234118835
 20
-109.749717854507
 30
0.0
 10
18.92718234118835
 20
-109.749717854507
 30
0.0
 10
18.84036593496005
 20
-109.8999240176639
 30
0.0
 10
18.84036593496005
 20
-109.8999240176639
 30
0.0
 10
18.84036593496005
 20
-109.8999240176639
 30
0.0
 10
17.82268472861725
 20
-111.6631238870148
 30
0.0
 10
17.82268472861725
 20
-111.6631238870148
 30
0.0
 10
17.82268472861725
 20
-111.6631238870148
 30
0.0
 10
17.49264458113031
 20
-112.2343207184692
 30
0.0
 10
17.49264458113031
 20
-112.2343207184692
 30
0.0
 10
17.49264458113031
 20
-112.2343207184692
 30
0.0
 10
15.84244384369564
 20
-115.0930609521295
 30
0.0
 10
15.84244384369564
 20
-115.0930609521295
 30
0.0
 10
15.84244384369564
 20
-115.0930609521295
 30
0.0
 10
15.75597194701587
 20
-115.2432671152864
 30
0.0
 10
15.75597194701587
 20
-115.2432671152864
 30
0.0
 10
15.75597194701587
 20
-115.2432671152864
 30
0.0
 10
15.6695000503361
 20
-115.0930609521295
 30
0.0
 10
15.6695000503361
 20
-115.0930609521295
 30
0.0
 10
15.6695000503361
 20
-115.0930609521295
 30
0.0
 10
14.0189548033529
 20
-112.2343207184692
 30
0.0
 10
14.0189548033529
 20
-112.2343207184692
 30
0.0
 10
14.0189548033529
 20
-112.2343207184692
 30
0.0
 10
13.71750894839354
 20
-111.7120442429053
 30
0.0
 10
13.71750894839354
 20
-111.7120442429053
 30
0.0
 10
13.71750894839354
 20
-111.7120442429053
 30
0.0
 10
12.67088893997464
 20
-109.8999240176639
 30
0.0
 10
12.67088893997464
 20
-109.8999240176639
 30
0.0
 10
12.67088893997464
 20
-109.8999240176639
 30
0.0
 10
12.58407253374634
 20
-109.749717854507
 30
0.0
 10
12.58407253374634
 20
-109.749717854507
 30
0.0
 10
12.58407253374634
 20
-109.749717854507
 30
0.0
 10
12.75736083665441
 20
-109.749717854507
 30
0.0
 10
12.75736083665441
 20
-109.749717854507
 30
0.0
 10
12.75736083665441
 20
-109.749717854507
 30
0.0
 10
13.70407307600107
 20
-109.749717854507
 30
0.0
 10
13.70407307600107
 20
-109.749717854507
 30
0.0
 10
13.70407307600107
 20
-109.749717854507
 30
0.0
 10
13.70407307600107
 20
-96.36810571592534
 30
0.0
 10
13.70407307600107
 20
-96.36810571592534
 30
0.0
 10
13.70407307600107
 20
-96.36810571592534
 30
0.0
 10
9.735667586541778
 20
-96.36810571592534
 30
0.0
 10
9.735667586541778
 20
-96.36810571592534
 30
0.0
  0
ENDBLK
  5
104
330
101
100
AcDbEntity
  8
0
100
AcDbBlockEnd
  0
BLOCK
  5
107
330
105
100
AcDbEntity
  8
0
100
AcDbBlockBegin
  2
block 24
 70
     0
 71
     0
 10
0.0
 20
0.0
 30
0.0
  3
block 24
  1

  0
SPLINE
  5
109
330
105
100
AcDbEntity
  8
Layer 1
370
     0
100
AcDbSpline
210
0.0
220
0.0
230
1.0
 70
    11
 71
     3
 72
    17
 73
    13
 74
     0
 42
0.0000000001
 43
0.0000000001
 40
0.0
 40
0.0
 40
0.0
 40
0.0
 40
1.0
 40
1.0
 40
1.0
 40
2.0
 40
2.0
 40
2.0
 40
3.0
 40
3.0
 40
3.0
 40
4.0
 40
4.0
 40
4.0
 40
4.0
 10
25.52764078137851
 20
-141.8538736624532
 30
0.0
 10
25.52764078137851
 20
-140.7493760498821
 30
0.0
 10
26.42267658844641
 20
-139.8536512237172
 30
0.0
 10
27.52717420101751
 20
-139.8536512237172
 30
0.0
 10
28.63167181358861
 20
-139.8536512237172
 30
0.0
 10
29.52739663975357
 20
-140.7493760498821
 30
0.0
 10
29.52739663975357
 20
-141.8538736624532
 30
0.0
 10
29.52739663975357
 20
-142.9583712750243
 30
0.0
 10
28.63167181358861
 20
-143.8534070820922
 30
0.0
 10
27.52717420101751
 20
-143.8534070820922
 30
0.0
 10
26.42267658844641
 20
-143.8534070820922
 30
0.0
 10
25.52764078137851
 20
-142.9583712750243
 30
0.0
 10
25.52764078137851
 20
-141.8538736624532
 30
0.0
  0
ENDBLK
  5
108
330
105
100
AcDbEntity
  8
0
100
AcDbBlockEnd
  0
ENDSEC
  0
SECTION
  2
ENTITIES
  0
INSERT
  5
3D
330
1F
100
AcDbEntity
  8
Layer 1
100
AcDbBlockReference
  2
block 2
 10
0.0
 20
0.0
 30
0.0
  0
INSERT
  5
5D
330
1F
100
AcDbEntity
  8
Layer 1
100
AcDbBlockReference
  2
block 4
 10
0.0
 20
0.0
 30
0.0
  0
INSERT
  5
69
330
1F
100
AcDbEntity
  8
Layer 1
100
AcDbBlockReference
  2
block 5
 10
0.0
 20
0.0
 30
0.0
  0
INSERT
  5
7A
330
1F
100
AcDbEntity
  8
Layer 1
100
AcDbBlockReference
  2
block 8
 10
0.0
 20
0.0
 30
0.0
  0
SPLINE
  5
8B
330
1F
100
AcDbEntity
  8
Layer 1
370
     0
100
AcDbSpline
210
0.0
220
0.0
230
1.0
 70
    11
 71
     3
 72
    62
 73
    58
 74
     0
 42
0.0000000001
 43
0.0000000001
 40
0.0
 40
0.0
 40
0.0
 40
0.0
 40
1.0
 40
1.0
 40
1.0
 40
2.0
 40
2.0
 40
2.0
 40
3.0
 40
3.0
 40
3.0
 40
4.0
 40
4.0
 40
4.0
 40
5.0
 40
5.0
 40
5.0
 40
6.0
 40
6.0
 40
6.0
 40
7.0
 40
7.0
 40
7.0
 40
8.0
 40
8.0
 40
8.0
 40
9.0
 40
9.0
 40
9.0
 40
10.0
 40
10.0
 40
10.0
 40
11.0
 40
11.0
 40
11.0
 40
12.0
 40
12.0
 40
12.0
 40
13.0
 40
13.0
 40
13.0
 40
14.0
 40
14.0
 40
14.0
 40
15.0
 40
15.0
 40
15.0
 40
16.0
 40
16.0
 40
16.0
 40
17.0
 40
17.0
 40
17.0
 40
18.0
 40
18.0
 40
18.0
 40
19.0
 40
19.0
 40
19.0
 40
19.0
 10
281.6723849122208
 20
-83.62228594914652
 30
0.0
 10
283.053179182709
 20
-83.62228594914652
 30
0.0
 10
284.1728352154151
 20
-84.74125296275567
 30
0.0
 10
284.1728352154151
 20
-86.12204723324379
 30
0.0
 10
284.1728352154151
 20
-86.12204723324379
 30
0.0
 10
284.1728352154151
 20
-123.6224283545111
 30
0.0
 10
284.1728352154151
 20
-123.6224283545111
 30
0.0
 10
284.1728352154151
 20
-123.6224283545111
 30
0.0
 10
284.9962130363899
 20
-123.6224283545111
 30
0.0
 10
284.9962130363899
 20
-123.6224283545111
 30
0.0
 10
286.377007306878
 20
-123.6224283545111
 30
0.0
 10
287.4959743204871
 20
-124.7413953681202
 30
0.0
 10
287.4959743204871
 20
-126.1221896386083
 30
0.0
 10
287.4959743204871
 20
-126.1221896386083
 30
0.0
 10
287.4959743204871
 20
-148.580767106952
 30
0.0
 10
287.4959743204871
 20
-148.580767106952
 30
0.0
 10
287.4959743204871
 20
-149.9615613774402
 30
0.0
 10
286.377007306878
 20
-151.0812174101464
 30
0.0
 10
284.9962130363899
 20
-151.0812174101464
 30
0.0
 10
284.9962130363899
 20
-151.0812174101464
 30
0.0
 10
237.245811572633
 20
-151.0812174101464
 30
0.0
 10
237.245811572633
 20
-151.0812174101464
 30
0.0
 10
235.8650173021449
 20
-151.0812174101464
 30
0.0
 10
234.7460502885357
 20
-149.9615613774402
 30
0.0
 10
234.7460502885357
 20
-148.580767106952
 30
0.0
 10
234.7460502885357
 20
-148.580767106952
 30
0.0
 10
234.7460502885357
 20
-86.12204723324379
 30
0.0
 10
234.7460502885357
 20
-86.12204723324379
 30
0.0
 10
234.7460502885357
 20
-84.74125296275567
 30
0.0
 10
235.8650173021449
 20
-83.62228594914652
 30
0.0
 10
237.245811572633
 20
-83.62228594914652
 30
0.0
 10
237.245811572633
 20
-83.62228594914652
 30
0.0
 10
242.017268819704
 20
-83.62228594914652
 30
0.0
 10
242.017268819704
 20
-83.62228594914652
 30
0.0
 10
242.017268819704
 20
-83.62228594914652
 30
0.0
 10
242.017268819704
 20
-82.54844968639414
 30
0.0
 10
242.017268819704
 20
-82.54844968639414
 30
0.0
 10
242.017268819704
 20
-82.54844968639414
 30
0.0
 10
241.0168130907875
 20
-82.54844968639414
 30
0.0
 10
241.0168130907875
 20
-82.54844968639414
 30
0.0
 10
241.0168130907875
 20
-82.54844968639414
 30
0.0
 10
241.0168130907875
 20
-80.14790715227205
 30
0.0
 10
241.0168130907875
 20
-80.14790715227205
 30
0.0
 10
241.0168130907875
 20
-80.14790715227205
 30
0.0
 10
246.4173447734651
 20
-80.14790715227205
 30
0.0
 10
246.4173447734651
 20
-80.14790715227205
 30
0.0
 10
246.4173447734651
 20
-80.14790715227205
 30
0.0
 10
246.4173447734651
 20
-82.54844968639414
 30
0.0
 10
246.4173447734651
 20
-82.54844968639414
 30
0.0
 10
246.4173447734651
 20
-82.54844968639414
 30
0.0
 10
245.4175780636456
 20
-82.54844968639414
 30
0.0
 10
245.4175780636456
 20
-82.54844968639414
 30
0.0
 10
245.4175780636456
 20
-82.54844968639414
 30
0.0
 10
245.4175780636456
 20
-83.62228594914652
 30
0.0
 10
245.4175780636456
 20
-83.62228594914652
 30
0.0
 10
245.4175780636456
 20
-83.62228594914652
 30
0.0
 10
281.6723849122208
 20
-83.62228594914652
 30
0.0
 10
281.6723849122208
 20
-83.62228594914652
 30
0.0
  0
INSERT
  5
8D
330
1F
100
AcDbEntity
  8
Layer 1
100
AcDbBlockReference
  2
block 12
 10
0.0
 20
0.0
 30
0.0
  0
INSERT
  5
102
330
1F
100
AcDbEntity
  8
Layer 1
100
AcDbBlockReference
  2
block 23
 10
0.0
 20
0.0
 30
0.0
  0
ENDSEC
  0
SECTION
  2
OBJECTS
  0
DICTIONARY
  5
C
330
0
100
AcDbDictionary
281
     1
  3
ACAD_GROUP
350
D
  3
ACAD_LAYOUT
350
1A
  3
ACAD_MLINESTYLE
350
17
  3
ACAD_PLOTSETTINGS
350
19
  3
ACAD_PLOTSTYLENAME
350
E
  3
ACAD_TABLESTYLE
350
10B
  3
ACAD_VISUALSTYLE
350
2A
  0
DICTIONARY
  5
D
102
{ACAD_REACTORS
330
C
102
}
330
C
100
AcDbDictionary
281
     1
  0
DICTIONARY
  5
1A
102
{ACAD_REACTORS
330
C
102
}
330
C
100
AcDbDictionary
281
     1
  3
Layout1
350
1E
  3
Layout2
350
26
  3
Model
350
22
  0
DICTIONARY
  5
17
102
{ACAD_REACTORS
330
C
102
}
330
C
100
AcDbDictionary
281
     1
  3
Standard
350
18
  0
DICTIONARY
  5
19
102
{ACAD_REACTORS
330
C
102
}
330
C
100
AcDbDictionary
281
     1
  0
ACDBDICTIONARYWDFLT
  5
E
102
{ACAD_REACTORS
330
C
102
}
330
C
100
AcDbDictionary
281
     1
  3
Normal
350
F
100
AcDbDictionaryWithDefault
340
F
  0
DICTIONARY
  5
10B
102
{ACAD_REACTORS
330
C
102
}
330
C
100
AcDbDictionary
281
     1
  0
DICTIONARY
  5
2A
102
{ACAD_REACTORS
330
C
102
}
330
C
100
AcDbDictionary
281
     1
  3
2dWireframe
350
2F
  3
3D Hidden
350
31
  3
3dWireframe
350
30
  3
Basic
350
32
  3
Brighten
350
36
  3
ColorChange
350
3A
  3
Conceptual
350
34
  3
Dim
350
35
  3
Facepattern
350
39
  3
Flat
350
2B
  3
FlatWithEdges
350
2C
  3
Gouraud
350
2D
  3
GouraudWithEdges
350
2E
  3
Linepattern
350
38
  3
Realistic
350
33
  3
Thicken
350
37
  0
LAYOUT
  5
1E
102
{ACAD_REACTORS
330
1A
102
}
330
1A
100
AcDbPlotSettings
  1

  2
none_device
  4

  6

 40
0.0
 41
0.0
 42
0.0
 43
0.0
 44
0.0
 45
0.0
 46
0.0
 47
0.0
 48
0.0
 49
0.0
140
0.0
141
0.0
142
1.0
143
1.0
 70
   688
 72
     0
 73
     0
 74
     5
  7

 75
    16
 76
     0
 77
     2
 78
   300
147
1.0
148
0.0
149
0.0
100
AcDbLayout
  1
Layout1
 70
     1
 71
     1
 10
0.0
 20
0.0
 11
12.0
 21
9.0
 12
0.0
 22
0.0
 32
0.0
 14
1.000000000000000E+20
 24
1.000000000000000E+20
 34
1.000000000000000E+20
 15
-1.000000000000000E+20
 25
-1.000000000000000E+20
 35
-1.000000000000000E+20
146
0.0
 13
0.0
 23
0.0
 33
0.0
 16
1.0
 26
0.0
 36
0.0
 17
0.0
 27
1.0
 37
0.0
 76
     0
330
1B
  0
LAYOUT
  5
26
102
{ACAD_REACTORS
330
1A
102
}
330
1A
100
AcDbPlotSettings
  1

  2
none_device
  4

  6

 40
0.0
 41
0.0
 42
0.0
 43
0.0
 44
0.0
 45
0.0
 46
0.0
 47
0.0
 48
0.0
 49
0.0
140
0.0
141
0.0
142
1.0
143
1.0
 70
   688
 72
     0
 73
     0
 74
     5
  7

 75
    16
 76
     0
 77
     2
 78
   300
147
1.0
148
0.0
149
0.0
100
AcDbLayout
  1
Layout2
 70
     1
 71
     2
 10
0.0
 20
0.0
 11
0.0
 21
0.0
 12
0.0
 22
0.0
 32
0.0
 14
0.0
 24
0.0
 34
0.0
 15
0.0
 25
0.0
 35
0.0
146
0.0
 13
0.0
 23
0.0
 33
0.0
 16
1.0
 26
0.0
 36
0.0
 17
0.0
 27
1.0
 37
0.0
 76
     0
330
23
  0
LAYOUT
  5
22
102
{ACAD_REACTORS
330
1A
102
}
330
1A
100
AcDbPlotSettings
  1

  2
none_device
  4

  6

 40
0.0
 41
0.0
 42
0.0
 43
0.0
 44
0.0
 45
0.0
 46
0.0
 47
0.0
 48
0.0
 49
0.0
140
0.0
141
0.0
142
1.0
143
1.0
 70
  1712
 72
     0
 73
     0
 74
     0
  7

 75
     0
 76
     0
 77
     2
 78
   300
147
1.0
148
0.0
149
0.0
100
AcDbLayout
  1
Model
 70
     1
 71
     0
 10
0.0
 20
0.0
 11
12.0
 21
9.0
 12
0.0
 22
0.0
 32
0.0
 14
1.000000000000000E+20
 24
1.000000000000000E+20
 34
1.000000000000000E+20
 15
-1.000000000000000E+20
 25
-1.000000000000000E+20
 35
-1.000000000000000E+20
146
0.0
 13
0.0
 23
0.0
 33
0.0
 16
1.0
 26
0.0
 36
0.0
 17
0.0
 27
1.0
 37
0.0
 76
     0
330
1F
331
29
  0
MLINESTYLE
  5
18
102
{ACAD_REACTORS
330
17
102
}
330
17
100
AcDbMlineStyle
  2
Standard
 70
     0
  3

 62
   256
 51
90.0
 52
90.0
 71
     2
 49
0.5
 62
   256
  6
BYLAYER
 49
-0.5
 62
   256
  6
BYLAYER
  0
ACDBPLACEHOLDER
  5
F
102
{ACAD_REACTORS
330
E
102
}
330
E
  0
VISUALSTYLE
  5
2F
102
{ACAD_REACTORS
330
2A
102
}
330
2A
100
AcDbVisualStyle
  2
2dWireframe
 70
     4
 71
     0
 72
     2
 73
     0
 90
        0
 40
-0.6
 41
-30.0
 62
     5
 63
     7
421
 16777215
 74
     1
 91
        4
 64
     7
 65
   257
 75
     1
175
     1
 42
1.0
 92
        0
 66
   257
 43
1.0
 76
     1
 77
     6
 78
     2
 67
     7
 79
     5
170
     0
171
     0
290
     0
174
     0
 93
        1
 44
0.0
173
     0
291
     0
 45
0.0
1001
ACAD
1000
AcDbSavedByObjectVersion
1070
     0
  0
VISUALSTYLE
  5
31
102
{ACAD_REACTORS
330
2A
102
}
330
2A
100
AcDbVisualStyle
  2
3D Hidden
 70
     6
 71
     1
 72
     2
 73
     2
 90
        0
 40
-0.6
 41
-30.0
 62
     5
 63
     7
421
 16777215
 74
     2
 91
        2
 64
     7
 65
   257
 75
     2
175
     1
 42
40.0
 92
        0
 66
   257
 43
1.0
 76
     1
 77
     6
 78
     2
 67
     7
 79
     3
170
     0
171
     0
290
     0
174
     0
 93
        1
 44
0.0
173
     0
291
     0
 45
0.0
1001
ACAD
1000
AcDbSavedByObjectVersion
1070
     0
  0
VISUALSTYLE
  5
30
102
{ACAD_REACTORS
330
2A
102
}
330
2A
100
AcDbVisualStyle
  2
3dWireframe
 70
     5
 71
     0
 72
     2
 73
     0
 90
        0
 40
-0.6
 41
-30.0
 62
     5
 63
     7
421
 16777215
 74
     1
 91
        4
 64
     7
 65
   257
 75
     1
175
     1
 42
1.0
 92
        0
 66
   257
 43
1.0
 76
     1
 77
     6
 78
     2
 67
     7
 79
     5
170
     0
171
     0
290
     0
174
     0
 93
        1
 44
0.0
173
     0
291
     0
 45
0.0
1001
ACAD
1000
AcDbSavedByObjectVersion
1070
     0
  0
VISUALSTYLE
  5
32
102
{ACAD_REACTORS
330
2A
102
}
330
2A
100
AcDbVisualStyle
  2
Basic
 70
     7
 71
     1
 72
     0
 73
     1
 90
        0
 40
-0.6
 41
-30.0
 62
     5
 63
     7
421
 16777215
 74
     0
 91
        4
 64
     7
 65
   257
 75
     1
175
     1
 42
1.0
 92
        8
 66
     7
 43
1.0
 76
     1
 77
     6
 78
     2
 67
     7
 79
     5
170
     0
171
     0
290
     0
174
     0
 93
        1
 44
0.0
173
     0
291
     1
 45
0.0
1001
ACAD
1000
AcDbSavedByObjectVersion
1070
     0
  0
VISUALSTYLE
  5
36
102
{ACAD_REACTORS
330
2A
102
}
330
2A
100
AcDbVisualStyle
  2
Brighten
 70
    12
 71
     2
 72
     2
 73
     0
 90
        0
 40
-0.6
 41
-30.0
 62
     5
 63
     7
421
 16777215
 74
     1
 91
        4
 64
     7
 65
   257
 75
     1
175
     1
 42
1.0
 92
        8
 66
     7
 43
1.0
 76
     1
 77
     6
 78
     2
 67
     7
 79
     5
170
     0
171
     0
290
     0
174
     0
 93
        1
 44
50.0
173
     0
291
     1
 45
0.0
1001
ACAD
1000
AcDbSavedByObjectVersion
1070
     0
  0
VISUALSTYLE
  5
3A
102
{ACAD_REACTORS
330
2A
102
}
330
2A
100
AcDbVisualStyle
  2
ColorChange
 70
    16
 71
     2
 72
     2
 73
     3
 90
        0
 40
-0.6
 41
-30.0
 62
     5
 63
     8
421
  8421504
 74
     1
 91
        4
 64
     7
 65
   257
 75
     1
175
     1
 42
1.0
 92
        8
 66
     8
424
  8421504
 43
1.0
 76
     1
 77
     6
 78
     2
 67
     7
 79
     5
170
     0
171
     0
290
     0
174
     0
 93
        1
 44
0.0
173
     0
291
     1
 45
0.0
1001
ACAD
1000
AcDbSavedByObjectVersion
1070
     0
  0
VISUALSTYLE
  5
34
102
{ACAD_REACTORS
330
2A
102
}
330
2A
100
AcDbVisualStyle
  2
Conceptual
 70
     9
 71
     3
 72
     2
 73
     0
 90
        0
 40
-0.6
 41
-30.0
 62
     5
 63
     7
421
 16777215
 74
     2
 91
        2
 64
     7
 65
   257
 75
     1
175
     1
 42
40.0
 92
        8
 66
     7
 43
1.0
 76
     1
 77
     6
 78
     2
 67
     7
 79
     3
170
     0
171
     0
290
     0
174
     0
 93
        1
 44
0.0
173
     0
291
     0
 45
0.0
1001
ACAD
1000
AcDbSavedByObjectVersion
1070
     0
  0
VISUALSTYLE
  5
35
102
{ACAD_REACTORS
330
2A
102
}
330
2A
100
AcDbVisualStyle
  2
Dim
 70
    11
 71
     2
 72
     2
 73
     0
 90
        0
 40
-0.6
 41
-30.0
 62
     5
 63
     7
421
 16777215
 74
     1
 91
        4
 64
     7
 65
   257
 75
     1
175
     1
 42
1.0
 92
        8
 66
     7
 43
1.0
 76
     1
 77
     6
 78
     2
 67
     7
 79
     5
170
     0
171
     0
290
     0
174
     0
 93
        1
 44
-50.0
173
     0
291
     1
 45
0.0
1001
ACAD
1000
AcDbSavedByObjectVersion
1070
     0
  0
VISUALSTYLE
  5
39
102
{ACAD_REACTORS
330
2A
102
}
330
2A
100
AcDbVisualStyle
  2
Facepattern
 70
    15
 71
     2
 72
     2
 73
     0
 90
        0
 40
-0.6
 41
-30.0
 62
     5
 63
     7
421
 16777215
 74
     1
 91
        4
 64
     7
 65
   257
 75
     1
175
     1
 42
1.0
 92
        8
 66
     7
 43
1.0
 76
     1
 77
     6
 78
     2
 67
     7
 79
     5
170
     0
171
     0
290
     0
174
     0
 93
        1
 44
0.0
173
     0
291
     1
 45
0.0
1001
ACAD
1000
AcDbSavedByObjectVersion
1070
     0
  0
VISUALSTYLE
  5
2B
102
{ACAD_REACTORS
330
2A
102
}
330
2A
100
AcDbVisualStyle
  2
Flat
 70
     0
 71
     2
 72
     1
 73
     1
 90
        2
 40
-0.6
 41
30.0
 62
     5
 63
     7
421
 16777215
 74
     0
 91
        4
 64
     7
 65
   257
 75
     1
175
     1
 42
1.0
 92
        8
 66
     7
 43
1.0
 76
     1
 77
     6
 78
     2
 67
     7
 79
     5
170
     0
171
     0
290
     0
174
     0
 93
       13
 44
0.0
173
     0
291
     1
 45
0.0
1001
ACAD
1000
AcDbSavedByObjectVersion
1070
     0
  0
VISUALSTYLE
  5
2C
102
{ACAD_REACTORS
330
2A
102
}
330
2A
100
AcDbVisualStyle
  2
FlatWithEdges
 70
     1
 71
     2
 72
     1
 73
     1
 90
        2
 40
-0.6
 41
30.0
 62
     5
 63
     7
421
 16777215
 74
     1
 91
        4
 64
     7
 65
   257
 75
     1
175
     1
 42
1.0
 92
        0
 66
   257
 43
1.0
 76
     1
 77
     6
 78
     2
 67
     7
 79
     5
170
     0
171
     0
290
     0
174
     0
 93
       13
 44
0.0
173
     0
291
     1
 45
0.0
1001
ACAD
1000
AcDbSavedByObjectVersion
1070
     0
  0
VISUALSTYLE
  5
2D
102
{ACAD_REACTORS
330
2A
102
}
330
2A
100
AcDbVisualStyle
  2
Gouraud
 70
     2
 71
     2
 72
     2
 73
     1
 90
        2
 40
-0.6
 41
30.0
 62
     5
 63
     7
421
 16777215
 74
     0
 91
        4
 64
     7
 65
   257
 75
     1
175
     1
 42
1.0
 92
        0
 66
     7
 43
1.0
 76
     1
 77
     6
 78
     2
 67
     7
 79
     5
170
     0
171
     0
290
     0
174
     0
 93
       13
 44
0.0
173
     0
291
     1
 45
0.0
1001
ACAD
1000
AcDbSavedByObjectVersion
1070
     0
  0
VISUALSTYLE
  5
2E
102
{ACAD_REACTORS
330
2A
102
}
330
2A
100
AcDbVisualStyle
  2
GouraudWithEdges
 70
     3
 71
     2
 72
     2
 73
     1
 90
        2
 40
-0.6
 41
30.0
 62
     5
 63
     7
421
 16777215
 74
     1
 91
        4
 64
     7
 65
   257
 75
     1
175
     1
 42
1.0
 92
        0
 66
   257
 43
1.0
 76
     1
 77
     6
 78
     2
 67
     7
 79
     5
170
     0
171
     0
290
     0
174
     0
 93
       13
 44
0.0
173
     0
291
     1
 45
0.0
1001
ACAD
1000
AcDbSavedByObjectVersion
1070
     0
  0
VISUALSTYLE
  5
38
102
{ACAD_REACTORS
330
2A
102
}
330
2A
100
AcDbVisualStyle
  2
Linepattern
 70
    14
 71
     2
 72
     2
 73
     0
 90
        0
 40
-0.6
 41
-30.0
 62
     5
 63
     7
421
 16777215
 74
     1
 91
        4
 64
     7
 65
   257
 75
     7
175
     7
 42
1.0
 92
        8
 66
     7
 43
1.0
 76
     1
 77
     6
 78
     2
 67
     7
 79
     5
170
     0
171
     0
290
     0
174
     0
 93
        1
 44
0.0
173
     0
291
     1
 45
0.0
1001
ACAD
1000
AcDbSavedByObjectVersion
1070
     0
  0
VISUALSTYLE
  5
33
102
{ACAD_REACTORS
330
2A
102
}
330
2A
100
AcDbVisualStyle
  2
Realistic
 70
     8
 71
     2
 72
     2
 73
     0
 90
        0
 40
-0.6
 41
-30.0
 62
     5
 63
     7
421
 16777215
 74
     1
 91
        0
 64
     7
 65
   257
 75
     1
175
     1
 42
1.0
 92
        8
 66
     8
424
  7895160
 43
1.0
 76
     1
 77
     6
 78
     2
 67
     7
 79
     5
170
     0
171
     0
290
     0
174
     0
 93
       13
 44
0.0
173
     0
291
     0
 45
0.0
1001
ACAD
1000
AcDbSavedByObjectVersion
1070
     0
  0
VISUALSTYLE
  5
37
102
{ACAD_REACTORS
330
2A
102
}
330
2A
100
AcDbVisualStyle
  2
Thicken
 70
    13
 71
     2
 72
     2
 73
     0
 90
        0
 40
-0.6
 41
-30.0
 62
     5
 63
     7
421
 16777215
 74
     1
 91
        4
 64
     7
 65
   257
 75
     1
175
     1
 42
1.0
 92
       12
 66
     7
 43
1.0
 76
     1
 77
     6
 78
     2
 67
     7
 79
     5
170
     0
171
     0
290
     0
174
     0
 93
        1
 44
0.0
173
     0
291
     1
 45
0.0
1001
ACAD
1000
AcDbSavedByObjectVersion
1070
     0
  0
ENDSEC
  0
EOF
